<?xml version="1.0" encoding="UTF-8" standalone="no"?>
<!-- Created with Inkscape (http://www.inkscape.org/) -->

<svg
   xmlns:svg="http://www.w3.org/2000/svg"
   xmlns="http://www.w3.org/2000/svg"
   version="1.1"
   width="850"
   height="200"
   id="svg2816"
   xml:space="preserve"><title
     id="title2901">Flattr-Logo</title><defs
     id="defs2820"><linearGradient
       x1="0"
       y1="0"
       x2="1"
       y2="0"
       id="linearGradient2840"
       gradientUnits="userSpaceOnUse"
       gradientTransform="matrix(0,134.75244,134.75244,0,150.74951,247.73047)"
       spreadMethod="pad"><stop
         id="stop2842"
         style="stop-color:#ea5f29;stop-opacity:1"
         offset="0" /><stop
         id="stop2844"
         style="stop-color:#fabd1f;stop-opacity:1"
         offset="1" /></linearGradient><linearGradient
       x1="0"
       y1="0"
       x2="1"
       y2="0"
       id="linearGradient2860"
       gradientUnits="userSpaceOnUse"
       gradientTransform="matrix(0,-134.75195,-134.75195,0,160.87451,372.12109)"
       spreadMethod="pad"><stop
         id="stop2862"
         style="stop-color:#abd33c;stop-opacity:1"
         offset="0" /><stop
         id="stop2864"
         style="stop-color:#6cb02f;stop-opacity:1"
         offset="1" /></linearGradient><clipPath
       id="clipPath2872"><path
         d="m 0,595.276 841.89,0 L 841.89,0 0,0 0,595.276 z"
         id="path2874" /></clipPath></defs><g
     transform="matrix(1.25,0,0,-1.25,-104.21625,496.50533)"
     id="g2826"><g
       transform="translate(3.4274813,7.3601302)"
       id="g2828"><g
         id="g2830"><g
           id="g2836"><g
             id="g2838"><path
               d="m 135.377,382.484 c -34.431,0 -52.004,-19.863 -52.004,-56.949 l 0,0 0,-25.906 0,-51.899 33.728,33.817 0,39.523 c 0,15.364 4.065,25.141 17.702,27.336 l 0,0 c 4.764,0.933 14.679,0.606 20.983,0.606 l 0,0 0,-23.467 c 0,-0.214 0.029,-0.596 0.084,-0.792 l 0,0 c 0.264,-0.95 1.122,-1.646 2.138,-1.648 l 0,0 c 0.575,-0.001 1.113,0.298 1.668,0.846 l 0,0 58.45,58.524 -39.234,0.009 -43.515,0 z"
               id="path2846"
               style="fill:url(#linearGradient2840);stroke:none" /></g></g></g></g><g
       transform="translate(3.4274813,7.3601302)"
       id="g2848"><g
         id="g2850"><g
           id="g2856"><g
             id="g2858"><path
               d="m 194.523,338.305 0,-39.522 c 0,-15.364 -4.066,-25.142 -17.702,-27.337 l 0,0 c -4.764,-0.932 -14.679,-0.605 -20.983,-0.605 l 0,0 0,23.466 c 0,0.213 -0.029,0.596 -0.084,0.792 l 0,0 c -0.264,0.951 -1.121,1.646 -2.138,1.648 l 0,0 c -0.575,0.002 -1.113,-0.298 -1.668,-0.845 l 0,0 -58.45,-58.524 39.234,-0.009 43.515,0 c 34.431,0 52.004,19.863 52.004,56.948 l 0,0 0,25.907 0,51.898 -33.728,-33.817 z"
               id="path2866"
               style="fill:url(#linearGradient2860);stroke:none" /></g></g></g></g><g
       transform="translate(3.4274813,7.3601302)"
       id="g2868"><g
         clip-path="url(#clipPath2872)"
         id="g2870"><g
           transform="translate(500.0391,266.1826)"
           id="g2876" /><g
           transform="translate(413.1797,243.7695)"
           id="g2880" /><g
           transform="translate(622.29,276.9707)"
           id="g2884" /><g
           transform="translate(364.2563,361.6123)"
           id="g2888" /><g
           transform="translate(756.458,336.3027)"
           id="g2892" /><g
           transform="translate(547.0293,276.9873)"
           id="g2896"><path
             d="m 0,0 c -0.068,-10.999 0.554,-15.534 2.455,-21.146 1.484,-4.108 3.621,-7.568 6.621,-10.396 5.577,-5.643 13.318,-8.061 25.395,-8.136 l 14.353,-0.089 c 0.59,-0.003 1.905,0.072 2.435,0.233 1.845,0.546 3.305,1.979 3.893,3.805 0.173,0.551 0.272,1.864 0.276,2.473 l 0.057,9.315 c 0.002,0.584 -0.07,1.898 -0.234,2.432 -0.543,1.845 -1.977,3.306 -3.804,3.889 -0.546,0.174 -1.865,0.276 -2.472,0.282 l -4.877,0.026 c -6.038,0.038 -10.558,1.791 -12.901,5.256 -1.928,2.817 -2.333,6.053 -2.269,16.836 l 0.194,31.605 c 0.007,0.605 0.107,1.924 0.282,2.47 0.585,1.829 2.048,3.263 3.891,3.808 0.535,0.157 1.847,0.237 2.434,0.233 l -0.01,0.011 13.621,-0.085 c 0.585,-0.002 1.898,0.074 2.431,0.231 1.843,0.548 3.305,1.981 3.892,3.805 0.171,0.55 0.272,1.871 0.278,2.472 l 0.058,9.312 c 0.002,0.584 -0.078,1.899 -0.233,2.433 -0.546,1.843 -1.977,3.304 -3.806,3.891 -0.55,0.174 -1.868,0.275 -2.473,0.278 l -13.633,0.087 c -0.604,0 -1.921,0.1 -2.469,0.275 -1.832,0.586 -3.261,2.048 -3.809,3.891 -0.156,0.534 -0.234,1.846 -0.23,2.433 l 0.161,25.69 c 0.002,0.585 -0.077,1.898 -0.236,2.431 -0.545,1.843 -1.979,3.303 -3.802,3.891 -0.55,0.175 -1.872,0.275 -2.473,0.278 L 7.204,104.319 C 6.618,104.321 5.306,104.243 4.773,104.085 2.929,103.539 1.47,102.104 0.884,100.279 0.708,99.732 0.607,98.412 0.605,97.807 L 0,0 z m 209.4287,59.3154 c -0.002,0.606 -0.101,1.921 -0.273,2.469 -0.588,1.827 -2.05,3.26 -3.893,3.806 -0.532,0.161 -1.849,0.239 -2.435,0.233 l -18.978,-0.087 c -12.075,-0.077 -19.816,-2.495 -25.392,-8.138 -2.999,-2.826 -5.138,-6.285 -6.622,-10.396 -1.902,-5.613 -2.524,-10.147 -2.456,-21.145 l -0.359,-59.141 c -0.002,-0.583 0.074,-1.899 0.234,-2.435 0.548,-1.839 1.98,-3.306 3.805,-3.889 0.55,-0.173 1.866,-0.278 2.474,-0.28 l 15.784,-0.095 c 0.586,-0.007 1.902,0.071 2.432,0.234 1.841,0.544 3.306,1.98 3.891,3.801 0.172,0.548 0.273,1.87 0.279,2.477 l 0.322,50.623 0.067,1.614 c -0.063,10.787 0.341,14.02 2.267,16.838 2.344,3.464 8.022,4.059 14.056,4.097 l 8.347,0.03 c 0.604,0.003 1.924,0.106 2.47,0.278 1.826,0.585 3.263,2.045 3.805,3.891 0.159,0.534 0.237,1.849 0.235,2.432 l -0.06,12.783 z M -182.773,84.625 c -0.021,-0.667 -0.107,-1.681 -0.255,-2.153 -0.572,-1.835 -2.026,-3.271 -3.863,-3.83 -0.532,-0.163 -1.846,-0.25 -2.435,-0.25 l -26.893,0 c -6.683,0 -15.738,-0.648 -21.349,-1.725 -12.291,-1.94 -18.542,-10.136 -18.542,-23.719 l 0,-1.201 c 0,-0.586 0.086,-8.475 0.246,-9.007 0.555,-1.839 1.997,-3.291 3.829,-3.865 0.552,-0.172 1.871,-0.265 2.475,-0.265 l 60.234,0 c 0.608,0 1.928,-0.094 2.473,-0.262 1.832,-0.576 3.275,-2.03 3.83,-3.868 0.162,-0.532 0.25,-1.847 0.25,-2.432 l 0,-12.328 c 0,-0.605 -0.091,-1.924 -0.264,-2.472 -0.571,-1.835 -2.027,-3.276 -3.862,-3.832 -0.535,-0.159 -1.848,-0.247 -2.436,-0.247 l -60.217,0 c -0.586,0 -1.897,-0.09 -2.429,-0.25 -1.84,-0.554 -3.295,-1.998 -3.866,-3.832 -0.175,-0.547 -0.263,-1.865 -0.263,-2.474 l 0,-39.835 c 0,-0.603 -0.094,-1.924 -0.267,-2.472 -0.572,-1.833 -2.026,-3.274 -3.863,-3.832 -0.533,-0.162 -1.845,-0.246 -2.433,-0.246 l -17.298,0 0.009,-0.01 c -0.086,0 -0.207,0.009 -0.315,0.01 -0.669,0.023 -1.687,0.104 -2.158,0.254 -1.834,0.572 -3.275,2.025 -3.83,3.864 -0.161,0.534 -0.249,1.843 -0.249,2.432 l 0,68.491 0,8.191 c 0.866,25.877 4.528,36.443 15.959,47.007 7.115,6.47 16.387,10.566 28.886,12.292 6.696,1.079 8.846,1.292 21.566,1.292 l 30.785,0 c 0.604,0 1.921,-0.092 2.472,-0.263 1.832,-0.574 3.271,-2.028 3.83,-3.866 0.148,-0.495 0.233,-1.63 0.243,-2.267 0,-0.052 0.005,-0.122 0.005,-0.166 l -0.005,0.004 0,-12.558 0.012,0.011 c 0,-0.087 -0.007,-0.211 -0.012,-0.321 M 75.2607,-0.0166 c -0.069,-10.997 0.554,-15.533 2.455,-21.146 1.483,-4.107 3.621,-7.567 6.621,-10.395 5.577,-5.643 13.318,-8.061 25.394,-8.136 l 14.353,-0.089 c 0.591,-0.004 1.905,0.071 2.436,0.234 1.845,0.546 3.305,1.978 3.893,3.803 0.173,0.552 0.272,1.866 0.276,2.475 l 0.057,9.314 c 0.002,0.584 -0.071,1.898 -0.234,2.432 -0.543,1.845 -1.978,3.306 -3.805,3.89 -0.547,0.173 -1.866,0.275 -2.471,0.281 l -4.877,0.025 c -6.038,0.039 -10.559,1.791 -12.901,5.256 -1.929,2.817 -2.334,6.054 -2.27,16.836 l 0.195,31.606 c 0.006,0.605 0.107,1.924 0.282,2.47 0.585,1.829 2.048,3.263 3.891,3.807 0.535,0.157 1.846,0.238 2.434,0.235 l -0.01,0.009 13.62,-0.085 c 0.586,-0.002 1.898,0.076 2.432,0.232 1.843,0.547 3.304,1.982 3.892,3.804 0.17,0.551 0.272,1.871 0.277,2.473 l 0.059,9.312 c 0.002,0.584 -0.079,1.898 -0.233,2.432 -0.546,1.843 -1.979,3.305 -3.808,3.892 -0.55,0.173 -1.866,0.275 -2.471,0.278 l -13.633,0.086 c -0.605,0 -1.921,0.101 -2.47,0.276 -1.831,0.585 -3.26,2.048 -3.81,3.891 -0.155,0.534 -0.232,1.845 -0.228,2.433 l 0.161,25.689 c 0.002,0.586 -0.078,1.899 -0.236,2.432 -0.545,1.843 -1.979,3.303 -3.803,3.891 -0.55,0.175 -1.871,0.275 -2.473,0.278 l -15.791,0.098 c -0.586,0.002 -1.898,-0.075 -2.432,-0.233 -1.844,-0.546 -3.303,-1.981 -3.888,-3.807 -0.177,-0.547 -0.278,-1.866 -0.279,-2.471 l -0.605,-97.808 z m -209.1103,-33.2012 c 0,-0.609 -0.092,-1.927 -0.262,-2.473 -0.575,-1.835 -2.027,-3.273 -3.867,-3.832 -0.533,-0.157 -1.846,-0.25 -2.43,-0.25 l -15.792,0 0.011,-0.009 c -0.081,0 -0.209,0.008 -0.319,0.009 -0.664,0.024 -1.682,0.113 -2.152,0.259 -1.836,0.569 -3.277,2.025 -3.832,3.861 -0.161,0.533 -0.247,1.849 -0.247,2.435 l 0,130.725 c 0,0.604 0.09,1.923 0.262,2.472 0.573,1.833 2.027,3.275 3.866,3.83 0.492,0.151 1.631,0.231 2.268,0.244 l 0.161,0 15.785,0 c 0.604,0 1.922,-0.093 2.472,-0.263 1.829,-0.574 3.27,-2.028 3.829,-3.866 0.162,-0.533 0.247,-1.847 0.247,-2.432 l 0,-130.71 z m 86.8594,22.4131 c 0,-0.604 -0.093,-1.923 -0.264,-2.475 -0.577,-1.831 -2.029,-3.274 -3.866,-3.83 -0.532,-0.157 -1.847,-0.244 -2.433,-0.244 l -17.621,0 c -11.43,0 -15.525,2.369 -15.525,9.269 0,6.041 4.095,9.707 10.786,9.707 l 4.739,0 17.635,0 c 0.602,0 1.923,-0.094 2.471,-0.264 1.834,-0.578 3.274,-2.029 3.831,-3.866 0.16,-0.533 0.247,-1.848 0.247,-2.435 l 0,-5.862 z m 26.52,51.452 c -1.51,4.959 -4.094,9.272 -7.114,12.935 -6.895,7.764 -15.525,11.217 -29.545,11.431 -3.018,0 -6.894,0.216 -11.857,0.216 l -32.929,0 c -0.585,0 -1.898,-0.086 -2.431,-0.25 -1.84,-0.556 -3.292,-1.998 -3.868,-3.828 -0.17,-0.548 -0.26,-1.871 -0.26,-2.476 l 0,-9.308 c 0,-0.584 0.085,-1.9 0.245,-2.432 0.561,-1.84 2.002,-3.292 3.832,-3.866 0.548,-0.17 1.868,-0.264 2.473,-0.264 l 32.938,0 c 14.345,0 20.309,-3.071 21.672,-12.254 -0.003,-0.619 -0.095,-1.888 -0.265,-2.428 -0.57,-1.833 -2.025,-3.274 -3.865,-3.83 -0.533,-0.162 -1.842,-0.248 -2.432,-0.248 l -19.239,0 c -16.604,0 -25.011,-1.727 -30.622,-5.818 -7.756,-5.608 -12.506,-15.961 -12.506,-26.961 0,-14.224 8.413,-26.302 20.277,-29.317 5.815,-1.511 10.134,-1.732 26.3,-1.732 l 45.002,0 c 0.59,0 1.901,0.089 2.435,0.247 1.839,0.555 3.29,1.999 3.865,3.831 0.171,0.549 0.262,1.868 0.262,2.473 l 0,52.533 c 0,11.432 -0.425,15.093 -2.368,21.346"
             id="path2898"
             style="fill:#120b11;fill-opacity:1;fill-rule:nonzero;stroke:none" /></g></g></g></g></svg>