<svg xmlns="http://www.w3.org/2000/svg" height="18.001" viewBox="302.458 113.678 61.669 18.001" width="61.669" version="1"><path d="M302.458 102.658a3.02 3.02 0 003.02 3.02h10.637a3.02 3.02 0 003.02-3.02v-11.96a3.02 3.02 0 00-3.02-3.02H305.48a3.02 3.02 0 00-3.022 3.02v11.96z" fill="#eb5831"/><path d="M315.288 93.308l-6.743-.007v2.26h5.244c.99 0 1.49.5 1.49 1.49v3.75c0 1-.5 1.5-1.5 1.5h-7.49l.75-2.24h5.99V97.8h-5.25c-1 0-1.5-.498-1.5-1.49v-5.26h8.99v2.25h.01zm15.63 8.95l-.706-1.896h-4.8l-.704 1.896h-2.703l4.313-11.195h2.988l4.313 11.195h-2.69zm-3.098 25.192l-1.745 4.817h3.49l-1.75-4.82zm6.848-25.192v-11.19h5.237c2.435 0 3.76 1.646 3.76 3.608 0 1.947-1.343 3.593-3.76 3.593h-2.854v3.99h-2.39zm6.562 26.422c0-.94-.723-1.51-1.662-1.51h-2.52v3.004h2.52c.94-.01 1.66-.58 1.66-1.5zm3.928-26.422v-11.19h5.236c2.434 0 3.76 1.646 3.76 3.608 0 1.947-1.343 3.593-3.76 3.593h-2.854v3.99h-2.39zm6.562 26.422c0-.94-.722-1.51-1.662-1.51h-2.518v3.004h2.518c.94-.01 1.66-.58 1.66-1.5zm3.158-27.992l1.31-1.862a4.92 4.92 0 003.558 1.527c1.326 0 1.948-.587 1.948-1.243 0-1.946-6.446-.587-6.446-4.8 0-1.863 1.612-3.407 4.247-3.407 1.778 0 3.256.537 4.363 1.562l-1.326 1.778c-.906-.838-2.114-1.225-3.255-1.225-1.008 0-1.58.437-1.58 1.108 0 1.762 6.43.57 6.43 4.75 0 2.047-1.477 3.59-4.48 3.59-2.17 0-3.71-.73-4.77-1.78z" fill="#fff"/><path fill="#a0a0a0" d="M375.248 99.748l-3.35-5.81h6.71z"/><path d="M302.458 128.658a3.02 3.02 0 003.02 3.02h10.636a3.02 3.02 0 003.02-3.02v-11.96a3.02 3.02 0 00-3.02-3.02h-10.636a3.02 3.02 0 00-3.02 3.02v11.96z" fill="#eb5831"/><path d="M315.288 119.308l-6.743-.007v2.26h5.244c.99 0 1.49.5 1.49 1.49v3.75c0 1-.5 1.5-1.5 1.5h-7.49l.75-2.24h5.99v-2.25h-5.25c-1 0-1.5-.49-1.5-1.49v-5.25h8.99v2.25h.01z" fill="#fff"/><path d="M330.918 128.258l-.706-1.896h-4.8l-.704 1.896h-2.703l4.313-11.195h2.988l4.313 11.195h-2.69zm-3.098 25.192l-1.745 4.817h3.49l-1.75-4.82zm6.848-25.192v-11.19h5.237c2.435 0 3.76 1.646 3.76 3.608 0 1.947-1.343 3.593-3.76 3.593h-2.854v3.99h-2.39zm6.562 26.422c0-.94-.723-1.51-1.662-1.51h-2.52v3.004h2.52c.94-.01 1.66-.58 1.66-1.5zm3.928-26.422v-11.19h5.236c2.434 0 3.76 1.646 3.76 3.608 0 1.947-1.343 3.593-3.76 3.593h-2.854v3.99h-2.39zm6.562 26.422c0-.94-.722-1.51-1.662-1.51h-2.518v3.004h2.518c.94-.01 1.66-.58 1.66-1.5zm3.158-27.992l1.31-1.862a4.924 4.924 0 003.558 1.527c1.326 0 1.948-.587 1.948-1.243 0-1.946-6.446-.587-6.446-4.8 0-1.862 1.612-3.407 4.247-3.407 1.778 0 3.256.537 4.363 1.562l-1.325 1.778c-.907-.838-2.115-1.225-3.256-1.225-1.008 0-1.578.437-1.578 1.108 0 1.762 6.42.57 6.42 4.75 0 2.047-1.48 3.59-4.48 3.59-2.17 0-3.72-.73-4.77-1.78z" fill="#222"/><path fill="#a0a0a0" d="M375.248 119.938l3.36 5.81h-6.72z"/><path d="M306.698 79.678h8.196v8h-8.196zm.92 26h8.197v8h-8.197zm-.41 26h7.172v7h-7.172z" fill="none"/></svg>