<svg xmlns="http://www.w3.org/2000/svg" xmlns:xlink="http://www.w3.org/1999/xlink" width="220" height="194"><defs><linearGradient id="a"><stop offset="0" stop-color="#c8c8c8" stop-opacity="0"/><stop offset=".367" stop-color="#c8c8c8" stop-opacity="0"/><stop offset=".934" stop-color="#c8c8c8" stop-opacity=".196"/><stop offset="1" stop-color="#c8c8c8" stop-opacity=".196"/></linearGradient><linearGradient id="b"><stop offset="0" stop-color="#c8c8c8" stop-opacity="0"/><stop offset=".367" stop-color="#c8c8c8" stop-opacity="0"/><stop offset=".934" stop-color="#c8c8c8" stop-opacity=".196"/><stop offset="1" stop-color="#c8c8c8" stop-opacity=".196"/></linearGradient><radialGradient xlink:href="#b" id="c" gradientUnits="userSpaceOnUse" gradientTransform="matrix(.555 0 0 .49 -50 196.017)" spreadMethod="pad" cx="198.1" cy="329.221" fx="198.1" fy="329.221" r="198.1"/></defs><path fill="#fff" d="M0 0h220v194H0z"/><path fill="url(#c)" d="M0 0h220v194H0z"/><g transform="matrix(.25 0 0 .25 7.5 26.005)"><rect width="128" height="24" x="50" y="230.221" rx="12" ry="12" fill="#46a546"/><rect ry="12" rx="12" y="262.221" x="50" height="24" width="112.64" fill="#f89406"/><rect width="122.88" height="24" x="50" y="294.221" rx="12" ry="12" fill="#c43c35"/><rect ry="12" rx="12" y="326.221" x="50" height="24" width="76.8" fill="#999"/></g><g style="line-height:89.99999762%" font-size="19.202" letter-spacing="0" word-spacing="0" font-family="FreeSans"><path style="line-height:89.99999762%;-inkscape-font-specification:FreeSans Bold" d="M58 113.56v-14h5.396c1.78 0 3.174.622 4.186 1.863 1.01 1.242 1.517 2.95 1.517 5.127 0 2.177-.52 3.892-1.54 5.147-1.01 1.24-2.4 1.862-4.17 1.862H58m1.786-1.58h3.302c1.383 0 2.433-.46 3.15-1.39.717-.92 1.075-2.27 1.075-4.03 0-1.78-.358-3.13-1.075-4.06-.717-.92-1.767-1.39-3.15-1.39h-3.302v10.85" font-weight="bold"/><path style="line-height:89.99999762%;-inkscape-font-specification:FreeSans" d="M73.048 103.497v10.062h-1.594v-10.07h1.594m0-3.94v2.01h-1.613v-2.01h1.613m10.9 0v14h-1.42v-1.33c-.436.62-.91 1.07-1.422 1.34-.5.28-1.094.42-1.786.42-1.357 0-2.426-.48-3.206-1.46-.78-.98-1.172-2.32-1.172-4.03 0-1.6.39-2.88 1.172-3.84.793-.97 1.843-1.46 3.15-1.46 1.38 0 2.412.52 3.09 1.56v-5.21h1.594m-4.416 5.15c-.87 0-1.575.35-2.113 1.07s-.81 1.66-.81 2.82c0 1.18.27 2.12.8 2.84.53.7 1.24 1.05 2.13 1.05.84 0 1.52-.35 2.03-1.06s.77-1.64.77-2.81c0-1.2-.26-2.16-.77-2.86-.51-.72-1.2-1.08-2.06-1.08m6.75-1.21h1.48v1.69c.44-.71.92-1.21 1.44-1.52.52-.31 1.16-.46 1.9-.46.97 0 1.74.25 2.32.75.58.5.87 1.16.87 1.99v7.61H92.7v-6.97c0-.61-.185-1.09-.556-1.44-.37-.36-.877-.54-1.517-.54-.82 0-1.48.31-1.98.94-.5.61-.75 1.43-.75 2.46v5.55h-1.61v-10.06m10.573-3.93h1.785v1.94c0 1.57-.596 2.41-1.786 2.51v-.73c.61-.1.92-.68.92-1.73h-.92v-1.99m7.88 3.93v1.3h-1.65v6.89c0 .36.05.6.17.73.13.11.36.17.71.17.32 0 .57-.03.77-.08v1.34c-.5.09-.94.13-1.31.13-.63 0-1.11-.14-1.44-.43-.34-.27-.5-.66-.5-1.17v-7.6h-1.37v-1.31h1.36v-2.77h1.59v2.76h1.65m16.07 3.15c.41.18.75.39 1.02.64.28.24.48.51.59.82.12.3.21.59.25.86.03.27.05.59.05.96 0 .11 0 .28-.02.5v.48c0 .52.06.96.17 1.32.11.36.34.65.67.88v.44h-2.17c-.26-.59-.39-1.35-.39-2.29V110c0-.86-.18-1.484-.55-1.88-.38-.41-.96-.615-1.75-.615h-4.61v6.03h-1.79v-14h6.45c1.37 0 2.42.325 3.15.98.74.64 1.11 1.56 1.11 2.763 0 .794-.18 1.453-.52 1.98-.35.524-.91.98-1.69 1.362m.34-3.09c0-.922-.24-1.556-.73-1.9-.48-.346-1.15-.52-2.01-.52h-4.32v4.82h4.32c.94 0 1.64-.19 2.07-.575.44-.384.67-.992.67-1.824m12.9 5.52h-7.41c.01.92.19 1.64.54 2.15.55.87 1.36 1.31 2.42 1.31 1.31 0 2.19-.67 2.63-2.01h1.62c-.2 1.1-.68 1.96-1.44 2.58-.75.61-1.71.92-2.86.92-1.41 0-2.52-.47-3.34-1.42-.82-.96-1.23-2.27-1.23-3.92s.42-2.97 1.25-3.95c.84-1 1.96-1.5 3.36-1.5.95 0 1.78.24 2.49.71.73.47 1.25 1.12 1.57 1.94.27.7.4 1.77.4 3.21m-7.38-1.31h5.64c.01-.02.02-.06.02-.11 0-.83-.27-1.53-.81-2.09-.54-.57-1.2-.86-1.98-.86-.81 0-1.47.28-2 .85-.52.55-.82 1.3-.88 2.23m9.27-1.28c.07-2.18 1.42-3.27 4.03-3.27 1.24 0 2.18.24 2.82.71.64.46.96 1.14.96 2.04v5.91c0 .53.29.79.86.79.12 0 .23-.01.35-.04v1.21c-.45.12-.81.17-1.09.17-.51 0-.9-.12-1.17-.36-.25-.23-.42-.6-.48-1.11-1.07.99-2.21 1.48-3.42 1.48-1.01 0-1.82-.27-2.42-.8-.59-.54-.88-1.26-.88-2.17 0-.29.02-.56.07-.81.06-.24.13-.45.19-.63.07-.19.2-.36.38-.52.18-.17.32-.3.44-.4.13-.1.33-.2.61-.28.29-.1.52-.17.67-.21.15-.05.42-.11.81-.17.38-.06.66-.11.84-.13l.96-.13c.63-.07 1.06-.2 1.31-.36.24-.17.37-.42.37-.75v-.42c0-.49-.2-.86-.6-1.11-.38-.26-.94-.38-1.65-.38-.74 0-1.31.14-1.69.44-.39.28-.61.73-.67 1.34h-1.61m3.21 6.12c.88 0 1.61-.23 2.17-.69.56-.48.84-.98.84-1.52v-1.81c-.32.15-.8.28-1.46.38l-1.67.27c-.47.08-.9.26-1.28.56-.38.28-.58.68-.58 1.19 0 .51.17.91.52 1.19.35.28.83.42 1.46.42m15.57-13.05v14h-1.42v-1.33c-.44.62-.91 1.07-1.42 1.34-.5.28-1.1.42-1.79.42-1.36 0-2.43-.48-3.21-1.46-.78-.98-1.17-2.32-1.17-4.03 0-1.6.39-2.88 1.17-3.84.8-.97 1.85-1.46 3.15-1.46 1.38 0 2.41.52 3.09 1.56v-5.2h1.6m-4.42 5.15c-.87 0-1.58.36-2.11 1.08-.54.72-.81 1.66-.81 2.82 0 1.18.27 2.13.81 2.84s1.25 1.06 2.13 1.06c.85 0 1.53-.35 2.04-1.05.51-.7.77-1.64.77-2.8 0-1.2-.26-2.16-.77-2.86-.51-.72-1.2-1.08-2.06-1.08"/></g><path style="line-height:89.99999762%;-inkscape-font-specification:FreeSans Bold" d="M65.124 85.96v11.6h-2.88v-11.6H58v-2.4h11.214v2.4h-4.09m9.08 1.057c.45 0 .884.052 1.307.154.43.11.86.29 1.29.56.45.27.83.62 1.15 1.04.34.41.6.96.81 1.65.21.68.31 1.46.31 2.35 0 .16 0 .31-.02.46H72.1c.012.4.044.75.095 1.04.063.28.165.57.306.85.16.27.37.48.66.64.3.14.66.21 1.1.21 1.03 0 1.71-.43 2.06-1.3h2.65a4.377 4.377 0 01-1.75 2.46c-.87.6-1.89.9-3.05.9-1.47 0-2.63-.47-3.47-1.42-.84-.96-1.26-2.27-1.26-3.93 0-1.74.43-3.11 1.29-4.11.86-1.01 2.03-1.51 3.52-1.51m2.06 4.42c-.06-.75-.27-1.33-.63-1.74-.34-.41-.83-.61-1.46-.61-1.18 0-1.85.79-2.03 2.36h4.13m4.51-4.24h2.69v2.04c.28-.71.68-1.25 1.19-1.63a2.726 2.726 0 012.02-.56v2.72c-.32-.05-.6-.08-.85-.08-1.58 0-2.36.79-2.36 2.36v5.51h-2.69V87.2m7.29 0h2.67v1.286c.45-.525.89-.896 1.31-1.114.44-.23.95-.346 1.54-.346 1.36 0 2.3.51 2.83 1.533.77-1.03 1.78-1.54 3.03-1.54 1.04 0 1.84.28 2.42.84.59.56.88 1.35.88 2.36v7.33h-2.69v-6.92c0-.41-.13-.74-.4-.98-.25-.25-.61-.37-1.05-.37-.58 0-1.03.18-1.36.54-.32.35-.48.85-.48 1.49v6.22h-2.7v-6.91c0-.41-.13-.74-.4-.98-.25-.25-.61-.37-1.05-.37-.58 0-1.03.18-1.36.54-.32.36-.48.86-.48 1.5v6.22H88.1V87.19m18.8 7.354c.09.436.27.768.54 1 .28.23.803.344 1.57.344.63 0 1.116-.09 1.46-.268.36-.18.54-.43.54-.75 0-.204-.07-.37-.215-.498-.13-.128-.36-.244-.69-.346l-3.21-1c-.014 0-.09-.018-.23-.056-.14-.05-.245-.09-.31-.115a2.677 2.677 0 00-.306-.116c-.15-.07-.28-.13-.37-.2-.07-.07-.18-.14-.3-.23-.13-.1-.23-.21-.31-.33-.07-.12-.14-.25-.21-.39-.08-.16-.14-.33-.18-.52-.04-.19-.06-.4-.06-.62 0-1.07.38-1.9 1.13-2.52.77-.63 1.81-.94 3.13-.94 1.4 0 2.49.31 3.28.94.79.61 1.2 1.47 1.23 2.57h-2.61c-.01-.93-.66-1.4-1.94-1.4-.47 0-.85.09-1.13.27-.28.16-.43.39-.43.69 0 .2.06.36.19.48.13.1.38.21.75.32l3.4.98c1.35.4 2.03 1.27 2.03 2.61 0 .4-.07.79-.21 1.17-.14.37-.37.74-.69 1.11-.31.37-.78.66-1.41.88-.63.23-1.37.34-2.23.34-3.19 0-4.82-1.15-4.9-3.46h2.63m18.62-7.5c1.62 0 2.88.49 3.78 1.48.9.97 1.36 2.33 1.36 4.09 0 1.66-.46 2.98-1.38 3.95-.93.97-2.17 1.46-3.75 1.46-1.6 0-2.85-.49-3.76-1.46-.91-.99-1.37-2.33-1.37-4.03 0-1.71.45-3.04 1.36-4.02.91-.99 2.15-1.48 3.74-1.48m.02 2.17c-.73 0-1.32.31-1.77.92-.45.62-.67 1.42-.67 2.4s.23 1.79.68 2.4c.45.62 1.03.92 1.76.92.72 0 1.3-.3 1.75-.9.46-.61.69-1.41.69-2.38 0-1.02-.22-1.84-.67-2.44-.44-.61-1.02-.92-1.77-.92m11.58-1.79v1.79h-1.59v8.38h-2.69v-8.37h-1.46V87.4h1.46v-1.247c0-1.728.88-2.592 2.65-2.592.52 0 1.03.02 1.53.06v2.02c-.23-.04-.49-.06-.77-.06-.48 0-.73.27-.73.81v1.01h1.6m17.39.43h-2.69c-.1-1.46-1.08-2.19-2.94-2.19-.74 0-1.33.16-1.77.48-.44.31-.65.73-.65 1.25 0 .51.18.9.55 1.15.37.25 1.07.47 2.09.68l2.19.43c1.29.26 2.23.69 2.82 1.31.59.6.88 1.46.88 2.56 0 1.42-.51 2.53-1.52 3.34-1.01.79-2.42 1.19-4.22 1.19-1.79 0-3.19-.4-4.18-1.19-.99-.8-1.53-1.94-1.62-3.44h2.8c.05.75.35 1.33.88 1.73.53.39 1.29.59 2.26.59.87 0 1.56-.16 2.06-.5.51-.33.77-.79.77-1.38 0-.56-.2-1-.6-1.31-.4-.31-1.08-.55-2.04-.73l-1.96-.38c-1.42-.27-2.43-.69-3.03-1.26-.6-.57-.9-1.4-.9-2.49 0-1.37.46-2.42 1.39-3.17.93-.75 2.24-1.13 3.92-1.13.49 0 .95.03 1.4.1.46.07.95.2 1.46.4.51.19.96.45 1.33.77.37.31.68.74.92 1.31.25.55.38 1.19.38 1.92m6.39-.81c.44 0 .88.06 1.3.16.42.11.85.29 1.29.56.44.27.83.62 1.15 1.04.33.41.6.96.8 1.65.21.68.31 1.46.31 2.35 0 .15-.01.3-.02.46h-6.95c.01.39.05.74.1 1.03.06.28.17.56.31.85.16.27.37.48.66.63.3.14.66.21 1.1.21 1.03 0 1.71-.43 2.06-1.3h2.65c-.3 1.03-.88 1.85-1.75 2.46-.87.6-1.89.9-3.05.9-1.47 0-2.63-.47-3.48-1.42-.85-.96-1.27-2.27-1.27-3.94 0-1.74.43-3.11 1.28-4.11.86-1.01 2.03-1.51 3.51-1.51m2.05 4.42c-.06-.75-.28-1.34-.63-1.75-.35-.41-.84-.61-1.46-.61-1.18 0-1.86.79-2.04 2.36h4.13m4.5-4.25h2.69v2.04c.28-.7.68-1.25 1.19-1.63.51-.38 1.07-.58 1.69-.58.11 0 .22.01.32.02v2.73c-.32-.05-.6-.07-.84-.07-1.57 0-2.36.79-2.36 2.37v5.51h-2.7V87.2m12.98 10.37h-2.82l-3.6-10.37h2.84l2.25 7.584 2.1-7.584h2.84l-3.57 10.37m7.45-10.37v10.37h-2.69V87.19h2.69m0-3.63v2.4h-2.69v-2.4h2.69m6.51 5.627c-1.46 0-2.19 1.133-2.19 3.4 0 1.01.2 1.804.58 2.38.4.576.94.864 1.61.864.52 0 .93-.14 1.23-.42.29-.29.52-.77.69-1.44h2.57c-.13 1.24-.61 2.23-1.42 2.96-.81.72-1.84 1.08-3.1 1.08-1.53 0-2.73-.47-3.59-1.42-.84-.95-1.27-2.28-1.27-3.99 0-1.76.43-3.13 1.29-4.11.86-.97 2.06-1.46 3.61-1.46 1.29 0 2.34.36 3.13 1.08.81.72 1.25 1.71 1.34 2.98h-2.57c-.16-.68-.38-1.16-.67-1.44-.28-.29-.7-.44-1.25-.44m10.38-2.17c.45 0 .89.06 1.31.16.42.11.85.29 1.29.56.44.27.83.62 1.15 1.04.33.41.6.96.8 1.65.2.68.31 1.46.31 2.35 0 .16-.01.31-.02.46h-6.95c.01.4.04.75.09 1.04.06.28.16.57.31.85.15.27.37.48.65.64.29.14.66.21 1.09.21 1.02 0 1.71-.43 2.05-1.3h2.65c-.3 1.03-.88 1.85-1.75 2.46-.87.6-1.89.91-3.05.91-1.47 0-2.63-.47-3.47-1.42-.85-.96-1.27-2.27-1.27-3.94 0-1.74.43-3.11 1.29-4.11.86-1.01 2.03-1.51 3.51-1.51m2.05 4.42c-.07-.75-.28-1.34-.64-1.75-.35-.41-.83-.61-1.46-.61-1.18 0-1.86.79-2.04 2.36h4.13" font-size="19.202" letter-spacing="0" word-spacing="0" font-family="FreeSans" font-weight="bold"/></svg>