<svg xmlns="http://www.w3.org/2000/svg" width="190" height="32"><defs><linearGradient id="a"><stop offset="0" stop-color="#c8c8c8" stop-opacity="0"/><stop offset=".367" stop-color="#c8c8c8" stop-opacity="0"/><stop offset=".934" stop-color="#c8c8c8" stop-opacity=".196"/><stop offset="1" stop-color="#c8c8c8" stop-opacity=".196"/></linearGradient></defs><g transform="translate(-50 -322.221)"><rect ry="3" rx="3" y="323.221" x="50" height="6" width="32" fill="#46a546"/><rect width="28.16" height="6" x="50" y="331.221" rx="3" ry="3" fill="#f89406"/><rect ry="3" rx="3" y="339.221" x="50" height="6" width="30.72" fill="#c43c35"/><rect width="19.2" height="6" x="50" y="347.221" rx="3" ry="3" fill="#999"/><g style="line-height:89.99999762%" font-size="19.202" letter-spacing="0" word-spacing="0" font-family="FreeSans"><path style="line-height:89.99999762%;-inkscape-font-specification:FreeSans Bold" d="M88 353.22v-14h5.396c1.78 0 3.175.622 4.186 1.864 1.01 1.242 1.517 2.95 1.517 5.127 0 2.18-.52 3.9-1.54 5.15-1.01 1.24-2.4 1.87-4.17 1.87H88m1.786-1.57h3.303c1.38 0 2.43-.46 3.14-1.38.71-.92 1.07-2.26 1.07-4.03 0-1.78-.36-3.13-1.08-4.05-.72-.92-1.77-1.38-3.15-1.38h-3.3v10.85" font-weight="bold"/><path style="line-height:89.99999762%;-inkscape-font-specification:FreeSans" d="M103.048 343.158v10.062h-1.594v-10.062h1.594m0-3.937v2.02h-1.613v-2.01h1.613m10.9 0v14h-1.42v-1.33c-.436.63-.91 1.08-1.422 1.35-.5.28-1.094.42-1.786.42-1.357 0-2.425-.48-3.206-1.46-.78-.98-1.172-2.33-1.172-4.03 0-1.6.39-2.88 1.172-3.84.793-.97 1.843-1.46 3.15-1.46 1.38 0 2.412.52 3.09 1.56v-5.2h1.594m-4.416 5.15c-.87 0-1.575.36-2.113 1.08-.54.72-.81 1.66-.81 2.82 0 1.18.27 2.13.8 2.84s1.25 1.06 2.13 1.06c.84 0 1.52-.35 2.03-1.05.51-.7.77-1.63.77-2.8 0-1.2-.26-2.15-.77-2.86s-1.2-1.07-2.06-1.07m6.75-1.21h1.48v1.69c.44-.7.92-1.21 1.44-1.52.52-.3 1.16-.46 1.9-.46.97 0 1.75.25 2.32.75.57.5.86 1.17.86 2v7.6h-1.59v-6.97c0-.6-.19-1.08-.56-1.44-.37-.36-.88-.54-1.52-.54-.82 0-1.48.31-1.98.94-.5.62-.75 1.44-.75 2.46v5.55h-1.62V343.2m10.57-3.94h1.79v1.94c0 1.573-.6 2.412-1.79 2.514v-.73c.61-.1.92-.68.92-1.73h-.92v-2m7.89 3.94v1.3h-1.65v6.897c0 .36.05.6.17.73.13.11.36.17.71.17.32 0 .57-.03.77-.08v1.35c-.5.09-.93.14-1.31.14-.63 0-1.11-.14-1.44-.42-.33-.27-.5-.66-.5-1.17v-7.6h-1.36v-1.31h1.36v-2.78h1.6v2.77h1.65m16.07 3.15c.41.18.75.39 1.02.63.28.25.48.52.6.83.13.31.21.6.25.87.04.27.06.59.06.96 0 .12-.01.28-.02.5v.48c0 .53.06.97.17 1.33.12.35.34.65.67.88v.44h-2.17c-.26-.59-.38-1.35-.38-2.29v-1.25c0-.85-.19-1.48-.56-1.88-.38-.41-.96-.61-1.75-.61h-4.61v6.03h-1.78v-14h6.45c1.37 0 2.42.32 3.15.98.74.64 1.11 1.56 1.11 2.76 0 .8-.18 1.46-.52 1.98-.35.53-.91.98-1.69 1.37m.34-3.09c0-.92-.25-1.55-.73-1.9-.49-.34-1.16-.52-2.02-.52h-4.32v4.82h4.32c.94 0 1.64-.19 2.07-.57.45-.39.67-1 .67-1.83m12.9 5.51h-7.41c.01.93.19 1.64.53 2.15.55.87 1.36 1.31 2.42 1.31 1.3 0 2.18-.67 2.63-2.01h1.61c-.2 1.1-.68 1.96-1.44 2.57-.75.61-1.71.92-2.86.92-1.41 0-2.52-.47-3.34-1.42-.82-.96-1.23-2.27-1.23-3.92s.42-2.97 1.25-3.95c.84-.99 1.96-1.49 3.36-1.49.95 0 1.78.24 2.5.71.73.47 1.25 1.12 1.57 1.94.27.7.4 1.77.4 3.21m-7.38-1.31h5.65c.02-.02.02-.06.02-.11 0-.83-.27-1.53-.8-2.09-.54-.57-1.2-.86-1.98-.86-.81 0-1.47.29-2 .85-.52.55-.82 1.29-.88 2.23m9.27-1.28c.08-2.18 1.42-3.26 4.03-3.26 1.24 0 2.19.23 2.83.71.64.46.96 1.14.96 2.03v5.91c0 .52.29.78.86.78.11 0 .23-.01.34-.03v1.21c-.45.12-.81.18-1.09.18-.51 0-.9-.12-1.17-.36-.25-.23-.41-.6-.48-1.11-1.07.99-2.21 1.48-3.41 1.48-1.02 0-1.82-.26-2.42-.8-.59-.54-.89-1.26-.89-2.17 0-.29.02-.56.08-.81.07-.24.13-.45.19-.63.08-.19.21-.36.39-.52l.44-.4c.13-.1.34-.2.62-.29.29-.1.52-.17.67-.21.16-.05.42-.11.81-.17.39-.06.67-.11.85-.13l.96-.14c.63-.08 1.06-.2 1.3-.37.24-.17.36-.42.36-.75v-.42c0-.49-.2-.86-.59-1.11-.39-.26-.94-.39-1.66-.39-.75 0-1.31.15-1.69.44-.39.28-.61.73-.67 1.34h-1.61m3.21 6.13c.88 0 1.61-.23 2.17-.69.56-.47.84-.98.84-1.52v-1.8c-.32.16-.81.28-1.46.39-.64.1-1.2.19-1.67.27-.47.08-.9.26-1.29.56-.38.28-.57.68-.57 1.19 0 .51.17.91.52 1.19.35.28.83.42 1.46.42m15.55-13.04v14h-1.42V352c-.44.63-.91 1.08-1.42 1.34-.5.28-1.1.42-1.79.42-1.35 0-2.42-.49-3.2-1.46-.78-.99-1.17-2.33-1.17-4.034 0-1.6.39-2.88 1.17-3.84.79-.974 1.84-1.46 3.15-1.46 1.38 0 2.41.518 3.09 1.55v-5.2h1.59m-4.42 5.15c-.87 0-1.58.36-2.11 1.07-.54.72-.81 1.66-.81 2.82 0 1.18.27 2.13.81 2.84s1.25 1.06 2.13 1.06c.84 0 1.52-.35 2.03-1.05.52-.7.77-1.64.77-2.8 0-1.2-.25-2.16-.76-2.86-.51-.72-1.19-1.08-2.05-1.08"/></g><path style="line-height:89.99999762%;-inkscape-font-specification:FreeSans Bold" d="M95.124 325.622v11.598h-2.88v-11.598H88v-2.4h11.214v2.4h-4.09m9.08 1.056c.45 0 .884.05 1.307.154.43.102.86.288 1.29.556.45.27.83.615 1.15 1.037.34.41.6.96.81 1.652.21.678.31 1.46.31 2.342 0 .15 0 .3-.02.46h-6.95c.02.39.05.74.1 1.03.07.28.17.56.31.84.16.27.37.48.66.63.3.14.66.21 1.1.21 1.03 0 1.71-.44 2.06-1.31h2.65c-.3 1.02-.88 1.84-1.75 2.46-.87.6-1.89.9-3.05.9-1.47 0-2.63-.48-3.47-1.42-.84-.96-1.26-2.28-1.26-3.94 0-1.74.43-3.11 1.29-4.11.86-1.01 2.03-1.52 3.52-1.52m2.05 4.41c-.06-.76-.27-1.34-.63-1.75-.35-.41-.83-.62-1.46-.62-1.18 0-1.86.79-2.04 2.36h4.13m4.51-4.24h2.69v2.03c.28-.7.68-1.25 1.19-1.63a2.789 2.789 0 012.02-.56v2.73c-.32-.05-.6-.08-.84-.08-1.57 0-2.36.79-2.36 2.36v5.51h-2.69V326.8m7.29 0h2.67v1.287c.45-.527.88-.898 1.31-1.115.44-.23.95-.35 1.54-.35 1.36 0 2.3.51 2.82 1.54.77-1.03 1.78-1.54 3.04-1.54 1.04 0 1.85.28 2.42.844.59.56.89 1.35.89 2.36v7.336h-2.69v-6.91c0-.41-.13-.74-.4-.98-.25-.244-.61-.365-1.05-.365-.58 0-1.03.18-1.36.54-.32.36-.48.86-.48 1.5v6.22h-2.69v-6.91c0-.41-.14-.74-.41-.98-.26-.244-.61-.37-1.06-.37-.57 0-1.03.18-1.36.54-.32.36-.48.86-.48 1.5v6.22h-2.69V326.8m18.8 7.357c.09.44.27.77.54 1 .28.23.81.35 1.58.35.63 0 1.12-.09 1.46-.27.36-.18.54-.43.54-.75 0-.21-.07-.37-.21-.5-.12-.13-.35-.246-.69-.35l-3.2-.994c-.01 0-.09-.02-.23-.055-.14-.05-.24-.09-.31-.12-.05-.02-.15-.06-.31-.11-.15-.064-.27-.13-.36-.19-.08-.067-.18-.14-.31-.23a1.49 1.49 0 01-.31-.33c-.06-.114-.13-.24-.21-.383-.08-.15-.13-.324-.17-.516-.04-.2-.05-.4-.05-.62 0-1.07.38-1.9 1.13-2.52.77-.63 1.81-.94 3.13-.94 1.39 0 2.49.31 3.28.94.79.61 1.2 1.47 1.23 2.57h-2.59c-.01-.94-.66-1.41-1.94-1.41-.47 0-.85.09-1.13.27-.28.17-.43.4-.43.69 0 .21.07.37.2.48.13.1.38.21.75.33l3.4.98c1.36.39 2.04 1.26 2.04 2.61 0 .4-.07.79-.21 1.17-.14.37-.37.74-.69 1.11-.3.37-.77.66-1.4.88-.62.23-1.37.34-2.22.34-3.19 0-4.82-1.15-4.9-3.46h2.63m18.61-7.52c1.63 0 2.89.49 3.78 1.47.91.97 1.36 2.33 1.36 4.09 0 1.66-.46 2.98-1.38 3.95-.92.97-2.17 1.46-3.75 1.46-1.6 0-2.85-.49-3.76-1.46-.91-.98-1.36-2.33-1.36-4.03 0-1.7.46-3.04 1.37-4.01.91-.99 2.16-1.48 3.74-1.48m.02 2.17c-.73 0-1.32.3-1.77.92-.45.61-.67 1.41-.67 2.4 0 .98.22 1.78.67 2.4.44.61 1.03.92 1.76.92.71 0 1.3-.3 1.75-.9.46-.62.69-1.41.69-2.38 0-1.02-.22-1.84-.67-2.44-.43-.61-1.02-.92-1.76-.92m11.5-1.77v1.78h-1.6v8.37h-2.69v-8.38h-1.46V327h1.46v-1.25c0-1.728.88-2.59 2.65-2.59.53 0 1.04.02 1.54.056v2.015c-.23-.03-.48-.05-.76-.05-.49 0-.73.27-.73.81v1.02h1.59m17.39.43h-2.69c-.11-1.46-1.09-2.19-2.94-2.19-.75 0-1.33.16-1.77.48-.43.31-.65.72-.65 1.25 0 .51.18.9.55 1.15.37.24 1.07.47 2.09.67l2.19.42c1.29.26 2.23.69 2.82 1.31.59.6.88 1.46.88 2.56 0 1.42-.51 2.54-1.52 3.34-1.01.8-2.42 1.19-4.23 1.19-1.8 0-3.19-.39-4.19-1.19-.99-.79-1.53-1.94-1.62-3.43h2.8c.05.75.34 1.33.88 1.73.54.4 1.29.6 2.26.6.87 0 1.55-.16 2.05-.5.51-.33.77-.79.77-1.38 0-.56-.2-1-.6-1.3-.4-.31-1.08-.55-2.04-.73l-1.96-.39c-1.43-.27-2.44-.69-3.04-1.26-.61-.58-.91-1.41-.91-2.5 0-1.37.46-2.42 1.39-3.17.93-.75 2.24-1.13 3.91-1.13.49 0 .96.03 1.4.1.46.07.95.2 1.46.4.51.19.96.45 1.33.77.37.31.67.75.92 1.31.25.55.38 1.19.38 1.92m6.39-.8c.45 0 .88.05 1.3.16.42.1.85.29 1.28.56.45.27.83.62 1.15 1.04.33.41.6.96.81 1.65.2.68.31 1.46.31 2.34 0 .15-.01.31-.02.46h-6.95c.01.4.04.74.09 1.04.07.28.17.56.31.85.15.27.37.48.65.64.3.14.66.21 1.1.21 1.02 0 1.71-.44 2.05-1.31h2.65a4.36 4.36 0 01-1.74 2.46c-.87.6-1.89.9-3.05.9-1.47 0-2.63-.47-3.48-1.42-.85-.96-1.27-2.27-1.27-3.93 0-1.74.43-3.11 1.28-4.11.86-1.01 2.03-1.52 3.52-1.52m2.05 4.42c-.06-.75-.27-1.34-.63-1.75-.35-.41-.83-.61-1.46-.61-1.18 0-1.86.79-2.04 2.36h4.13m4.51-4.24h2.69v2.04c.28-.7.68-1.25 1.19-1.63.52-.38 1.08-.57 1.69-.57.12 0 .23.01.33.02v2.73c-.32-.05-.6-.08-.84-.08-1.57 0-2.36.79-2.36 2.36v5.51h-2.7v-10.4m12.98 10.37h-2.82l-3.63-10.37h2.84l2.25 7.58 2.09-7.58h2.84l-3.57 10.37m7.46-10.37v10.37h-2.69v-10.4h2.69m0-3.62v2.4h-2.69v-2.4h2.69m6.51 5.63c-1.46 0-2.19 1.13-2.19 3.4 0 1.01.19 1.81.57 2.38.39.58.93.87 1.61.87.53 0 .93-.14 1.23-.42.29-.29.52-.77.69-1.44h2.57c-.13 1.24-.6 2.23-1.42 2.96-.81.72-1.84 1.07-3.09 1.07-1.54 0-2.73-.48-3.59-1.42-.85-.95-1.27-2.28-1.27-4 0-1.77.43-3.14 1.29-4.11.86-.97 2.06-1.46 3.61-1.46 1.29 0 2.34.36 3.13 1.07.81.71 1.26 1.71 1.35 2.97h-2.57c-.16-.68-.38-1.16-.67-1.44-.29-.3-.7-.44-1.25-.44m10.38-2.18c.45 0 .88.05 1.31.15.42.1.85.28 1.28.55.44.27.83.61 1.15 1.04.33.41.6.96.81 1.65.2.68.3 1.46.3 2.34 0 .15-.01.3-.02.46h-6.95c.01.39.04.74.09 1.03.07.28.17.56.31.84.15.27.37.48.65.63.29.14.66.21 1.09.21 1.02 0 1.71-.44 2.05-1.31h2.65c-.3 1.02-.88 1.84-1.75 2.46-.87.6-1.89.9-3.05.9-1.47 0-2.63-.48-3.48-1.42-.84-.96-1.27-2.28-1.27-3.94 0-1.74.43-3.11 1.29-4.11.86-1.01 2.03-1.52 3.52-1.52m2.05 4.42c-.06-.76-.27-1.34-.63-1.75-.34-.41-.83-.62-1.46-.62-1.17 0-1.85.78-2.03 2.36h4.13" font-size="19.202" letter-spacing="0" word-spacing="0" font-family="FreeSans" font-weight="bold"/></g></svg>