<svg xmlns="http://www.w3.org/2000/svg" width="760" height="128"><defs><linearGradient id="a"><stop offset="0" stop-color="#c8c8c8" stop-opacity="0"/><stop offset=".367" stop-color="#c8c8c8" stop-opacity="0"/><stop offset=".934" stop-color="#c8c8c8" stop-opacity=".196"/><stop offset="1" stop-color="#c8c8c8" stop-opacity=".196"/></linearGradient></defs><g transform="translate(-50 -226.221)"><rect ry="12" rx="12" y="230.221" x="50" height="24" width="128" fill="#46a546"/><rect width="112.64" height="24" x="50" y="262.221" rx="12" ry="12" fill="#f89406"/><rect ry="12" rx="12" y="294.221" x="50" height="24" width="122.88" fill="#c43c35"/><rect width="76.8" height="24" x="50" y="326.221" rx="12" ry="12" fill="#999"/><g style="line-height:89.99999762%" font-size="19.202" letter-spacing="0" word-spacing="0" font-family="FreeSans"><path style="line-height:89.99999762%;-inkscape-font-specification:FreeSans Bold" d="M202 350.215V294.22h21.583c7.118 0 12.7 2.485 16.745 7.452 4.045 4.967 6.067 11.803 6.067 20.507s-2.048 15.56-6.144 20.58c-4.04 4.96-9.6 7.45-16.66 7.45H202m7.143-6.3h13.21c5.532 0 9.73-1.85 12.598-5.53 2.87-3.69 4.31-9.07 4.31-16.13 0-7.12-1.43-12.52-4.3-16.21-2.87-3.69-7.06-5.53-12.6-5.53h-13.21v43.39" font-weight="bold"/><path style="line-height:89.99999762%;-inkscape-font-specification:FreeSans" d="M262.192 309.967v40.248h-6.375v-40.248h6.375m0-15.746v8.07h-6.452v-8.06h6.452m43.6 0v56h-5.683v-5.3c-1.75 2.51-3.64 4.3-5.69 5.38-2 1.13-4.38 1.69-7.15 1.69-5.43 0-9.71-1.94-12.83-5.83-3.13-3.94-4.69-9.32-4.69-16.13 0-6.4 1.56-11.52 4.68-15.36 3.17-3.89 7.37-5.83 12.59-5.83 5.53 0 9.65 2.08 12.37 6.22v-20.82h6.37m-17.66 20.58c-3.48 0-6.3 1.44-8.45 4.3-2.15 2.87-3.22 6.63-3.22 11.29 0 4.71 1.07 8.5 3.22 11.37 2.15 2.82 4.99 4.23 8.53 4.23 3.38 0 6.09-1.41 8.14-4.23 2.05-2.82 3.07-6.55 3.07-11.21 0-4.82-1.03-8.63-3.08-11.45-2.05-2.87-4.79-4.3-8.22-4.3m27.03-4.84h5.91v6.76c1.79-2.82 3.71-4.84 5.76-6.07 2.1-1.23 4.63-1.84 7.6-1.84 3.89 0 6.99.99 9.29 2.99 2.3 2 3.46 4.66 3.46 7.99v30.42h-6.37v-27.88c0-2.41-.75-4.33-2.23-5.76-1.49-1.43-3.51-2.15-6.07-2.15-3.28 0-5.92 1.25-7.92 3.76-2 2.46-3 5.74-3 9.83v22.2h-6.45v-40.25m42.3-15.75h7.14V302c0 6.3-2.38 9.65-7.14 10.06v-2.918c2.46-.41 3.68-2.72 3.68-6.92h-3.68v-7.99m31.54 15.75v5.223h-6.61v27.57c0 1.43.23 2.404.69 2.92.51.46 1.46.69 2.84.69 1.28 0 2.3-.105 3.07-.31v5.375c-2 .36-3.74.54-5.22.54-2.51 0-4.43-.56-5.76-1.69-1.33-1.07-2-2.63-2-4.68V315.2h-5.45v-5.22h5.5V298.9h6.37v11.06h6.6m64.26 12.596c1.64.717 2.99 1.56 4.07 2.535 1.13.98 1.92 2.08 2.38 3.31.51 1.23.84 2.39 1 3.46.15 1.08.23 2.36.23 3.84 0 .46-.03 1.13-.08 2v1.92c0 2.1.23 3.87.69 5.3.46 1.43 1.36 2.61 2.69 3.53v1.77h-8.68c-1.03-2.36-1.54-5.4-1.54-9.14v-4.99c0-3.43-.75-5.94-2.23-7.52-1.49-1.64-3.82-2.46-6.99-2.46h-18.44v24.12h-7.14v-56H445c5.48 0 9.68 1.31 12.6 3.92 2.97 2.56 4.45 6.25 4.45 11.06 0 3.18-.69 5.82-2.08 7.91-1.38 2.1-3.63 3.92-6.76 5.46m1.39-12.36c0-3.68-.97-6.22-2.92-7.6s-4.63-2.07-8.07-2.08h-17.28v19.27h17.28c3.79 0 6.55-.77 8.29-2.3 1.79-1.53 2.69-3.97 2.69-7.3m51.6 22.05h-29.6c.05 3.69.76 6.55 2.15 8.6 2.2 3.48 5.42 5.23 9.67 5.23 5.22 0 8.73-2.68 10.52-8.06h6.46c-.82 4.41-2.74 7.84-5.76 10.3-3.02 2.46-6.83 3.69-11.44 3.69-5.63 0-10.09-1.89-13.36-5.68-3.27-3.84-4.91-9.06-4.91-15.67 0-6.6 1.67-11.88 5-15.82 3.38-3.99 7.86-5.99 13.45-5.99 3.79 0 7.12.95 9.99 2.84 2.92 1.89 5.02 4.48 6.3 7.76 1.08 2.82 1.61 7.1 1.61 12.83m-29.49-5.22h22.58c.05-.1.08-.25.08-.46 0-3.33-1.08-6.12-3.23-8.37-2.15-2.3-4.78-3.45-7.91-3.45-3.22 0-5.89 1.13-7.99 3.38-2.1 2.2-3.27 5.17-3.53 8.91m37.09-5.15c.31-8.7 5.68-13.06 16.13-13.06 4.97 0 8.73.95 11.29 2.85 2.56 1.84 3.84 4.55 3.84 8.14v23.65c0 2.1 1.15 3.15 3.46 3.15.46 0 .92-.05 1.39-.15v4.84c-1.79.46-3.25.69-4.38.69-2.04 0-3.61-.48-4.68-1.46-1.02-.92-1.66-2.4-1.92-4.45-4.3 3.94-8.86 5.91-13.67 5.91-4.05 0-7.27-1.07-9.68-3.23-2.36-2.15-3.54-5.05-3.54-8.68 0-1.18.1-2.25.3-3.23.25-.97.51-1.82.77-2.53.3-.77.82-1.46 1.53-2.07.715-.66 1.304-1.2 1.765-1.61.51-.41 1.33-.79 2.46-1.15 1.18-.41 2.08-.69 2.69-.84.62-.21 1.69-.44 3.23-.69 1.54-.26 2.67-.44 3.38-.54.72-.1 2-.28 3.84-.54 2.51-.31 4.25-.8 5.23-1.46.97-.67 1.46-1.67 1.46-3v-1.69c0-1.95-.79-3.43-2.38-4.45-1.536-1.03-3.74-1.54-6.605-1.54-2.97 0-5.22.59-6.76 1.76-1.535 1.13-2.43 2.92-2.69 5.38h-6.45m12.83 24.5c3.53 0 6.424-.92 8.68-2.76 2.25-1.89 3.376-3.91 3.376-6.07v-7.22c-1.28.62-3.223 1.13-5.84 1.54-2.56.41-4.782.77-6.68 1.08-1.89.31-3.61 1.05-5.15 2.23-1.53 1.13-2.3 2.72-2.3 4.76s.69 3.64 2.078 4.77c1.38 1.13 3.33 1.69 5.83 1.69m62.21-52.15v55.99h-5.68v-5.3c-1.74 2.51-3.632 4.3-5.68 5.38-2 1.13-4.38 1.69-7.143 1.69-5.43 0-9.7-1.94-12.83-5.83-3.12-3.95-4.68-9.32-4.68-16.13 0-6.4 1.56-11.52 4.69-15.37 3.17-3.89 7.37-5.84 12.6-5.84 5.53 0 9.65 2.07 12.36 6.22V294.3h6.38m-17.69 20.57c-3.49 0-6.3 1.44-8.45 4.3-2.15 2.87-3.23 6.63-3.23 11.29 0 4.71 1.08 8.5 3.23 11.37 2.15 2.82 4.99 4.23 8.52 4.23 3.38 0 6.1-1.41 8.14-4.23 2.05-2.82 3.08-6.55 3.08-11.21 0-4.82-1.03-8.63-3.08-11.45-2.05-2.87-4.78-4.3-8.22-4.3"/></g><path style="line-height:89.99999762%;-inkscape-font-specification:FreeSans Bold" d="M230.495 239.824v46.39h-11.52v-46.39H202v-9.6h44.855v9.6h-16.36m36.325 4.224c1.792 0 3.533.205 5.223.614 1.69.41 3.405 1.153 5.146 2.228a16.181 16.181 0 014.6 4.147c1.33 1.64 2.4 3.84 3.22 6.606.82 2.714 1.23 5.837 1.23 9.37 0 .615-.03 1.23-.08 1.843h-27.8c.05 1.588.18 2.97.38 4.148.25 1.126.66 2.253 1.23 3.38.61 1.075 1.48 1.92 2.61 2.534 1.18.563 2.64.845 4.38.845 4.09 0 6.83-1.74 8.22-5.223h10.59c-1.17 4.096-3.5 7.373-6.99 9.83-3.48 2.408-7.56 3.61-12.22 3.61-5.89 0-10.52-1.893-13.9-5.683-3.38-3.84-5.07-9.088-5.07-15.745 0-6.964 1.72-12.442 5.15-16.436 3.43-4.045 8.11-6.068 14.05-6.068m8.22 17.665c-.26-3.02-1.1-5.35-2.54-6.99-1.39-1.637-3.33-2.457-5.84-2.457-4.71 0-7.42 3.15-8.14 9.447H275m18.03-16.973h10.75v8.14c1.125-2.815 2.713-4.992 4.76-6.528 2.048-1.536 4.3-2.304 6.76-2.304.46 0 .895.024 1.304.077v10.906c-1.28-.2-2.404-.3-3.38-.3-6.295 0-9.444 3.15-9.444 9.45v22.05h-10.75v-41.48m29.174 0h10.68v5.15c1.79-2.1 3.53-3.58 5.22-4.45 1.74-.92 3.79-1.38 6.14-1.38 5.43 0 9.19 2.05 11.29 6.15 3.07-4.09 7.12-6.14 12.13-6.14 4.15 0 7.37 1.13 9.68 3.38 2.35 2.25 3.53 5.4 3.53 9.45v29.34h-10.75V258.6c0-1.64-.54-2.948-1.616-3.92-1.02-.974-2.43-1.46-4.22-1.46-2.307 0-4.12.72-5.456 2.15-1.28 1.434-1.92 3.43-1.92 5.99v24.88H346.2v-27.65c0-1.64-.537-2.944-1.612-3.917-1.024-.973-2.433-1.46-4.225-1.46-2.308 0-4.126.718-5.457 2.15-1.28 1.435-1.92 3.43-1.92 5.99v24.886h-10.75v-41.47m75.2 29.41c.357 1.74 1.074 3.07 2.15 3.99 1.126.92 3.226 1.38 6.3 1.38 2.507 0 4.453-.36 5.835-1.08 1.44-.72 2.15-1.72 2.15-3 0-.82-.28-1.49-.84-2-.51-.51-1.43-.98-2.76-1.39l-12.82-4c-.05 0-.36-.08-.92-.23-.56-.2-.97-.36-1.23-.46-.2-.1-.61-.26-1.23-.46-.61-.26-1.1-.51-1.46-.77-.3-.26-.71-.56-1.23-.92-.51-.41-.92-.85-1.23-1.31l-.84-1.53c-.31-.62-.54-1.31-.7-2.08-.15-.77-.23-1.59-.23-2.46 0-4.25 1.51-7.61 4.53-10.07 3.07-2.51 7.25-3.76 12.52-3.76 5.58 0 9.96 1.25 13.14 3.76 3.18 2.46 4.82 5.89 4.92 10.29h-10.36c-.05-3.74-2.64-5.61-7.76-5.61-1.89 0-3.4.36-4.53 1.07-1.12.66-1.69 1.58-1.69 2.76 0 .82.26 1.46.77 1.92.52.41 1.51.84 3 1.3l13.6 3.92c5.43 1.58 8.14 5.07 8.14 10.44 0 1.58-.28 3.15-.84 4.68-.56 1.49-1.48 2.97-2.76 4.46-1.23 1.48-3.1 2.66-5.61 3.53-2.51.92-5.48 1.38-8.91 1.38-12.75 0-19.28-4.61-19.58-13.83h10.52M471.9 244c6.51 0 11.55 1.97 15.13 5.91 3.64 3.89 5.46 9.347 5.46 16.36 0 6.658-1.84 11.93-5.53 15.82-3.69 3.89-8.68 5.84-14.98 5.84-6.4 0-11.41-1.94-15.05-5.832-3.63-3.94-5.45-9.32-5.45-16.13 0-6.81 1.82-12.16 5.45-16.05 3.64-3.94 8.63-5.91 14.98-5.91m.08 8.68c-2.92 0-5.27 1.23-7.06 3.687s-2.69 5.657-2.69 9.6c0 3.94.9 7.14 2.69 9.6s4.15 3.687 7.07 3.687c2.87 0 5.2-1.208 6.99-3.61 1.85-2.46 2.77-5.637 2.77-9.53 0-4.1-.9-7.35-2.69-9.76-1.74-2.46-4.092-3.69-7.062-3.69m46.3-7.14v7.14h-6.38v33.49h-10.75V252.7h-5.84v-7.142h5.837v-4.99c0-6.91 3.536-10.37 10.6-10.37 2.1 0 4.15.08 6.15.23v8.066c-.925-.158-1.95-.23-3.075-.23-1.946 0-2.92 1.07-2.92 3.22v4.07h6.376m69.53 1.69h-10.76c-.41-5.836-4.32-8.75-11.75-8.75-2.97 0-5.32.64-7.062 1.92-1.74 1.23-2.61 2.89-2.61 4.99 0 2.05.74 3.58 2.23 4.61 1.48.97 4.27 1.863 8.37 2.68l8.75 1.69c5.17 1.024 8.93 2.765 11.29 5.22 2.35 2.41 3.53 5.81 3.53 10.22 0 5.68-2.02 10.136-6.07 13.36-4.042 3.17-9.68 4.76-16.9 4.76-7.17 0-12.75-1.59-16.74-4.76-3.94-3.18-6.09-7.76-6.45-13.75h11.22c.21 3.02 1.385 5.32 3.536 6.91 2.15 1.59 5.17 2.38 9.06 2.38 3.49 0 6.23-.664 8.22-1.996 2.05-1.33 3.076-3.174 3.076-5.53 0-2.253-.79-3.994-2.38-5.222-1.59-1.23-4.3-2.2-8.14-2.92l-7.83-1.533c-5.682-1.08-9.73-2.77-12.133-5.07-2.4-2.31-3.61-5.64-3.61-9.99 0-5.48 1.85-9.704 5.53-12.674 3.74-3.02 8.96-4.53 15.67-4.53 1.95 0 3.82.13 5.61.38 1.847.26 3.79.8 5.84 1.62 2.05.77 3.817 1.79 5.3 3.07 1.487 1.23 2.716 2.97 3.69 5.22 1.02 2.2 1.535 4.76 1.535 7.68m25.57-3.22c1.79 0 3.53.2 5.22.61s3.41 1.15 5.15 2.23c1.79 1.07 3.33 2.46 4.61 4.15 1.33 1.64 2.41 3.84 3.23 6.6.82 2.71 1.23 5.83 1.23 9.37 0 .61-.03 1.23-.08 1.84h-27.8c.05 1.58.18 2.97.38 4.14.254 1.12.664 2.25 1.23 3.38a6.517 6.517 0 002.61 2.53c1.18.56 2.64.84 4.38.84 4.093 0 6.832-1.74 8.22-5.23h10.6c-1.17 4.09-3.5 7.37-6.99 9.83-3.48 2.41-7.55 3.61-12.21 3.61-5.89 0-10.52-1.9-13.9-5.69-3.38-3.84-5.07-9.09-5.07-15.75 0-6.96 1.72-12.44 5.15-16.44 3.43-4.05 8.12-6.07 14.06-6.07m8.21 17.66c-.258-3.02-1.1-5.35-2.536-6.99-1.384-1.64-3.33-2.46-5.84-2.46-4.71 0-7.424 3.15-8.14 9.44h16.51m18.03-16.97h10.75v8.14c1.123-2.81 2.71-4.99 4.76-6.52s4.3-2.31 6.76-2.31c.46 0 .893.02 1.303.08V255c-1.28-.2-2.41-.3-3.38-.3-6.3 0-9.45 3.15-9.45 9.448v22.04h-10.8v-41.48m51.896 41.475h-11.29l-14.52-41.48h11.37l8.99 30.337 8.38-30.34h11.36l-14.3 41.49m29.82-41.477v41.475h-10.76v-41.47h10.76m0-14.516v9.6h-10.76v-9.6h10.76m26.03 22.51c-5.84 0-8.75 4.53-8.75 13.596 0 4.046.77 7.22 2.31 9.525 1.59 2.303 3.74 3.455 6.45 3.455 2.1 0 3.73-.564 4.91-1.69 1.18-1.178 2.1-3.1 2.76-5.76h10.29c-.51 4.966-2.41 8.91-5.69 11.827-3.23 2.87-7.35 4.3-12.37 4.3-6.15 0-10.93-1.89-14.36-5.68-3.38-3.79-5.07-9.115-5.07-15.976 0-7.07 1.71-12.55 5.14-16.44 3.43-3.89 8.24-5.84 14.44-5.84 5.17 0 9.34 1.43 12.52 4.3 3.22 2.87 5.01 6.83 5.37 11.9H755c-.614-2.72-1.51-4.64-2.687-5.76-1.13-1.18-2.79-1.77-4.996-1.77m41.524-8.68c1.8 0 3.54.2 5.23.61 1.69.41 3.41 1.15 5.15 2.23 1.79 1.07 3.33 2.45 4.61 4.14 1.34 1.64 2.41 3.84 3.23 6.6.82 2.71 1.23 5.84 1.23 9.37 0 .62-.02 1.23-.08 1.84h-27.8c.05 1.59.18 2.97.39 4.15.26 1.13.67 2.26 1.23 3.38.62 1.08 1.49 1.92 2.62 2.54 1.18.56 2.64.84 4.38.84 4.1 0 6.84-1.74 8.22-5.23h10.6c-1.18 4.1-3.5 7.37-6.99 9.83-3.48 2.41-7.55 3.61-12.21 3.61-5.89 0-10.52-1.89-13.9-5.68-3.38-3.84-5.07-9.09-5.07-15.75 0-6.97 1.72-12.44 5.15-16.44 3.43-4.05 8.12-6.07 14.06-6.07m8.22 17.66c-.26-3.02-1.1-5.35-2.54-6.99-1.38-1.64-3.33-2.46-5.84-2.46-4.71 0-7.42 3.15-8.14 9.44h16.51" font-size="19.202" letter-spacing="0" word-spacing="0" font-family="FreeSans" font-weight="bold"/></g></svg>