<svg xmlns="http://www.w3.org/2000/svg" xmlns:xlink="http://www.w3.org/1999/xlink" width="250.076" height="248.707" viewBox="0 0 66.166 65.804"><defs><linearGradient id="b"><stop offset="0" stop-color="#06c2e7"/><stop offset=".25" stop-color="#0db8ec"/><stop offset=".5" stop-color="#12aef1"/><stop offset=".75" stop-color="#1f86f9"/><stop offset="1" stop-color="#107ddd"/></linearGradient><linearGradient id="a"><stop offset="0" stop-color="#bdbdbd"/><stop offset="1" stop-color="#fff"/></linearGradient><linearGradient xlink:href="#a" id="d" x1="412.975" y1="237.608" x2="412.975" y2="59.392" gradientUnits="userSpaceOnUse" gradientTransform="matrix(.35154 0 0 .35154 206.79 159.773)"/><filter id="f" x="-.021" width="1.042" y="-.022" height="1.045" color-interpolation-filters="sRGB"><feGaussianBlur stdDeviation=".958"/></filter><filter id="c" x="-.048" width="1.096" y="-.048" height="1.096" color-interpolation-filters="sRGB"><feGaussianBlur stdDeviation="3.564"/></filter><radialGradient xlink:href="#b" id="e" cx="413.061" cy="136.818" fx="413.061" fy="136.818" r="82.125" gradientUnits="userSpaceOnUse" gradientTransform="matrix(.38143 0 0 .38143 194.545 155.58)"/></defs><path transform="matrix(.33865 0 0 .3261 -106.77 -14.478)" d="M502.083 148.5a89.108 89.108 0 01-89.108 89.108 89.108 89.108 0 01-89.108-89.108 89.108 89.108 0 0189.108-89.108 89.108 89.108 0 0189.108 89.108z" opacity=".53" stroke-width="2.931" stroke-linecap="round" stroke-linejoin="round" paint-order="markers stroke fill" filter="url(#c)"/><path d="M383.294 211.977a31.325 31.325 0 01-31.325 31.325 31.325 31.325 0 01-31.326-31.325 31.325 31.325 0 0131.326-31.325 31.325 31.325 0 0131.325 31.325z" fill="url(#d)" stroke="#cdcdcd" stroke-width=".093" stroke-linecap="round" stroke-linejoin="round" paint-order="markers stroke fill" transform="translate(-318.886 -180.595)"/><path d="M380.84 211.977a28.87 28.87 0 01-28.871 28.87 28.87 28.87 0 01-28.871-28.87 28.87 28.87 0 0128.87-28.87 28.87 28.87 0 0128.871 28.87z" fill="url(#e)" stroke-width=".95" stroke-linecap="round" stroke-linejoin="round" paint-order="markers stroke fill" transform="translate(-318.886 -180.595)"/><path d="M33.083 4.017a.42.42 0 00-.421.42v4.856a.42.42 0 10.842 0V4.438a.42.42 0 00-.421-.421zm-2.754.174a.42.42 0 00-.46.463l.212 2.03a.42.42 0 10.837-.087l-.212-2.03a.42.42 0 00-.377-.376zm5.527.002a.42.42 0 00-.377.375l-.214 2.03a.42.42 0 10.837.089l.214-2.031a.42.42 0 00-.46-.463zM27.5 4.6a.42.42 0 00-.41.508l1.005 4.75a.42.42 0 10.824-.174l-1.005-4.75A.42.42 0 0027.5 4.6zm11.183.004a.42.42 0 00-.414.333l-1.009 4.75a.42.42 0 10.824.175l1.009-4.75a.42.42 0 00-.41-.508zm-13.883.757a.42.42 0 00-.437.55l.632 1.942a.42.42 0 10.8-.26l-.63-1.942a.42.42 0 00-.365-.29zm16.568.001a.42.42 0 00-.364.29l-.632 1.942a.42.42 0 10.8.26l.632-1.942a.42.42 0 00-.436-.55zM22.13 6.34a.42.42 0 00-.377.592l1.972 4.437a.42.42 0 10.77-.342l-1.972-4.437a.42.42 0 00-.393-.25zm21.937.015a.42.42 0 00-.392.25l-1.978 4.434a.42.42 0 10.769.343l1.978-4.434a.42.42 0 00-.377-.593zM19.654 7.65a.42.42 0 00-.394.63l1.02 1.77a.42.42 0 10.73-.421L19.989 7.86a.42.42 0 00-.335-.21zm26.858 0a.419.419 0 00-.335.21l-1.021 1.769a.42.42 0 10.73.42l1.02-1.768a.42.42 0 00-.394-.63zm-29.265 1.5a.422.422 0 00-.326.669l2.85 3.93a.42.42 0 10.682-.494l-2.85-3.93a.42.42 0 00-.356-.174zm31.702.022a.42.42 0 00-.356.174l-2.856 3.926a.42.42 0 10.681.495l2.856-3.926a.42.42 0 00-.325-.669zm-33.852 1.783a.42.42 0 00-.335.702l1.366 1.518a.42.42 0 10.626-.563l-1.367-1.518a.42.42 0 00-.29-.14zm35.975.003a.421.421 0 00-.29.139l-1.367 1.517a.42.42 0 10.625.564l1.367-1.518a.42.42 0 00-.335-.702zm-38.037 1.977a.42.42 0 00-.26.733l3.61 3.248a.42.42 0 10.563-.625l-3.609-3.248a.42.42 0 00-.304-.108zm40.109.014a.419.419 0 00-.304.108l-3.61 3.245a.42.42 0 10.562.626l3.61-3.245a.42.42 0 00-.258-.734zm-41.823 2.19a.42.42 0 00-.262.762l1.652 1.2a.42.42 0 10.495-.681l-1.652-1.2a.42.42 0 00-.233-.081zm43.535.015a.421.421 0 00-.233.08l-1.653 1.2a.42.42 0 10.495.681l1.653-1.2a.42.42 0 00-.262-.76zM9.72 17.49a.42.42 0 00-.18.785l4.204 2.427a.42.42 0 10.42-.729L9.96 17.546a.42.42 0 00-.24-.056zm46.728 0a.417.417 0 00-.24.056l-4.205 2.427a.42.42 0 10.42.73l4.206-2.428a.42.42 0 00-.181-.785zM8.508 19.996a.42.42 0 00-.18.806l1.866.831a.42.42 0 10.343-.768l-1.866-.832a.42.42 0 00-.163-.037zm49.158.017a.42.42 0 00-.164.037l-1.865.83a.42.42 0 10.342.77l1.866-.831a.42.42 0 00-.179-.806zM7.429 22.615a.42.42 0 00-.094.82l4.615 1.504a.42.42 0 10.261-.8l-4.616-1.504a.421.421 0 00-.166-.02zm51.314.018a.408.408 0 00-.166.02l-4.617 1.5a.42.42 0 10.26.801l4.617-1.5a.42.42 0 00-.094-.82zM6.756 25.365a.42.42 0 00-.09.833l1.998.424a.42.42 0 10.175-.823l-1.998-.425a.413.413 0 00-.085-.009zm52.655.004a.518.518 0 00-.085.009l-1.998.424a.42.42 0 10.175.823l1.998-.424a.42.42 0 00-.09-.833zM6.247 28.13a.42.42 0 00-.003.838l4.828.51a.42.42 0 10.089-.837l-4.829-.51a.432.432 0 00-.085 0zm53.676.037a.386.386 0 00-.085 0l-4.83.504a.42.42 0 10.088.837l4.83-.504a.42.42 0 00-.003-.837zM6.165 30.96a.42.42 0 100 .842h2.043a.42.42 0 100-.842zm51.793 0a.42.42 0 100 .842h2.043a.42.42 0 100-.842zm-46.803 2.295a.384.384 0 00-.085 0l-4.83.504a.42.42 0 10.088.838l4.83-.504a.42.42 0 00-.003-.838zm43.853.03a.42.42 0 00-.003.838l4.828.51a.42.42 0 10.089-.837l-4.828-.51a.434.434 0 00-.086-.001zm-46.26 2.843a.43.43 0 00-.085.01l-1.998.424a.42.42 0 10.175.823l1.998-.424a.42.42 0 00-.09-.833zm48.67.005a.42.42 0 00-.09.833l1.997.424a.42.42 0 10.175-.824l-1.998-.424a.413.413 0 00-.085-.01zM12.111 37.79a.408.408 0 00-.166.02l-4.617 1.5a.42.42 0 10.26.801l4.617-1.5a.42.42 0 00-.094-.82zm41.937.015a.42.42 0 00-.094.82l4.616 1.504a.42.42 0 10.26-.8l-4.615-1.504a.421.421 0 00-.167-.02zM10.35 41.08a.42.42 0 00-.163.036l-1.866.831a.42.42 0 10.342.769l1.866-.83a.42.42 0 00-.179-.806zm45.459.016a.42.42 0 00-.18.805l1.865.832a.42.42 0 10.343-.769l-1.865-.832a.42.42 0 00-.163-.036zm-41.826.912a.417.417 0 00-.24.056L9.538 44.49a.42.42 0 10.421.73l4.205-2.428a.42.42 0 00-.181-.785zm38.2 0a.42.42 0 00-.181.785l4.205 2.427a.42.42 0 10.42-.729l-4.204-2.427a.42.42 0 00-.24-.056zm-39.249 3.562a.421.421 0 00-.233.08l-1.653 1.2a.42.42 0 10.495.682l1.653-1.2a.42.42 0 00-.262-.762zm40.288.015a.42.42 0 00-.262.762l1.652 1.2a.42.42 0 10.495-.681l-1.652-1.2a.42.42 0 00-.233-.081zm-36.544.145a.418.418 0 00-.304.108l-3.61 3.245a.42.42 0 10.562.626l3.61-3.245a.42.42 0 00-.258-.734zm32.8.011a.421.421 0 00-.26.734l3.609 3.248a.42.42 0 10.563-.625l-3.608-3.249a.42.42 0 00-.304-.107zm-29.375 3.084a.42.42 0 00-.355.173l-2.856 3.927a.42.42 0 10.68.495l2.857-3.926a.42.42 0 00-.326-.669zm25.936.018a.421.421 0 00-.326.668l2.85 3.93a.42.42 0 10.682-.494l-2.851-3.93a.42.42 0 00-.355-.174zm-29.623.606a.421.421 0 00-.29.14l-1.367 1.517a.42.42 0 10.625.563l1.367-1.517a.42.42 0 00-.335-.703zm33.331.002a.42.42 0 00-.335.702l1.366 1.518a.42.42 0 10.626-.563l-1.366-1.518a.42.42 0 00-.291-.139zm-25.655 1.684a.419.419 0 00-.393.25l-1.978 4.433a.42.42 0 10.77.343l1.977-4.434a.42.42 0 00-.376-.592zm17.955.012a.42.42 0 00-.377.592l1.972 4.437a.42.42 0 10.77-.342l-1.972-4.437a.42.42 0 00-.393-.25zm-21.431 1.359a.419.419 0 00-.335.21l-1.021 1.768a.42.42 0 10.729.421l1.02-1.769a.42.42 0 00-.393-.63zm24.934 0a.42.42 0 00-.394.63l1.021 1.77a.42.42 0 10.73-.422l-1.022-1.769a.42.42 0 00-.335-.21zm-17.054.063a.42.42 0 00-.415.334l-1.009 4.749a.42.42 0 10.824.175l1.009-4.75a.42.42 0 00-.41-.508zm9.16.003a.42.42 0 00-.41.508l1.006 4.75a.42.42 0 10.823-.175l-1.006-4.75a.42.42 0 00-.414-.333zm-4.573.48a.42.42 0 00-.421.42v4.855a.42.42 0 10.842 0v-4.855a.42.42 0 00-.421-.42zm-7.727 1.568a.42.42 0 00-.364.29l-.631 1.942a.42.42 0 10.8.26l.632-1.942a.42.42 0 00-.437-.55zm15.45 0a.42.42 0 00-.437.55l.632 1.943a.42.42 0 10.8-.26l-.63-1.942a.42.42 0 00-.365-.29zm-10.365 1.083a.42.42 0 00-.378.375l-.213 2.03a.42.42 0 10.837.088l.214-2.03a.42.42 0 00-.46-.463zm5.267.002a.42.42 0 00-.46.463l.212 2.03a.42.42 0 10.837-.088l-.212-2.03a.42.42 0 00-.377-.375z" fill="#f4f2f3" stroke-width=".381" stroke-linecap="round" stroke-linejoin="round" paint-order="markers stroke fill"/><path transform="matrix(.35154 0 0 .35154 -112.095 -20.822)" d="M469.096 100.607l-65.51 38.061-41.42 65.207 60.595-44.882z" opacity=".409" stroke-width="1.561" stroke-linecap="round" stroke-linejoin="round" paint-order="markers stroke fill" filter="url(#f)"/><path d="M36.383 34.838l-6.6-6.913 23.416-15.752z" fill="#ff5150" stroke-width="1.02" stroke-linecap="round" stroke-linejoin="round" paint-order="markers stroke fill"/><path d="M36.383 34.838l-6.6-6.913L12.966 50.59z" fill="#f1f1f1" stroke-width="1.02" stroke-linecap="round" stroke-linejoin="round" paint-order="markers stroke fill"/><path d="M12.967 50.59l23.416-15.752L53.2 12.173z" opacity=".243" stroke-width=".093"/></svg>