<?xml version="1.0" encoding="UTF-8" standalone="no"?>
<svg
   xmlns:dc="http://purl.org/dc/elements/1.1/"
   xmlns:cc="http://creativecommons.org/ns#"
   xmlns:rdf="http://www.w3.org/1999/02/22-rdf-syntax-ns#"
   xmlns:svg="http://www.w3.org/2000/svg"
   xmlns="http://www.w3.org/2000/svg"
   xmlns:xlink="http://www.w3.org/1999/xlink"
   xmlns:sodipodi="http://sodipodi.sourceforge.net/DTD/sodipodi-0.dtd"
   xmlns:inkscape="http://www.inkscape.org/namespaces/inkscape"
   width="700"
   height="700"
   version="1.1"
   id="svg47"
   sodipodi:docname="tosdr-logo-vertical.svg"
   inkscape:version="0.92.2 (unknown)"
   inkscape:export-filename="tosdr-logo-vertical-png.png"
   inkscape:export-xdpi="137.14"
   inkscape:export-ydpi="137.14">
  <metadata
     id="metadata51">
    <rdf:RDF>
      <cc:Work
         rdf:about="">
        <dc:format>image/svg+xml</dc:format>
        <dc:type
           rdf:resource="http://purl.org/dc/dcmitype/StillImage" />
        <dc:title></dc:title>
      </cc:Work>
    </rdf:RDF>
  </metadata>
  <sodipodi:namedview
     pagecolor="#ffffff"
     bordercolor="#666666"
     borderopacity="1"
     objecttolerance="10"
     gridtolerance="10"
     guidetolerance="10"
     inkscape:pageopacity="0"
     inkscape:pageshadow="2"
     inkscape:window-width="1920"
     inkscape:window-height="1046"
     id="namedview49"
     showgrid="false"
     inkscape:zoom="0.54791667"
     inkscape:cx="283.94398"
     inkscape:cy="91.84"
     inkscape:window-x="0"
     inkscape:window-y="34"
     inkscape:window-maximized="1"
     inkscape:current-layer="svg47"
     fit-margin-top="10"
     fit-margin-left="10"
     fit-margin-right="10"
     fit-margin-bottom="10" />
  <defs
     id="defs23">
    <radialGradient
       xlink:href="#a"
       cx="198.10001"
       cy="329.22101"
       fx="198.10001"
       fy="329.22101"
       r="198.10001"
       gradientTransform="matrix(1,0,0,0.379,0,204.579)"
       gradientUnits="userSpaceOnUse"
       spreadMethod="pad"
       id="radialGradient2" />
    <linearGradient
       id="a">
      <stop
         offset="0"
         stop-color="#c8c8c8"
         stop-opacity="0"
         id="stop4" />
      <stop
         offset=".367"
         stop-color="#c8c8c8"
         stop-opacity="0"
         id="stop6" />
      <stop
         offset=".934"
         stop-color="#c8c8c8"
         stop-opacity=".196"
         id="stop8" />
      <stop
         offset="1"
         stop-color="#c8c8c8"
         stop-opacity=".196"
         id="stop10" />
    </linearGradient>
    <linearGradient
       id="b">
      <stop
         offset="0"
         stop-color="#c8c8c8"
         stop-opacity="0"
         id="stop13" />
      <stop
         offset=".367"
         stop-color="#c8c8c8"
         stop-opacity="0"
         id="stop15" />
      <stop
         offset=".934"
         stop-color="#c8c8c8"
         stop-opacity=".196"
         id="stop17" />
      <stop
         offset="1"
         stop-color="#c8c8c8"
         stop-opacity=".196"
         id="stop19" />
    </linearGradient>
    <radialGradient
       xlink:href="#b"
       id="c"
       gradientUnits="userSpaceOnUse"
       gradientTransform="matrix(2.423,0,0,0.828,0,-108.55)"
       spreadMethod="pad"
       cx="198.10001"
       cy="329.22101"
       fx="198.10001"
       fy="329.22101"
       r="198.10001" />
  </defs>
  <g
     id="g978"
     transform="translate(36.8545,-189.08001)">
    <g
       transform="translate(149.1455,284.16001)"
       id="g874">
      <rect
         style="fill:#46a546"
         id="rect29"
         width="128"
         height="24"
         x="100"
         y="103.99999"
         rx="12"
         ry="12" />
      <rect
         style="fill:#f89406"
         id="rect31"
         ry="12"
         rx="12"
         y="136.00002"
         x="100"
         height="24"
         width="112.64" />
      <rect
         style="fill:#c43c35"
         id="rect33"
         width="122.88"
         height="24"
         x="100"
         y="168.00002"
         rx="12"
         ry="12" />
      <rect
         style="fill:#999999"
         id="rect35"
         ry="12"
         rx="12"
         y="200.00002"
         x="100"
         height="24"
         width="76.800003" />
    </g>
    <g
       transform="translate(-132.32,464.16001)"
       id="g878">
      <path
         style="font-weight:bold;font-size:medium;line-height:89.99999762%;font-family:FreeSans;-inkscape-font-specification:'FreeSans Bold';letter-spacing:0;word-spacing:0"
         d="m 252,223.994 v -55.995 h 21.583 c 7.118,0 12.7,2.485 16.745,7.452 4.045,4.967 6.067,11.803 6.067,20.507 0,8.704 -2.048,15.56 -6.144,20.58 -4.04,4.96 -9.6,7.45 -16.66,7.45 H 252 m 7.143,-6.3 h 13.21 c 5.532,0 9.73,-1.85 12.598,-5.53 2.87,-3.69 4.31,-9.07 4.31,-16.13 0,-7.12 -1.43,-12.52 -4.3,-16.21 -2.87,-3.69 -7.06,-5.53 -12.6,-5.53 h -13.21 v 43.39"
         font-weight="bold"
         id="path37"
         inkscape:connector-curvature="0" />
      <path
         style="font-size:medium;line-height:89.99999762%;font-family:FreeSans;-inkscape-font-specification:FreeSans;letter-spacing:0;word-spacing:0"
         d="m 312.192,183.746 v 40.248 h -6.375 v -40.248 h 6.375 m 0,-15.746 v 8.07 h -6.452 v -8.06 h 6.452 m 43.6,0 v 56 h -5.683 v -5.3 c -1.75,2.51 -3.64,4.3 -5.69,5.38 -2,1.13 -4.38,1.69 -7.15,1.69 -5.43,0 -9.71,-1.94 -12.83,-5.83 -3.13,-3.94 -4.69,-9.32 -4.69,-16.13 0,-6.4 1.56,-11.52 4.68,-15.36 3.17,-3.89 7.37,-5.83 12.59,-5.83 5.53,0 9.65,2.08 12.37,6.22 v -20.82 h 6.37 m -17.66,20.58 c -3.48,0 -6.3,1.44 -8.45,4.3 -2.15,2.87 -3.22,6.63 -3.22,11.29 0,4.71 1.07,8.5 3.22,11.37 2.15,2.82 4.99,4.23 8.53,4.23 3.38,0 6.09,-1.41 8.14,-4.23 2.05,-2.82 3.07,-6.55 3.07,-11.21 0,-4.82 -1.03,-8.63 -3.08,-11.45 -2.05,-2.87 -4.79,-4.3 -8.22,-4.3 m 27.03,-4.84 h 5.91 v 6.76 c 1.79,-2.82 3.71,-4.84 5.76,-6.07 2.1,-1.23 4.63,-1.84 7.6,-1.84 3.89,0 6.99,0.99 9.29,2.99 2.3,2 3.46,4.66 3.46,7.99 v 30.42 h -6.37 v -27.88 c 0,-2.41 -0.75,-4.33 -2.23,-5.76 -1.49,-1.43 -3.51,-2.15 -6.07,-2.15 -3.28,0 -5.92,1.25 -7.92,3.76 -2,2.46 -3,5.74 -3,9.83 v 22.2 h -6.45 v -40.25 m 42.3,-15.75 h 7.14 v 7.759 c 0,6.3 -2.38,9.65 -7.14,10.06 v -2.918 c 2.46,-0.41 3.68,-2.72 3.68,-6.92 h -3.68 v -7.99 m 31.54,15.75 v 5.223 h -6.61 v 27.57 c 0,1.43 0.23,2.404 0.69,2.92 0.51,0.46 1.46,0.69 2.84,0.69 1.28,0 2.3,-0.105 3.07,-0.31 v 5.375 c -2,0.36 -3.74,0.54 -5.22,0.54 -2.51,0 -4.43,-0.56 -5.76,-1.69 -1.33,-1.07 -2,-2.63 -2,-4.68 v -30.42 h -5.45 v -5.22 h 5.5 v -11.08 h 6.37 v 11.06 h 6.6 m 64.26,12.596 c 1.64,0.717 2.99,1.56 4.07,2.535 1.13,0.98 1.92,2.08 2.38,3.31 0.51,1.23 0.84,2.39 1,3.46 0.15,1.08 0.23,2.36 0.23,3.84 0,0.46 -0.03,1.13 -0.08,2 v 1.92 c 0,2.1 0.23,3.87 0.69,5.3 0.46,1.43 1.36,2.61 2.69,3.53 V 224 h -8.68 c -1.03,-2.36 -1.54,-5.4 -1.54,-9.14 v -4.99 c 0,-3.43 -0.75,-5.94 -2.23,-7.52 -1.49,-1.64 -3.82,-2.46 -6.99,-2.46 h -18.44 v 24.12 h -7.14 v -56 H 495 c 5.48,0 9.68,1.31 12.6,3.92 2.97,2.56 4.45,6.25 4.45,11.06 0,3.18 -0.69,5.82 -2.08,7.91 -1.38,2.1 -3.63,3.92 -6.76,5.46 M 504.6,184 c 0,-3.68 -0.97,-6.22 -2.92,-7.6 -1.95,-1.38 -4.63,-2.07 -8.07,-2.08 h -17.28 v 19.27 h 17.28 c 3.79,0 6.55,-0.77 8.29,-2.3 1.79,-1.53 2.69,-3.97 2.69,-7.3 m 51.6,22.05 h -29.6 c 0.05,3.69 0.76,6.55 2.15,8.6 2.2,3.48 5.42,5.23 9.67,5.23 5.22,0 8.73,-2.68 10.52,-8.06 h 6.46 c -0.82,4.41 -2.74,7.84 -5.76,10.3 -3.02,2.46 -6.83,3.69 -11.44,3.69 -5.63,0 -10.09,-1.89 -13.36,-5.68 -3.27,-3.84 -4.91,-9.06 -4.91,-15.67 0,-6.6 1.67,-11.88 5,-15.82 3.38,-3.99 7.86,-5.99 13.45,-5.99 3.79,0 7.12,0.95 9.99,2.84 2.92,1.89 5.02,4.48 6.3,7.76 1.08,2.82 1.61,7.1 1.61,12.83 m -29.49,-5.22 h 22.58 c 0.05,-0.1 0.08,-0.25 0.08,-0.46 0,-3.33 -1.08,-6.12 -3.23,-8.37 -2.15,-2.3 -4.78,-3.45 -7.91,-3.45 -3.22,0 -5.89,1.13 -7.99,3.38 -2.1,2.2 -3.27,5.17 -3.53,8.91 m 37.09,-5.15 c 0.31,-8.7 5.68,-13.06 16.13,-13.06 4.97,0 8.73,0.95 11.29,2.85 2.56,1.84 3.84,4.55 3.84,8.14 v 23.65 c 0,2.1 1.15,3.15 3.46,3.15 0.46,0 0.92,-0.05 1.39,-0.15 v 4.84 c -1.79,0.46 -3.25,0.69 -4.38,0.69 -2.04,0 -3.61,-0.48 -4.68,-1.46 -1.02,-0.92 -1.66,-2.4 -1.92,-4.45 -4.3,3.94 -8.86,5.91 -13.67,5.91 -4.05,0 -7.27,-1.07 -9.68,-3.23 -2.36,-2.15 -3.54,-5.05 -3.54,-8.68 0,-1.18 0.1,-2.25 0.3,-3.23 0.25,-0.97 0.51,-1.82 0.77,-2.53 0.3,-0.77 0.82,-1.46 1.53,-2.07 0.715,-0.66 1.304,-1.2 1.765,-1.61 0.51,-0.41 1.33,-0.79 2.46,-1.15 1.18,-0.41 2.08,-0.69 2.69,-0.84 0.62,-0.21 1.69,-0.44 3.23,-0.69 1.54,-0.26 2.67,-0.44 3.38,-0.54 0.72,-0.1 2,-0.28 3.84,-0.54 2.51,-0.31 4.25,-0.8 5.23,-1.46 0.97,-0.67 1.46,-1.67 1.46,-3 v -1.69 c 0,-1.95 -0.79,-3.43 -2.38,-4.45 -1.536,-1.03 -3.74,-1.54 -6.605,-1.54 -2.97,0 -5.22,0.59 -6.76,1.76 -1.535,1.13 -2.43,2.92 -2.69,5.38 h -6.45 m 12.83,24.5 c 3.53,0 6.424,-0.92 8.68,-2.76 2.25,-1.89 3.376,-3.91 3.376,-6.07 v -7.22 c -1.28,0.62 -3.223,1.13 -5.84,1.54 -2.56,0.41 -4.782,0.77 -6.68,1.08 -1.89,0.31 -3.61,1.05 -5.15,2.23 -1.53,1.13 -2.3,2.72 -2.3,4.76 0,2.04 0.69,3.64 2.078,4.77 1.38,1.13 3.33,1.69 5.83,1.69 m 62.21,-52.15 v 55.99 h -5.68 v -5.3 c -1.74,2.51 -3.632,4.3 -5.68,5.38 -2,1.13 -4.38,1.69 -7.143,1.69 -5.43,0 -9.7,-1.94 -12.83,-5.83 -3.12,-3.95 -4.68,-9.32 -4.68,-16.13 0,-6.4 1.56,-11.52 4.69,-15.37 3.17,-3.89 7.37,-5.84 12.6,-5.84 5.53,0 9.65,2.07 12.36,6.22 v -20.811 h 6.38 m -17.69,20.57 c -3.49,0 -6.3,1.44 -8.45,4.3 -2.15,2.87 -3.23,6.63 -3.23,11.29 0,4.71 1.08,8.5 3.23,11.37 2.15,2.82 4.99,4.23 8.52,4.23 3.38,0 6.1,-1.41 8.14,-4.23 2.05,-2.82 3.08,-6.55 3.08,-11.21 0,-4.82 -1.03,-8.63 -3.08,-11.45 -2.05,-2.87 -4.78,-4.3 -8.22,-4.3"
         id="path39"
         inkscape:connector-curvature="0" />
    </g>
    <path
       style="font-weight:bold;font-size:19.20199966px;line-height:89.99999762%;font-family:FreeSans;-inkscape-font-specification:'FreeSans Bold';letter-spacing:0;word-spacing:0"
       d="m 38.495,557.76301 v 46.39 h -11.52 v -46.39 H 10 v -9.6 h 44.855 v 9.6 h -16.36 m 36.325,4.224 c 1.792,0 3.533,0.205 5.223,0.614 1.69,0.41 3.405,1.153 5.146,2.228 1.79,1.075 3.32,2.458 4.6,4.147 1.33,1.64 2.4,3.84 3.22,6.606 0.82,2.714 1.23,5.837 1.23,9.37 0,0.615 -0.03,1.23 -0.08,1.843 h -27.8 c 0.05,1.588 0.18,2.97 0.38,4.148 0.25,1.126 0.66,2.253 1.23,3.38 0.61,1.075 1.48,1.92 2.61,2.534 1.18,0.563 2.64,0.845 4.38,0.845 4.09,0 6.83,-1.74 8.22,-5.223 h 10.59 c -1.17,4.096 -3.5,7.373 -6.99,9.83 -3.48,2.408 -7.56,3.61 -12.22,3.61 -5.89,0 -10.52,-1.893 -13.9,-5.683 -3.38,-3.84 -5.07,-9.088 -5.07,-15.745 0,-6.964 1.72,-12.442 5.15,-16.436 3.43,-4.045 8.11,-6.068 14.05,-6.068 m 8.22,17.665 c -0.26,-3.02 -1.1,-5.35 -2.54,-6.99 -1.39,-1.637 -3.33,-2.457 -5.84,-2.457 -4.71,0 -7.42,3.15 -8.14,9.447 H 83 m 18.03,-16.973 h 10.75 v 8.14 c 1.125,-2.815 2.713,-4.992 4.76,-6.528 2.048,-1.536 4.3,-2.304 6.76,-2.304 0.46,0 0.895,0.024 1.304,0.077 v 10.906 c -1.28,-0.2 -2.404,-0.3 -3.38,-0.3 -6.295,0 -9.444,3.15 -9.444,9.45 v 22.05 h -10.75 v -41.48 m 29.174,0 h 10.68 v 5.15 c 1.79,-2.1 3.53,-3.58 5.22,-4.45 1.74,-0.92 3.79,-1.38 6.14,-1.38 5.43,0 9.19,2.05 11.29,6.15 3.07,-4.09 7.12,-6.14 12.13,-6.14 4.15,0 7.37,1.13 9.68,3.38 2.35,2.25 3.53,5.4 3.53,9.45 v 29.34 h -10.75 v -27.651 c 0,-1.64 -0.54,-2.948 -1.616,-3.92 -1.02,-0.974 -2.43,-1.46 -4.22,-1.46 -2.307,0 -4.12,0.72 -5.456,2.15 -1.28,1.434 -1.92,3.43 -1.92,5.99 v 24.88 H 154.2 v -27.65 c 0,-1.64 -0.537,-2.944 -1.612,-3.917 -1.024,-0.973 -2.433,-1.46 -4.225,-1.46 -2.308,0 -4.126,0.718 -5.457,2.15 -1.28,1.435 -1.92,3.43 -1.92,5.99 v 24.886 h -10.75 v -41.47 m 75.2,29.41 c 0.357,1.74 1.074,3.07 2.15,3.99 1.126,0.92 3.226,1.38 6.3,1.38 2.507,0 4.453,-0.36 5.835,-1.08 1.44,-0.72 2.15,-1.72 2.15,-3 0,-0.82 -0.28,-1.49 -0.84,-2 -0.51,-0.51 -1.43,-0.98 -2.76,-1.39 l -12.82,-4 c -0.05,0 -0.36,-0.08 -0.92,-0.23 -0.56,-0.2 -0.97,-0.36 -1.23,-0.46 -0.2,-0.1 -0.61,-0.26 -1.23,-0.46 -0.61,-0.26 -1.1,-0.51 -1.46,-0.77 -0.3,-0.26 -0.71,-0.56 -1.23,-0.92 -0.51,-0.41 -0.92,-0.85 -1.23,-1.31 l -0.84,-1.53 c -0.31,-0.62 -0.54,-1.31 -0.7,-2.08 -0.15,-0.77 -0.23,-1.59 -0.23,-2.46 0,-4.25 1.51,-7.61 4.53,-10.07 3.07,-2.51 7.25,-3.76 12.52,-3.76 5.58,0 9.96,1.25 13.14,3.76 3.18,2.46 4.82,5.89 4.92,10.29 h -10.36 c -0.05,-3.74 -2.64,-5.61 -7.76,-5.61 -1.89,0 -3.4,0.36 -4.53,1.07 -1.12,0.66 -1.69,1.58 -1.69,2.76 0,0.82 0.26,1.46 0.77,1.92 0.52,0.41 1.51,0.84 3,1.3 l 13.6,3.92 c 5.43,1.58 8.14,5.07 8.14,10.44 0,1.58 -0.28,3.15 -0.84,4.68 -0.56,1.49 -1.48,2.97 -2.76,4.46 -1.23,1.48 -3.1,2.66 -5.61,3.53 -2.51,0.92 -5.48,1.38 -8.91,1.38 -12.75,0 -19.28,-4.61 -19.58,-13.83 h 10.52 m 74.419,-30.099 c 6.51,0 11.55,1.97 15.13,5.91 3.64,3.89 5.46,9.347 5.46,16.36 0,6.658 -1.84,11.93 -5.53,15.82 -3.69,3.89 -8.68,5.84 -14.98,5.84 -6.4,0 -11.41,-1.94 -15.05,-5.832 -3.63,-3.94 -5.45,-9.32 -5.45,-16.13 0,-6.81 1.82,-12.16 5.45,-16.05 3.64,-3.94 8.63,-5.91 14.98,-5.91 m 0.08,8.68 c -2.92,0 -5.27,1.23 -7.06,3.687 -1.79,2.457 -2.69,5.657 -2.69,9.6 0,3.94 0.9,7.14 2.69,9.6 1.79,2.46 4.15,3.687 7.07,3.687 2.87,0 5.2,-1.208 6.99,-3.61 1.85,-2.46 2.77,-5.637 2.77,-9.53 0,-4.1 -0.9,-7.35 -2.69,-9.76 -1.74,-2.46 -4.092,-3.69 -7.062,-3.69 m 46.3,-7.14 v 7.14 h -6.38 v 33.49 h -10.75 v -33.462 h -5.84 v -7.142 h 5.837 v -4.99 c 0,-6.91 3.536,-10.37 10.6,-10.37 2.1,0 4.15,0.08 6.15,0.23 v 8.066 c -0.925,-0.158 -1.95,-0.23 -3.075,-0.23 -1.946,0 -2.92,1.07 -2.92,3.22 v 4.07 h 6.376 m 69.53,1.69 h -10.76 c -0.41,-5.836 -4.32,-8.75 -11.75,-8.75 -2.97,0 -5.32,0.64 -7.062,1.92 -1.74,1.23 -2.61,2.89 -2.61,4.99 0,2.05 0.74,3.58 2.23,4.61 1.48,0.97 4.27,1.863 8.37,2.68 l 8.75,1.69 c 5.17,1.024 8.93,2.765 11.29,5.22 2.35,2.41 3.53,5.81 3.53,10.22 0,5.68 -2.02,10.136 -6.07,13.36 -4.042,3.17 -9.68,4.76 -16.9,4.76 -7.17,0 -12.75,-1.59 -16.74,-4.76 -3.94,-3.18 -6.09,-7.76 -6.45,-13.75 h 11.22 c 0.21,3.02 1.385,5.32 3.536,6.91 2.15,1.59 5.17,2.38 9.06,2.38 3.49,0 6.23,-0.664 8.22,-1.996 2.05,-1.33 3.076,-3.174 3.076,-5.53 0,-2.253 -0.79,-3.994 -2.38,-5.222 -1.59,-1.23 -4.3,-2.2 -8.14,-2.92 l -7.83,-1.533 c -5.682,-1.08 -9.73,-2.77 -12.133,-5.07 -2.4,-2.31 -3.61,-5.64 -3.61,-9.99 0,-5.48 1.85,-9.704 5.53,-12.674 3.74,-3.02 8.96,-4.53 15.67,-4.53 1.95,0 3.82,0.13 5.61,0.38 1.847,0.26 3.79,0.8 5.84,1.62 2.05,0.77 3.817,1.79 5.3,3.07 1.487,1.23 2.716,2.97 3.69,5.22 1.02,2.2 1.535,4.76 1.535,7.68 m 25.57,-3.22 c 1.79,0 3.53,0.2 5.22,0.61 1.69,0.41 3.41,1.15 5.15,2.23 1.79,1.07 3.33,2.46 4.61,4.15 1.33,1.64 2.41,3.84 3.23,6.6 0.82,2.71 1.23,5.83 1.23,9.37 0,0.61 -0.03,1.23 -0.08,1.84 h -27.8 c 0.05,1.58 0.18,2.97 0.38,4.14 0.254,1.12 0.664,2.25 1.23,3.38 0.612,1.07 1.482,1.92 2.61,2.53 1.18,0.56 2.64,0.84 4.38,0.84 4.093,0 6.832,-1.74 8.22,-5.23 h 10.6 c -1.17,4.09 -3.5,7.37 -6.99,9.83 -3.48,2.41 -7.55,3.61 -12.21,3.61 -5.89,0 -10.52,-1.9 -13.9,-5.69 -3.38,-3.84 -5.07,-9.09 -5.07,-15.75 0,-6.96 1.72,-12.44 5.15,-16.44 3.43,-4.05 8.12,-6.07 14.06,-6.07 m 8.21,17.66 c -0.258,-3.02 -1.1,-5.35 -2.536,-6.99 -1.384,-1.64 -3.33,-2.46 -5.84,-2.46 -4.71,0 -7.424,3.15 -8.14,9.44 h 16.51 m 18.03,-16.97 h 10.75 v 8.14 c 1.123,-2.81 2.71,-4.99 4.76,-6.52 2.05,-1.53 4.3,-2.31 6.76,-2.31 0.46,0 0.893,0.02 1.303,0.08 v 10.971 c -1.28,-0.2 -2.41,-0.3 -3.38,-0.3 -6.3,0 -9.45,3.15 -9.45,9.448 v 22.04 h -10.8 v -41.48 m 51.896,41.475 h -11.29 l -14.52,-41.48 h 11.37 l 8.99,30.337 8.38,-30.34 h 11.36 l -14.3,41.49 m 29.82,-41.477 v 41.475 h -10.76 v -41.47 h 10.76 m 0,-14.516 v 9.6 h -10.76 v -9.6 h 10.76 m 26.03,22.51 c -5.84,0 -8.75,4.53 -8.75,13.596 0,4.046 0.77,7.22 2.31,9.525 1.59,2.303 3.74,3.455 6.45,3.455 2.1,0 3.73,-0.564 4.91,-1.69 1.18,-1.178 2.1,-3.1 2.76,-5.76 h 10.29 c -0.51,4.966 -2.41,8.91 -5.69,11.827 -3.23,2.87 -7.35,4.3 -12.37,4.3 -6.15,0 -10.93,-1.89 -14.36,-5.68 -3.38,-3.79 -5.07,-9.115 -5.07,-15.976 0,-7.07 1.71,-12.55 5.14,-16.44 3.43,-3.89 8.24,-5.84 14.44,-5.84 5.17,0 9.34,1.43 12.52,4.3 3.22,2.87 5.01,6.83 5.37,11.9 H 563 c -0.614,-2.72 -1.51,-4.64 -2.687,-5.76 -1.13,-1.18 -2.79,-1.77 -4.996,-1.77 m 41.524,-8.68 c 1.8,0 3.54,0.2 5.23,0.61 1.69,0.41 3.41,1.15 5.15,2.23 1.79,1.07 3.33,2.45 4.61,4.14 1.34,1.64 2.41,3.84 3.23,6.6 0.82,2.71 1.23,5.84 1.23,9.37 0,0.62 -0.02,1.23 -0.08,1.84 h -27.8 c 0.05,1.59 0.18,2.97 0.39,4.15 0.26,1.13 0.67,2.26 1.23,3.38 0.62,1.08 1.49,1.92 2.62,2.54 1.18,0.56 2.64,0.84 4.38,0.84 4.1,0 6.84,-1.74 8.22,-5.23 h 10.6 c -1.18,4.1 -3.5,7.37 -6.99,9.83 -3.48,2.41 -7.55,3.61 -12.21,3.61 -5.89,0 -10.52,-1.89 -13.9,-5.68 -3.38,-3.84 -5.07,-9.09 -5.07,-15.75 0,-6.97 1.72,-12.44 5.15,-16.44 3.43,-4.05 8.12,-6.07 14.06,-6.07 m 8.22,17.66 c -0.26,-3.02 -1.1,-5.35 -2.54,-6.99 -1.38,-1.64 -3.33,-2.46 -5.84,-2.46 -4.71,0 -7.42,3.15 -8.14,9.44 h 16.51"
       font-size="19.202"
       letter-spacing="0"
       word-spacing="0"
       font-weight="bold"
       id="path43"
       inkscape:connector-curvature="0" />
  </g>
</svg>
