<svg xmlns="http://www.w3.org/2000/svg" xmlns:xlink="http://www.w3.org/1999/xlink" width="600" height="400"><defs><radialGradient xlink:href="#a" cx="198.1" cy="329.221" fx="198.1" fy="329.221" r="198.1" gradientTransform="matrix(1 0 0 .379 0 204.579)" gradientUnits="userSpaceOnUse" spreadMethod="pad"/><linearGradient id="a"><stop offset="0" stop-color="#c8c8c8" stop-opacity="0"/><stop offset=".367" stop-color="#c8c8c8" stop-opacity="0"/><stop offset=".934" stop-color="#c8c8c8" stop-opacity=".196"/><stop offset="1" stop-color="#c8c8c8" stop-opacity=".196"/></linearGradient><linearGradient id="b"><stop offset="0" stop-color="#c8c8c8" stop-opacity="0"/><stop offset=".367" stop-color="#c8c8c8" stop-opacity="0"/><stop offset=".934" stop-color="#c8c8c8" stop-opacity=".196"/><stop offset="1" stop-color="#c8c8c8" stop-opacity=".196"/></linearGradient><radialGradient xlink:href="#b" id="c" gradientUnits="userSpaceOnUse" gradientTransform="matrix(1.514 0 0 1.01 -50 -78.158)" spreadMethod="pad" cx="198.1" cy="329.221" fx="198.1" fy="329.221" r="198.1"/></defs><path fill="#fff" d="M0 0h600v400H0z"/><path fill="url(#c)" d="M0 0h600v400H0z"/><g transform="matrix(.682 0 0 .682 20.455 1.831)"><rect width="128" height="24" x="50" y="230.221" rx="12" ry="12" fill="#46a546"/><rect ry="12" rx="12" y="262.221" x="50" height="24" width="112.64" fill="#f89406"/><rect width="122.88" height="24" x="50" y="294.221" rx="12" ry="12" fill="#c43c35"/><rect ry="12" rx="12" y="326.221" x="50" height="24" width="76.8" fill="#999"/></g><g style="line-height:89.99999762%" font-size="19.202" letter-spacing="0" word-spacing="0" font-family="FreeSans"><path style="line-height:89.99999762%;-inkscape-font-specification:FreeSans Bold" d="M158.168 240.52v-38.174h14.714c4.853 0 8.658 1.693 11.416 5.08 2.757 3.385 4.136 8.046 4.136 13.98 0 5.935-1.396 10.613-4.19 14.034-2.757 3.386-6.544 5.08-11.362 5.08h-14.714m4.87-4.295h9.006c3.77 0 6.633-1.256 8.588-3.77 1.955-2.513 2.932-6.18 2.932-10.996 0-4.857-.977-8.54-2.932-11.05-1.955-2.517-4.817-3.77-8.588-3.77h-9.006v29.582" font-weight="bold"/><path style="line-height:89.99999762%;-inkscape-font-specification:FreeSans" d="M199.203 213.08v27.44h-4.346v-27.44h4.346m0-10.734v5.498h-4.398v-5.498h4.398m29.725 0v38.173h-3.875v-3.617c-1.187 1.71-2.478 2.933-3.875 3.666-1.36.77-2.984 1.152-4.87 1.152-3.7 0-6.615-1.327-8.744-3.98-2.13-2.688-3.195-6.354-3.195-10.996 0-4.364 1.06-7.855 3.19-10.473 2.165-2.653 5.028-3.98 8.588-3.98 3.77 0 6.58 1.414 8.43 4.242v-14.19h4.347m-12.044 14.032c-2.372 0-4.292.977-5.76 2.932-1.465 1.954-2.2 4.52-2.2 7.696 0 3.21.735 5.794 2.2 7.75 1.468 1.92 3.405 2.88 5.814 2.88 2.304 0 4.154-.96 5.55-2.88 1.397-1.92 2.095-4.47 2.095-7.646 0-3.28-.698-5.88-2.095-7.8-1.396-1.955-3.264-2.933-5.603-2.933m18.427-3.297h4.03v4.608c1.223-1.92 2.53-3.298 3.93-4.136 1.43-.838 3.16-1.257 5.183-1.257 2.653 0 4.765.68 6.336 2.042 1.57 1.362 2.355 3.177 2.355 5.446v20.736H252.8v-19.01c0-1.64-.506-2.95-1.52-3.93-1.01-.977-2.39-1.465-4.135-1.465-2.235 0-4.033.855-5.394 2.565-1.36 1.677-2.04 3.91-2.04 6.704v15.133h-4.4v-27.44m28.835-10.73h4.87v5.29c0 4.29-1.623 6.58-4.87 6.857v-1.99c1.676-.28 2.514-1.85 2.514-4.712h-2.515v-5.446m21.506 10.734v3.56h-4.502v18.8c0 .977.157 1.64.47 1.99.35.314.996.47 1.94.47.87 0 1.57-.07 2.093-.208v3.665c-1.36.245-2.547.367-3.56.367-1.71 0-3.02-.384-3.927-1.152-.907-.733-1.36-1.798-1.36-3.194V216.64h-3.72v-3.56h3.72v-7.54h4.345v7.54h4.503m43.814 8.588c1.117.49 2.042 1.065 2.775 1.728.767.664 1.31 1.414 1.622 2.252.35.838.58 1.623.684 2.356.105.733.157 1.606.157 2.618 0 .315-.016.768-.052 1.362v1.31c0 1.43.158 2.635.47 3.612.316.978.927 1.78 1.835 2.41v1.203h-5.915c-.698-1.61-1.048-3.687-1.048-6.235v-3.404c0-2.34-.507-4.05-1.52-5.13-1.013-1.117-2.6-1.676-4.765-1.676H311.14v16.442h-4.87v-38.174h17.594c3.736 0 6.6.89 8.59 2.67 2.023 1.746 3.036 4.26 3.036 7.54 0 2.165-.472 3.963-1.414 5.394-.942 1.432-2.478 2.67-4.607 3.718m.94-8.43c0-2.514-.663-4.242-1.99-5.185-1.326-.94-3.16-1.413-5.5-1.413h-11.78v13.143h11.782c2.583 0 4.47-.522 5.655-1.57 1.22-1.046 1.832-2.704 1.832-4.973m35.18 15.03h-20.21c.033 2.513.52 4.47 1.464 5.864 1.5 2.378 3.7 3.565 6.598 3.565 3.56 0 5.952-1.833 7.174-5.5h4.398c-.558 3.004-1.867 5.343-3.927 7.018-2.06 1.677-4.66 2.515-7.802 2.515-3.84 0-6.877-1.292-9.112-3.875-2.23-2.62-3.35-6.18-3.35-10.684s1.137-8.1 3.406-10.788c2.303-2.724 5.357-4.085 9.163-4.085 2.582 0 4.85.646 6.806 1.937 1.99 1.293 3.42 3.056 4.293 5.29.732 1.92 1.098 4.835 1.098 8.745m-20.106-3.56h15.398c.035-.07.052-.176.052-.316 0-2.268-.734-4.17-2.2-5.707-1.466-1.57-3.264-2.356-5.394-2.356-2.2 0-4.014.768-5.446 2.304-1.432 1.503-2.235 3.528-2.41 6.076m25.286-3.513c.21-5.935 3.875-8.902 10.996-8.902 3.387 0 5.953.646 7.698 1.937 1.745 1.257 2.618 3.107 2.618 5.55v16.13c0 1.43.786 2.146 2.357 2.146.313 0 .627-.035.94-.105v3.3c-1.22.314-2.216.47-2.984.47-1.396 0-2.46-.33-3.194-.994-.698-.63-1.134-1.645-1.31-3.04-2.93 2.69-6.038 4.03-9.32 4.03-2.758 0-4.957-.732-6.598-2.2-1.605-1.465-2.408-3.437-2.408-5.916 0-.803.07-1.536.21-2.2.174-.662.348-1.238.523-1.727.21-.525.557-.996 1.046-1.415.49-.454.89-.82 1.204-1.1.35-.28.908-.54 1.676-.785.803-.278 1.414-.47 1.833-.575.42-.14 1.15-.297 2.2-.47 1.045-.176 1.813-.298 2.302-.368.49-.07 1.362-.192 2.618-.366 1.71-.21 2.898-.54 3.56-.994.664-.454.996-1.135.996-2.043v-1.15c0-1.325-.54-2.337-1.623-3.036-1.05-.698-2.55-1.047-4.507-1.047-2.024 0-3.56.4-4.608 1.203-1.047.77-1.658 1.99-1.832 3.668h-4.4m8.746 16.704c2.41 0 4.38-.627 5.917-1.884 1.535-1.292 2.303-2.67 2.303-4.137v-4.92c-.872.42-2.2.767-3.98 1.046-1.744.28-3.263.524-4.554.733-1.293.21-2.463.715-3.51 1.52-1.047.766-1.57 1.85-1.57 3.245s.47 2.478 1.413 3.246c.945.768 2.27 1.15 3.98 1.15m42.41-35.553v38.173h-3.876v-3.616c-1.187 1.71-2.478 2.933-3.875 3.666-1.364.77-2.987 1.153-4.87 1.153-3.7 0-6.618-1.327-8.747-3.98-2.13-2.688-3.195-6.354-3.195-10.996 0-4.364 1.064-7.855 3.194-10.473 2.164-2.653 5.027-3.98 8.587-3.98 3.77 0 6.58 1.414 8.43 4.242v-14.19h4.348m-12.044 14.032c-2.374 0-4.294.977-5.76 2.932-1.467 1.955-2.2 4.52-2.2 7.697 0 3.21.733 5.794 2.2 7.75 1.466 1.92 3.403 2.88 5.812 2.88 2.304 0 4.154-.96 5.55-2.88 1.397-1.92 2.095-4.47 2.095-7.646 0-3.28-.696-5.88-2.092-7.8-1.398-1.954-3.266-2.932-5.604-2.932"/></g><path style="line-height:89.99999762%;-inkscape-font-specification:FreeSans Bold" d="M177.594 165.26v31.627h-7.854V165.26h-11.572v-6.545h30.58v6.545h-11.154m24.766 2.88c1.22 0 2.407.14 3.56.42 1.15.278 2.32.784 3.508 1.517 1.22.733 2.27 1.676 3.14 2.828.91 1.117 1.642 2.618 2.2 4.503.56 1.85.838 3.98.838 6.388 0 .42-.017.838-.052 1.257H196.6c.034 1.082.12 2.025.26 2.828.175.77.454 1.54.838 2.308.42.733 1.013 1.31 1.78 1.727.804.384 1.8.576 2.985.576 2.793 0 4.66-1.186 5.603-3.56h7.226c-.803 2.793-2.39 5.027-4.765 6.7-2.373 1.64-5.15 2.46-8.325 2.46-4.015 0-7.174-1.29-9.478-3.872-2.304-2.618-3.456-6.196-3.456-10.734 0-4.747 1.17-8.483 3.508-11.206 2.34-2.757 5.533-4.136 9.583-4.136m5.6 12.045c-.176-2.06-.75-3.648-1.73-4.765-.942-1.118-2.27-1.676-3.98-1.676-3.21 0-5.06 2.147-5.55 6.44h11.26m12.294-11.574h7.33v5.552c.77-1.92 1.85-3.404 3.248-4.45 1.396-1.05 2.932-1.572 4.608-1.572.317 0 .61.016.89.052v7.436c-.87-.14-1.64-.21-2.3-.21-4.295 0-6.44 2.147-6.44 6.44v15.03h-7.333v-28.28m19.886 0h7.28v3.51c1.22-1.432 2.407-2.444 3.56-3.038 1.186-.628 2.583-.942 4.188-.942 3.705 0 6.27 1.396 7.7 4.19 2.096-2.794 4.85-4.19 8.275-4.19 2.828 0 5.027.768 6.598 2.304 1.607 1.536 2.41 3.683 2.41 6.44v20.003h-7.33v-18.85c0-1.118-.368-2.008-1.1-2.67-.7-.664-1.66-.996-2.88-.996-1.57 0-2.81.49-3.72 1.47-.87.978-1.31 2.34-1.31 4.084v16.967h-7.33v-18.85c0-1.12-.365-2.01-1.1-2.67-.696-.664-1.656-.996-2.88-.996-1.57 0-2.81.49-3.716 1.467-.873.98-1.31 2.34-1.31 4.085v16.967h-7.33v-28.28m51.264 20.056c.244 1.187.733 2.095 1.466 2.723.768.626 2.2.94 4.294.94 1.71 0 3.034-.244 3.976-.733.978-.488 1.467-1.17 1.467-2.042 0-.558-.192-1.012-.576-1.36-.35-.35-.98-.665-1.886-.944l-8.743-2.72c-.036 0-.245-.054-.63-.16-.383-.14-.663-.243-.837-.313-.14-.07-.42-.174-.84-.314-.42-.175-.75-.35-.994-.524-.21-.175-.49-.385-.838-.63-.35-.28-.63-.575-.84-.89l-.575-1.047c-.21-.418-.366-.89-.47-1.413-.106-.525-.158-1.08-.158-1.677 0-2.897 1.03-5.184 3.09-6.86 2.094-1.71 4.94-2.565 8.535-2.565 3.805 0 6.79.854 8.954 2.565 2.163 1.675 3.28 4.014 3.35 7.016h-7.07c-.034-2.55-1.797-3.82-5.288-3.82-1.29 0-2.32.24-3.09.73-.767.454-1.15 1.082-1.15 1.885 0 .558.173.995.523 1.31.35.278 1.03.575 2.04.89l9.27 2.67c3.7 1.082 5.55 3.456 5.55 7.12 0 1.083-.19 2.148-.576 3.195-.385 1.013-1.013 2.026-1.886 3.038-.84 1.01-2.114 1.814-3.824 2.41-1.71.626-3.735.94-6.074.94-8.692 0-13.143-3.14-13.353-9.425h7.173m50.745-20.523c4.433 0 7.87 1.344 10.315 4.032 2.48 2.653 3.718 6.37 3.718 11.153 0 4.538-1.254 8.134-3.77 10.787-2.51 2.653-5.914 3.98-10.21 3.98-4.362 0-7.783-1.327-10.26-3.98-2.48-2.688-3.72-6.354-3.72-10.996 0-4.643 1.24-8.29 3.718-10.944 2.478-2.688 5.882-4.032 10.21-4.032m.053 5.917c-1.99 0-3.596.838-4.817 2.513-1.222 1.676-1.833 3.858-1.833 6.546s.61 4.87 1.834 6.545c1.22 1.68 2.827 2.517 4.817 2.517 1.957 0 3.545-.82 4.767-2.46 1.257-1.676 1.885-3.84 1.885-6.494 0-2.79-.61-5.01-1.832-6.65-1.187-1.674-2.792-2.512-4.817-2.512m31.564-4.872v4.87h-4.346v22.83h-7.33v-22.83h-3.98v-4.87h3.98v-3.404c0-4.712 2.41-7.068 7.226-7.068 1.43 0 2.828.052 4.19.157v5.498c-.63-.104-1.327-.156-2.095-.156-1.326 0-1.99.733-1.99 2.2v2.774h4.347m47.406 1.153h-7.33c-.28-3.98-2.95-5.97-8.013-5.97-2.024 0-3.63.437-4.817 1.31-1.187.838-1.78 1.97-1.78 3.403 0 1.397.506 2.444 1.518 3.142 1.013.663 2.916 1.274 5.71 1.833l5.97 1.152c3.524.695 6.09 1.882 7.695 3.56 1.606 1.64 2.41 3.96 2.41 6.962 0 3.875-1.38 6.912-4.138 9.11-2.757 2.165-6.597 3.247-11.52 3.247-4.887 0-8.692-1.08-11.415-3.247-2.69-2.165-4.157-5.29-4.4-9.373h7.644c.14 2.06.942 3.63 2.41 4.714 1.465 1.082 3.524 1.623 6.177 1.623 2.375 0 4.243-.454 5.604-1.362 1.397-.907 2.095-2.164 2.095-3.77 0-1.536-.54-2.723-1.623-3.56-1.084-.838-2.934-1.502-5.55-1.99l-5.343-1.047c-3.875-.736-6.633-1.888-8.273-3.458-1.64-1.57-2.46-3.84-2.46-6.808 0-3.735 1.255-6.615 3.77-8.64 2.547-2.06 6.108-3.09 10.68-3.09 1.327 0 2.6.088 3.823.263 1.257.174 2.583.54 3.98 1.1 1.396.523 2.6 1.22 3.613 2.094 1.01.84 1.85 2.024 2.51 3.56.7 1.5 1.05 3.246 1.05 5.236m17.437-2.197c1.22 0 2.408.14 3.56.42 1.152.277 2.322.783 3.51 1.516 1.22.733 2.268 1.676 3.14 2.828.908 1.117 1.64 2.618 2.2 4.503.558 1.85.837 3.98.837 6.388 0 .42-.016.838-.052 1.257h-18.955c.035 1.082.122 2.025.262 2.828.173.77.452 1.54.836 2.307.42.733 1.013 1.31 1.78 1.727.804.384 1.8.576 2.985.576 2.79 0 4.66-1.187 5.6-3.56h7.227c-.803 2.792-2.39 5.026-4.765 6.7-2.373 1.64-5.15 2.46-8.324 2.46-4.015 0-7.174-1.29-9.478-3.873-2.305-2.618-3.457-6.196-3.457-10.734 0-4.747 1.17-8.483 3.51-11.206 2.34-2.757 5.533-4.136 9.583-4.136m5.603 12.046c-.176-2.06-.75-3.648-1.73-4.765-.943-1.117-2.27-1.675-3.98-1.675-3.212 0-5.062 2.147-5.55 6.44h11.258M456.5 168.61h7.332v5.552c.768-1.92 1.85-3.404 3.247-4.45 1.392-1.05 2.93-1.572 4.604-1.572.314 0 .61.016.89.052v7.436c-.873-.14-1.64-.21-2.304-.21-4.293 0-6.44 2.147-6.44 6.44v15.03h-7.33V168.61m35.38 28.277h-7.696l-9.897-28.276h7.75l6.127 20.687 5.707-20.683h7.75l-9.74 28.277m20.33-28.28v28.278h-7.33V168.61h7.33m0-9.895v6.545h-7.33v-6.545h7.33m17.743 15.342c-3.98 0-5.97 3.09-5.97 9.268 0 2.758.525 4.922 1.572 6.493 1.082 1.57 2.548 2.356 4.398 2.356 1.432 0 2.55-.384 3.352-1.152.802-.803 1.43-2.112 1.885-3.927h7.013c-.35 3.386-1.64 6.074-3.875 8.064-2.2 1.95-5.01 2.93-8.43 2.93-4.19 0-7.454-1.29-9.793-3.877-2.304-2.583-3.456-6.213-3.456-10.89 0-4.818 1.17-8.554 3.51-11.207 2.336-2.654 5.62-3.98 9.842-3.98 3.525 0 6.37.977 8.535 2.932 2.2 1.954 3.42 4.66 3.664 8.115h-7.015c-.42-1.85-1.03-3.16-1.834-3.927-.767-.803-1.902-1.204-3.403-1.204m28.314-5.914c1.223 0 2.41.14 3.56.42 1.153.278 2.323.784 3.51 1.517 1.22.733 2.27 1.676 3.14 2.828.91 1.117 1.64 2.618 2.2 4.503.56 1.85.84 3.98.84 6.388 0 .42-.018.838-.054 1.257H552.5c.036 1.083.123 2.026.263 2.83.174.77.453 1.54.837 2.306.42.733 1.016 1.31 1.784 1.727.803.384 1.798.576 2.984.576 2.793 0 4.66-1.188 5.603-3.56h7.227c-.803 2.79-2.39 5.025-4.765 6.7-2.372 1.64-5.15 2.46-8.324 2.46-4.015 0-7.174-1.29-9.478-3.874-2.304-2.618-3.456-6.196-3.456-10.734 0-4.747 1.17-8.483 3.51-11.206 2.34-2.757 5.533-4.136 9.583-4.136m5.603 12.045c-.175-2.06-.75-3.648-1.728-4.765-.943-1.118-2.27-1.676-3.98-1.676-3.212 0-5.062 2.147-5.55 6.44h11.258" font-size="19.202" letter-spacing="0" word-spacing="0" font-family="FreeSans" font-weight="bold"/></svg>