<svg xmlns="http://www.w3.org/2000/svg" xmlns:xlink="http://www.w3.org/1999/xlink" width="760" height="128"><defs><radialGradient xlink:href="#a" cx="198.1" cy="329.221" fx="198.1" fy="329.221" r="198.1" gradientTransform="matrix(1 0 0 .379 0 204.579)" gradientUnits="userSpaceOnUse" spreadMethod="pad"/><linearGradient id="a"><stop offset="0" stop-color="#c8c8c8" stop-opacity="0"/><stop offset=".367" stop-color="#c8c8c8" stop-opacity="0"/><stop offset=".934" stop-color="#c8c8c8" stop-opacity=".196"/><stop offset="1" stop-color="#c8c8c8" stop-opacity=".196"/></linearGradient></defs><g transform="translate(-50 -226.221)"><rect ry="12" rx="12" y="230.221" x="50" height="24" width="128" fill="#46a546"/><rect width="112.64" height="24" x="50" y="262.221" rx="12" ry="12" fill="#f89406"/><rect ry="12" rx="12" y="294.221" x="50" height="24" width="122.88" fill="#c43c35"/><rect width="76.8" height="24" x="50" y="326.221" rx="12" ry="12" fill="#999"/><g style="line-height:89.99999762%" font-size="19.202" letter-spacing="0" word-spacing="0" font-family="FreeSans"><path style="line-height:89.99999762%;-inkscape-font-specification:FreeSans Bold" d="M202 350.215V294.22h21.583c7.118 0 12.7 2.485 16.745 7.452 4.045 4.967 6.067 11.803 6.067 20.507s-2.048 15.565-6.144 20.583c-4.044 4.967-9.6 7.45-16.666 7.45H202m7.143-6.298h13.21c5.532 0 9.73-1.843 12.598-5.53 2.87-3.687 4.303-9.063 4.303-16.13 0-7.117-1.434-12.52-4.3-16.206-2.87-3.688-7.067-5.53-12.598-5.53h-13.21v43.395" font-weight="bold"/><path style="line-height:89.99999762%;-inkscape-font-specification:FreeSans" d="M262.192 309.967v40.248h-6.375v-40.248h6.375m0-15.746v8.067h-6.452v-8.065h6.452M305.793 294.22v55.995h-5.684v-5.3c-1.743 2.51-3.638 4.3-5.686 5.376-1.997 1.13-4.378 1.69-7.143 1.69-5.427 0-9.703-1.944-12.826-5.835-3.124-3.943-4.686-9.32-4.686-16.13 0-6.4 1.56-11.52 4.685-15.362 3.174-3.89 7.373-5.837 12.596-5.837 5.53 0 9.653 2.074 12.367 6.22v-20.814h6.375m-17.666 20.586c-3.482 0-6.3 1.434-8.45 4.3-2.15 2.87-3.225 6.632-3.225 11.292 0 4.71 1.076 8.5 3.227 11.368 2.15 2.816 4.992 4.224 8.525 4.224 3.38 0 6.094-1.408 8.142-4.224 2.048-2.817 3.072-6.555 3.073-11.214 0-4.814-1.025-8.63-3.073-11.445-2.048-2.868-4.788-4.3-8.218-4.3M315.154 309.967h5.914v6.76c1.792-2.817 3.712-4.84 5.76-6.07 2.1-1.228 4.635-1.842 7.605-1.842 3.89 0 6.99.998 9.294 2.995 2.304 1.997 3.456 4.66 3.456 7.988v30.417h-6.375v-27.882c0-2.407-.743-4.327-2.228-5.76-1.485-1.434-3.507-2.15-6.067-2.15-3.278 0-5.915 1.253-7.912 3.762-1.995 2.458-2.993 5.735-2.993 9.832v22.198h-6.452v-40.248M357.448 294.22h7.143v7.76c0 6.297-2.38 9.65-7.14 10.06v-2.918c2.457-.41 3.686-2.714 3.686-6.913h-3.687v-7.99M388.993 309.967v5.223h-6.605v27.574c0 1.434.23 2.407.69 2.92.513.46 1.46.69 2.843.69 1.28 0 2.306-.102 3.074-.307v5.377c-1.997.358-3.738.537-5.223.537-2.51 0-4.43-.56-5.76-1.69-1.33-1.073-1.996-2.635-1.996-4.683V315.19h-5.454v-5.223h5.453v-11.06h6.375v11.06h6.605M453.258 322.564c1.64.716 2.996 1.56 4.07 2.534 1.128.973 1.92 2.074 2.382 3.303.512 1.23.845 2.383 1 3.458.152 1.076.23 2.356.23 3.84 0 .462-.025 1.127-.078 1.998v1.92c0 2.1.23 3.866.692 5.3.46 1.434 1.357 2.61 2.688 3.533v1.766h-8.68c-1.024-2.356-1.536-5.403-1.536-9.14v-4.993c0-3.43-.742-5.94-2.227-7.527-1.487-1.64-3.817-2.458-6.99-2.458h-18.436v24.118h-7.143V294.22h25.81c5.48 0 9.677 1.307 12.595 3.918 2.97 2.56 4.455 6.248 4.455 11.06 0 3.176-.69 5.813-2.073 7.912-1.382 2.1-3.635 3.917-6.76 5.454m1.384-12.367c0-3.686-.97-6.22-2.917-7.604-1.946-1.382-4.634-2.073-8.065-2.074h-17.282v19.277h17.282c3.79 0 6.554-.768 8.296-2.304 1.792-1.536 2.688-3.968 2.688-7.297M506.248 332.24H476.6c.05 3.688.768 6.556 2.15 8.604 2.202 3.482 5.428 5.223 9.678 5.223 5.223 0 8.73-2.688 10.523-8.065h6.454c-.82 4.404-2.74 7.834-5.76 10.292-3.022 2.458-6.837 3.687-11.445 3.687-5.634 0-10.09-1.892-13.366-5.682-3.277-3.84-4.916-9.063-4.916-15.67 0-6.604 1.665-11.878 4.993-15.82 3.38-3.995 7.86-5.992 13.443-5.992 3.79 0 7.117.947 9.985 2.842 2.918 1.894 5.018 4.48 6.298 7.757 1.075 2.817 1.613 7.092 1.613 12.827m-29.496-5.222h22.582c.05-.102.077-.256.077-.46 0-3.33-1.075-6.12-3.226-8.373-2.15-2.304-4.788-3.456-7.91-3.456-3.227 0-5.89 1.127-7.99 3.38-2.1 2.2-3.277 5.17-3.533 8.91M513.842 321.872c.308-8.705 5.684-13.057 16.13-13.057 4.967 0 8.73.947 11.29 2.842 2.56 1.843 3.842 4.557 3.842 8.14v23.658c0 2.1 1.152 3.15 3.456 3.15.46 0 .922-.052 1.383-.154v4.84c-1.793.46-3.252.69-4.38.69-2.047 0-3.61-.484-4.684-1.457-1.026-.922-1.666-2.407-1.92-4.455-4.303 3.943-8.86 5.914-13.674 5.914-4.045 0-7.27-1.074-9.678-3.225-2.356-2.15-3.534-5.044-3.534-8.68 0-1.177.102-2.252.307-3.225.257-.973.513-1.818.77-2.535.307-.768.82-1.46 1.536-2.074.717-.664 1.306-1.202 1.767-1.612.512-.41 1.33-.792 2.458-1.15 1.178-.41 2.075-.69 2.69-.846.614-.203 1.69-.434 3.225-.69 1.536-.256 2.663-.435 3.38-.538.717-.102 1.997-.28 3.84-.537 2.51-.308 4.25-.795 5.223-1.46.972-.666 1.458-1.665 1.458-2.996v-1.69c0-1.946-.793-3.43-2.38-4.455-1.537-1.025-3.74-1.537-6.606-1.537-2.97 0-5.223.588-6.76 1.766-1.536 1.125-2.432 2.917-2.688 5.375h-6.452m12.827 24.502c3.533 0 6.426-.922 8.68-2.765 2.252-1.896 3.378-3.918 3.378-6.07v-7.22c-1.28.616-3.226 1.128-5.837 1.537-2.56.41-4.787.767-6.68 1.075-1.896.307-3.61 1.05-5.148 2.227-1.536 1.127-2.304 2.714-2.304 4.762 0 2.048.69 3.636 2.074 4.762 1.383 1.127 3.328 1.69 5.837 1.69M588.875 294.22v55.995h-5.684v-5.3c-1.74 2.51-3.634 4.3-5.682 5.376-1.997 1.13-4.378 1.69-7.143 1.69-5.428 0-9.703-1.944-12.827-5.835-3.124-3.943-4.685-9.32-4.685-16.13 0-6.4 1.56-11.52 4.685-15.362 3.175-3.89 7.374-5.837 12.597-5.837 5.53 0 9.652 2.074 12.366 6.22v-20.814h6.376m-17.666 20.586c-3.483 0-6.3 1.434-8.45 4.3-2.15 2.87-3.226 6.632-3.226 11.292 0 4.71 1.075 8.5 3.226 11.368 2.15 2.816 4.993 4.224 8.526 4.224 3.38 0 6.093-1.408 8.14-4.224 2.05-2.817 3.074-6.555 3.074-11.214 0-4.814-1.024-8.63-3.073-11.445-2.048-2.868-4.787-4.3-8.218-4.3"/></g><g style="line-height:89.99999762%" font-size="19.202" letter-spacing="0" word-spacing="0" font-family="FreeSans" font-weight="bold"><path style="line-height:89.99999762%;-inkscape-font-specification:FreeSans Bold" d="M230.495 239.824v46.39h-11.52v-46.39H202v-9.6h44.855v9.6h-16.36M266.82 244.048c1.792 0 3.533.205 5.223.614 1.69.41 3.405 1.153 5.146 2.228 1.79 1.075 3.326 2.458 4.606 4.147 1.33 1.64 2.407 3.84 3.226 6.606.82 2.714 1.23 5.837 1.23 9.37 0 .615-.027 1.23-.078 1.843H258.37c.052 1.588.18 2.97.385 4.148.256 1.126.666 2.253 1.23 3.38.614 1.075 1.484 1.92 2.61 2.534 1.178.563 2.638.845 4.378.845 4.097 0 6.836-1.74 8.22-5.223h10.598c-1.176 4.096-3.505 7.373-6.987 9.83-3.482 2.408-7.553 3.61-12.213 3.61-5.89 0-10.523-1.893-13.903-5.683-3.38-3.84-5.07-9.088-5.07-15.745 0-6.964 1.717-12.442 5.147-16.436 3.43-4.045 8.116-6.068 14.056-6.068m8.218 17.665c-.256-3.02-1.1-5.35-2.534-6.99-1.383-1.637-3.33-2.457-5.838-2.457-4.71 0-7.424 3.15-8.14 9.447h16.512M293.07 244.74h10.754v8.14c1.126-2.815 2.714-4.992 4.762-6.528 2.048-1.536 4.3-2.304 6.76-2.304.46 0 .895.024 1.304.077v10.906c-1.28-.203-2.406-.305-3.38-.305-6.297 0-9.446 3.15-9.446 9.447v22.045H293.07V244.74M322.243 244.74h10.676v5.145c1.79-2.1 3.53-3.584 5.22-4.455 1.74-.92 3.79-1.382 6.145-1.382 5.428 0 9.192 2.048 11.29 6.144 3.073-4.096 7.118-6.144 12.136-6.144 4.15 0 7.375 1.127 9.68 3.38 2.354 2.252 3.532 5.402 3.532 9.447v29.34H370.17v-27.65c0-1.64-.538-2.945-1.613-3.918-1.024-.973-2.432-1.46-4.224-1.46-2.304 0-4.122.718-5.453 2.15-1.28 1.435-1.92 3.432-1.92 5.992v24.884h-10.753v-27.65c0-1.64-.538-2.945-1.613-3.918-1.024-.973-2.433-1.46-4.225-1.46-2.306 0-4.124.718-5.455 2.15-1.28 1.435-1.92 3.432-1.92 5.992v24.885h-10.753V244.74M397.44 274.156c.358 1.74 1.075 3.072 2.15 3.994 1.127.922 3.227 1.382 6.3 1.382 2.508 0 4.454-.358 5.836-1.075 1.434-.717 2.15-1.715 2.15-2.995 0-.82-.28-1.485-.844-1.997-.512-.512-1.434-.973-2.765-1.383l-12.827-3.994c-.05 0-.358-.076-.922-.23-.563-.205-.972-.358-1.228-.46-.205-.103-.615-.257-1.23-.462-.614-.256-1.1-.512-1.46-.768-.306-.256-.716-.563-1.228-.92-.512-.41-.92-.846-1.23-1.307-.255-.46-.536-.97-.843-1.534-.31-.615-.54-1.306-.694-2.074-.153-.767-.23-1.586-.23-2.457 0-4.25 1.51-7.604 4.532-10.062 3.07-2.507 7.244-3.762 12.518-3.762 5.58 0 9.96 1.256 13.134 3.764 3.175 2.46 4.813 5.89 4.915 10.294H413.11c-.053-3.738-2.638-5.607-7.76-5.607-1.893 0-3.404.36-4.53 1.076-1.127.666-1.69 1.587-1.69 2.765 0 .82.256 1.46.768 1.92.512.41 1.51.846 2.995 1.307l13.595 3.917c5.428 1.587 8.142 5.07 8.142 10.446 0 1.587-.282 3.15-.845 4.685-.564 1.486-1.485 2.97-2.765 4.456-1.23 1.485-3.098 2.663-5.607 3.534-2.51.92-5.48 1.38-8.91 1.38-12.75 0-19.278-4.607-19.585-13.824h10.522M471.864 244.048c6.503 0 11.547 1.97 15.13 5.914 3.637 3.892 5.454 9.345 5.454 16.36 0 6.656-1.843 11.93-5.53 15.822-3.686 3.89-8.68 5.837-14.977 5.837-6.4 0-11.416-1.944-15.052-5.835-3.635-3.943-5.453-9.32-5.453-16.13 0-6.81 1.818-12.16 5.453-16.052 3.636-3.943 8.628-5.914 14.977-5.914m.077 8.68c-2.918 0-5.273 1.227-7.065 3.685-1.792 2.458-2.688 5.658-2.688 9.6 0 3.943.895 7.144 2.687 9.6 1.792 2.46 4.147 3.688 7.066 3.688 2.87 0 5.198-1.203 6.99-3.61 1.844-2.458 2.766-5.632 2.766-9.524 0-4.097-.898-7.35-2.69-9.755-1.74-2.458-4.096-3.687-7.066-3.687M518.24 245.584v7.143h-6.375v33.488h-10.753v-33.488h-5.837v-7.143h5.837v-4.992c0-6.913 3.533-10.37 10.6-10.37 2.1 0 4.147.078 6.144.23v8.066c-.922-.154-1.946-.23-3.072-.23-1.946 0-2.92 1.075-2.92 3.225v4.07h6.376M587.775 247.274h-10.753c-.41-5.837-4.327-8.756-11.75-8.756-2.97 0-5.327.64-7.068 1.92-1.74 1.23-2.61 2.893-2.61 4.992 0 2.05.74 3.585 2.226 4.61 1.485.972 4.276 1.868 8.372 2.687l8.756 1.69c5.172 1.024 8.935 2.765 11.29 5.223 2.356 2.406 3.534 5.81 3.534 10.215 0 5.684-2.023 10.138-6.068 13.364-4.045 3.173-9.677 4.76-16.897 4.76-7.17 0-12.75-1.587-16.744-4.76-3.943-3.176-6.093-7.76-6.452-13.75h11.216c.205 3.02 1.382 5.325 3.533 6.912 2.15 1.588 5.17 2.38 9.062 2.38 3.483 0 6.223-.664 8.22-1.996 2.048-1.33 3.072-3.174 3.072-5.53 0-2.253-.794-3.994-2.38-5.222-1.59-1.23-4.302-2.202-8.143-2.92l-7.834-1.535c-5.684-1.076-9.73-2.766-12.135-5.07-2.406-2.305-3.61-5.633-3.61-9.985 0-5.48 1.844-9.703 5.53-12.673 3.74-3.02 8.96-4.532 15.67-4.532 1.945 0 3.814.13 5.606.385 1.844.256 3.79.794 5.837 1.613 2.05.768 3.815 1.792 5.3 3.072 1.485 1.23 2.714 2.97 3.687 5.223 1.023 2.202 1.535 4.762 1.535 7.68M613.35 244.048c1.79 0 3.532.205 5.222.614 1.69.41 3.405 1.153 5.146 2.228 1.792 1.075 3.328 2.458 4.608 4.147 1.332 1.64 2.407 3.84 3.226 6.606.82 2.714 1.23 5.837 1.23 9.37 0 .615-.025 1.23-.078 1.843H604.9c.052 1.588.18 2.97.384 4.148.256 1.126.666 2.253 1.23 3.38.614 1.075 1.484 1.92 2.61 2.534 1.178.563 2.638.845 4.38.845 4.095 0 6.834-1.74 8.217-5.223h10.6c-1.176 4.096-3.506 7.373-6.99 9.83-3.48 2.408-7.55 3.61-12.21 3.61-5.89 0-10.523-1.893-13.902-5.683-3.38-3.84-5.07-9.088-5.07-15.745 0-6.964 1.716-12.442 5.146-16.436 3.43-4.045 8.116-6.068 14.056-6.068m8.217 17.665c-.256-3.02-1.1-5.35-2.534-6.99-1.383-1.637-3.33-2.457-5.838-2.457-4.71 0-7.424 3.15-8.14 9.447h16.512M639.6 244.74h10.753v8.14c1.127-2.815 2.714-4.992 4.762-6.528 2.048-1.536 4.3-2.304 6.76-2.304.46 0 .895.024 1.305.077v10.906c-1.28-.203-2.407-.305-3.38-.305-6.298 0-9.447 3.15-9.447 9.447v22.045H639.6V244.74M691.496 286.215h-11.29L665.69 244.74h11.366l8.987 30.338 8.372-30.34h11.367l-14.286 41.477M721.316 244.74v41.475h-10.753V244.74h10.753m0-14.517v9.6h-10.753v-9.6h10.753M747.34 252.727c-5.838 0-8.757 4.532-8.757 13.595 0 4.045.768 7.22 2.304 9.524 1.588 2.304 3.738 3.456 6.452 3.456 2.1 0 3.736-.563 4.914-1.69 1.178-1.177 2.1-3.098 2.765-5.76h10.29c-.51 4.967-2.406 8.91-5.683 11.828-3.226 2.867-7.348 4.3-12.366 4.3-6.143 0-10.93-1.893-14.36-5.683-3.38-3.79-5.07-9.114-5.07-15.975 0-7.066 1.715-12.545 5.145-16.437 3.43-3.89 8.244-5.837 14.44-5.837 5.172 0 9.345 1.434 12.52 4.3 3.225 2.87 5.017 6.837 5.376 11.906h-10.29c-.615-2.714-1.51-4.634-2.688-5.76-1.127-1.178-2.79-1.767-4.993-1.767M788.864 244.048c1.792 0 3.533.205 5.223.614 1.69.41 3.405 1.153 5.146 2.228 1.792 1.075 3.328 2.458 4.608 4.147 1.333 1.64 2.41 3.84 3.228 6.606.82 2.714 1.23 5.837 1.23 9.37 0 .615-.025 1.23-.078 1.843h-27.805c.05 1.588.18 2.97.384 4.148.254 1.126.664 2.253 1.227 3.38.615 1.075 1.485 1.92 2.612 2.534 1.176.563 2.636.845 4.377.845 4.096 0 6.835-1.74 8.218-5.223h10.6c-1.18 4.096-3.508 7.373-6.99 9.83-3.482 2.408-7.553 3.61-12.213 3.61-5.888 0-10.522-1.893-13.902-5.683-3.378-3.84-5.068-9.088-5.068-15.745 0-6.964 1.716-12.442 5.146-16.436 3.43-4.045 8.116-6.068 14.056-6.068m8.218 17.665c-.256-3.02-1.1-5.35-2.534-6.99-1.383-1.637-3.33-2.457-5.838-2.457-4.71 0-7.424 3.15-8.14 9.447h16.512"/></g></g></svg>