<svg xmlns="http://www.w3.org/2000/svg" xmlns:xlink="http://www.w3.org/1999/xlink" width="960" height="328"><defs><radialGradient xlink:href="#a" cx="198.1" cy="329.221" fx="198.1" fy="329.221" r="198.1" gradientTransform="matrix(1 0 0 .379 0 204.579)" gradientUnits="userSpaceOnUse" spreadMethod="pad"/><linearGradient id="a"><stop offset="0" stop-color="#c8c8c8" stop-opacity="0"/><stop offset=".367" stop-color="#c8c8c8" stop-opacity="0"/><stop offset=".934" stop-color="#c8c8c8" stop-opacity=".196"/><stop offset="1" stop-color="#c8c8c8" stop-opacity=".196"/></linearGradient><linearGradient id="b"><stop offset="0" stop-color="#c8c8c8" stop-opacity="0"/><stop offset=".367" stop-color="#c8c8c8" stop-opacity="0"/><stop offset=".934" stop-color="#c8c8c8" stop-opacity=".196"/><stop offset="1" stop-color="#c8c8c8" stop-opacity=".196"/></linearGradient><radialGradient xlink:href="#b" id="c" gradientUnits="userSpaceOnUse" gradientTransform="matrix(2.423 0 0 .828 -50 17.671)" spreadMethod="pad" cx="198.1" cy="329.221" fx="198.1" fy="329.221" r="198.1"/></defs><g transform="translate(50 -126.221)"><path fill="#fff" d="M-50 126.22h960v328H-50z"/><path fill="url(#c)" d="M-50 126.22h960v328H-50z"/><rect ry="12" rx="12" y="230.221" x="50" height="24" width="128" fill="#46a546"/><rect width="112.64" height="24" x="50" y="262.221" rx="12" ry="12" fill="#f89406"/><rect ry="12" rx="12" y="294.221" x="50" height="24" width="122.88" fill="#c43c35"/><rect width="76.8" height="24" x="50" y="326.221" rx="12" ry="12" fill="#999"/><g style="line-height:89.99999762%" font-size="19.202" letter-spacing="0" word-spacing="0" font-family="FreeSans"><path style="line-height:89.99999762%;-inkscape-font-specification:FreeSans Bold" d="M202 350.215V294.22h21.583c7.118 0 12.7 2.485 16.745 7.452 4.045 4.967 6.067 11.803 6.067 20.507s-2.048 15.56-6.144 20.58c-4.04 4.96-9.6 7.45-16.66 7.45H202m7.143-6.3h13.21c5.532 0 9.73-1.85 12.598-5.53 2.87-3.69 4.31-9.07 4.31-16.13 0-7.12-1.43-12.52-4.3-16.21-2.87-3.69-7.06-5.53-12.6-5.53h-13.21v43.39" font-weight="bold"/><path style="line-height:89.99999762%;-inkscape-font-specification:FreeSans" d="M262.192 309.967v40.248h-6.375v-40.248h6.375m0-15.746v8.07h-6.452v-8.06h6.452m43.6 0v56h-5.683v-5.3c-1.75 2.51-3.64 4.3-5.69 5.38-2 1.13-4.38 1.69-7.15 1.69-5.43 0-9.71-1.94-12.83-5.832-3.13-3.94-4.69-9.32-4.69-16.13 0-6.4 1.56-11.52 4.682-15.36 3.173-3.89 7.372-5.837 12.595-5.837 5.53 0 9.654 2.074 12.37 6.22v-20.82h6.375m-17.665 20.58c-3.48 0-6.3 1.435-8.45 4.3-2.15 2.87-3.222 6.63-3.222 11.29 0 4.71 1.076 8.5 3.227 11.37 2.15 2.817 4.994 4.225 8.527 4.225 3.38 0 6.094-1.41 8.142-4.23 2.05-2.818 3.073-6.556 3.074-11.215 0-4.82-1.03-8.63-3.077-11.45-2.048-2.87-4.788-4.3-8.218-4.3m27.03-4.84h5.914v6.76c1.79-2.82 3.71-4.84 5.76-6.07 2.1-1.23 4.635-1.84 7.605-1.84 3.89 0 6.99.992 9.293 2.99 2.304 2 3.456 4.66 3.456 7.99v30.416h-6.37v-27.88c0-2.408-.745-4.328-2.23-5.76-1.486-1.435-3.508-2.15-6.068-2.15-3.28 0-5.918 1.252-7.915 3.76-1.995 2.458-2.993 5.735-2.993 9.83v22.197h-6.453v-40.25m42.298-15.75h7.14v7.76c0 6.298-2.38 9.65-7.14 10.06v-2.917c2.46-.41 3.683-2.716 3.683-6.915h-3.686v-7.99m31.542 15.75v5.224h-6.603v27.572c0 1.43.23 2.404.69 2.92.514.46 1.46.69 2.844.69 1.28 0 2.307-.105 3.075-.31v5.375c-2 .36-3.74.54-5.225.54-2.51 0-4.43-.56-5.76-1.69-1.33-1.07-1.995-2.633-1.995-4.68v-30.42h-5.455v-5.223h5.456V298.9h6.376v11.06h6.6m64.263 12.596c1.64.717 2.996 1.56 4.07 2.535 1.128.98 1.92 2.08 2.382 3.31.51 1.23.843 2.39 1 3.46.15 1.08.23 2.36.23 3.84 0 .46-.027 1.13-.08 2v1.92c0 2.1.23 3.87.692 5.3.46 1.43 1.36 2.61 2.69 3.53v1.77h-8.68c-1.024-2.36-1.536-5.402-1.536-9.14v-4.992c0-3.43-.742-5.94-2.227-7.527-1.488-1.64-3.818-2.46-6.99-2.46h-18.44v24.118h-7.143v-56h25.81c5.48 0 9.677 1.308 12.595 3.92 2.97 2.56 4.455 6.247 4.455 11.06 0 3.175-.69 5.812-2.072 7.91-1.38 2.1-3.63 3.918-6.76 5.455m1.388-12.367c0-3.685-.97-6.22-2.916-7.603s-4.633-2.075-8.064-2.076h-17.28v19.27h17.28c3.79 0 6.55-.77 8.292-2.305 1.793-1.536 2.69-3.97 2.69-7.3m51.604 22.05H476.6c.05 3.684.768 6.552 2.15 8.6 2.202 3.482 5.428 5.223 9.678 5.223 5.223 0 8.73-2.684 10.523-8.06h6.46c-.82 4.405-2.74 7.835-5.76 10.293-3.02 2.46-6.83 3.69-11.44 3.69-5.63 0-10.09-1.89-13.36-5.68-3.272-3.84-4.91-9.066-4.91-15.67 0-6.607 1.664-11.88 4.992-15.82 3.38-3.998 7.86-5.995 13.444-5.995 3.79 0 7.117.947 9.985 2.84 2.92 1.89 5.02 4.48 6.3 7.756 1.074 2.82 1.61 7.093 1.61 12.83m-29.495-5.22h22.584c.05-.1.076-.257.076-.46 0-3.33-1.077-6.12-3.23-8.374-2.15-2.305-4.785-3.457-7.91-3.457-3.224 0-5.89 1.127-7.99 3.38-2.1 2.2-3.274 5.17-3.53 8.91m37.09-5.15c.307-8.705 5.683-13.06 16.13-13.06 4.966 0 8.73.95 11.29 2.845 2.56 1.843 3.84 4.557 3.84 8.14v23.658c0 2.1 1.153 3.15 3.457 3.15.46 0 .92-.05 1.385-.154v4.84c-1.79.46-3.25.69-4.38.69-2.046 0-3.61-.484-4.683-1.457-1.025-.92-1.665-2.406-1.92-4.454-4.302 3.94-8.86 5.91-13.673 5.91-4.047 0-7.27-1.077-9.68-3.228-2.356-2.15-3.534-5.045-3.534-8.68 0-1.178.1-2.25.305-3.226.256-.975.51-1.82.77-2.537.306-.767.82-1.46 1.535-2.073.717-.662 1.306-1.2 1.767-1.61.51-.41 1.33-.79 2.456-1.15 1.18-.41 2.08-.69 2.69-.845.618-.203 1.69-.434 3.23-.69 1.537-.256 2.664-.435 3.38-.538.72-.103 2-.28 3.84-.538 2.51-.31 4.25-.797 5.224-1.46.97-.668 1.458-1.667 1.458-2.998v-1.69c0-1.947-.792-3.43-2.38-4.456-1.536-1.027-3.74-1.54-6.605-1.54-2.97 0-5.22.59-6.76 1.768-1.535 1.124-2.43 2.916-2.687 5.374h-6.45m12.827 24.5c3.532 0 6.425-.92 8.68-2.765 2.25-1.894 3.377-3.916 3.377-6.07v-7.22c-1.28.62-3.228 1.13-5.84 1.54-2.56.41-4.787.766-6.68 1.074-1.896.31-3.61 1.05-5.15 2.23-1.534 1.128-2.302 2.715-2.302 4.763s.69 3.637 2.074 4.763c1.38 1.125 3.33 1.69 5.836 1.69m62.206-52.156v55.99h-5.68v-5.3c-1.74 2.51-3.635 4.3-5.68 5.378-2 1.13-4.38 1.69-7.146 1.69-5.43 0-9.7-1.94-12.825-5.83-3.125-3.946-4.686-9.32-4.686-16.13 0-6.4 1.56-11.52 4.686-15.365 3.175-3.89 7.374-5.837 12.6-5.837 5.53 0 9.65 2.07 12.362 6.22v-20.81h6.375M571.23 314.8c-3.488 0-6.3 1.433-8.45 4.3-2.15 2.87-3.23 6.63-3.23 11.29 0 4.71 1.074 8.5 3.225 11.37 2.15 2.815 4.99 4.223 8.525 4.223 3.38 0 6.094-1.41 8.14-4.23 2.05-2.817 3.075-6.555 3.075-11.214 0-4.82-1.025-8.63-3.074-11.45-2.05-2.866-4.78-4.3-8.22-4.3"/></g><path style="line-height:89.99999762%;-inkscape-font-specification:FreeSans Bold" d="M230.495 239.824v46.39h-11.52v-46.39H202v-9.6h44.855v9.6h-16.36m36.325 4.224c1.792 0 3.533.205 5.223.614 1.69.41 3.405 1.153 5.146 2.228 1.79 1.075 3.32 2.458 4.6 4.147 1.33 1.64 2.4 3.84 3.22 6.606.82 2.714 1.23 5.837 1.23 9.37 0 .615-.03 1.23-.08 1.843h-27.8c.05 1.588.18 2.97.38 4.148.253 1.126.663 2.253 1.23 3.38.61 1.075 1.48 1.92 2.61 2.534 1.18.563 2.64.845 4.38.845 4.092 0 6.83-1.74 8.22-5.223h10.593c-1.17 4.096-3.5 7.373-6.983 9.83-3.48 2.408-7.552 3.61-12.212 3.61-5.89 0-10.52-1.893-13.9-5.683-3.38-3.84-5.07-9.088-5.07-15.745 0-6.964 1.72-12.442 5.15-16.436 3.43-4.045 8.114-6.068 14.054-6.068m8.22 17.665c-.258-3.02-1.1-5.35-2.536-6.99-1.387-1.637-3.33-2.457-5.84-2.457-4.71 0-7.42 3.15-8.14 9.447h16.51m18.03-16.973h10.752v8.14c1.124-2.815 2.712-4.992 4.76-6.528 2.047-1.536 4.3-2.304 6.76-2.304.46 0 .894.024 1.303.077v10.906c-1.28-.2-2.403-.3-3.38-.3-6.294 0-9.443 3.15-9.443 9.45v22.05h-10.75v-41.48m29.173 0h10.676v5.15c1.79-2.1 3.53-3.58 5.22-4.45 1.74-.92 3.79-1.38 6.14-1.38 5.43 0 9.19 2.046 11.29 6.142 3.07-4.095 7.12-6.143 12.13-6.143 4.15 0 7.372 1.123 9.68 3.38 2.35 2.25 3.53 5.4 3.53 9.443v29.34h-10.75v-27.65c0-1.64-.54-2.947-1.615-3.92-1.02-.973-2.43-1.46-4.22-1.46-2.306 0-4.12.72-5.455 2.15-1.28 1.435-1.92 3.43-1.92 5.99v24.88H346.2v-27.65c0-1.64-.537-2.943-1.612-3.916-1.024-.974-2.433-1.46-4.225-1.46-2.308 0-4.126.717-5.457 2.15-1.28 1.434-1.92 3.43-1.92 5.99v24.885h-10.75v-41.47m75.2 29.415c.357 1.74 1.074 3.07 2.15 3.995 1.126.92 3.226 1.38 6.3 1.38 2.507 0 4.453-.36 5.835-1.076 1.44-.72 2.15-1.717 2.15-2.997 0-.82-.28-1.487-.84-2-.51-.51-1.43-.973-2.76-1.383l-12.82-3.994c-.05 0-.36-.073-.924-.23-.563-.202-.972-.36-1.23-.46-.205-.1-.615-.254-1.23-.46-.614-.255-1.1-.51-1.46-.77-.306-.254-.716-.56-1.23-.92-.51-.41-.92-.844-1.23-1.305-.253-.46-.534-.97-.84-1.53-.31-.615-.54-1.306-.7-2.074-.153-.77-.23-1.59-.23-2.46 0-4.25 1.51-7.605 4.53-10.063 3.07-2.51 7.244-3.762 12.518-3.762 5.58 0 9.96 1.254 13.135 3.762 3.176 2.46 4.814 5.89 4.916 10.29h-10.36c-.053-3.737-2.64-5.606-7.76-5.606-1.893 0-3.404.36-4.53 1.074-1.127.663-1.69 1.584-1.69 2.762 0 .82.256 1.46.768 1.92.513.41 1.51.846 2.996 1.307l13.595 3.92c5.43 1.585 8.142 5.07 8.142 10.444 0 1.585-.283 3.15-.846 4.68-.56 1.49-1.482 2.97-2.762 4.46-1.23 1.483-3.1 2.66-5.61 3.532-2.51.92-5.48 1.38-8.91 1.38-12.75 0-19.28-4.61-19.58-13.826h10.52m74.424-30.12c6.506 0 11.55 1.97 15.13 5.91 3.64 3.892 5.457 9.345 5.457 16.36 0 6.656-1.845 11.93-5.53 15.822-3.688 3.89-8.68 5.837-14.98 5.837-6.4 0-11.41-1.944-15.05-5.835-3.633-3.946-5.45-9.32-5.45-16.13 0-6.81 1.817-12.16 5.45-16.055 3.64-3.942 8.63-5.913 14.98-5.913m.075 8.68c-2.918 0-5.273 1.228-7.065 3.686-1.79 2.456-2.69 5.656-2.69 9.6 0 3.94.9 7.142 2.69 9.6 1.79 2.46 4.148 3.686 7.067 3.686 2.87 0 5.2-1.204 6.99-3.61 1.845-2.46 2.767-5.633 2.767-9.525 0-4.1-.9-7.35-2.69-9.76-1.74-2.46-4.096-3.69-7.066-3.69m46.298-7.14v7.14h-6.377v33.49h-10.75v-33.48h-5.838v-7.144h5.836v-4.99c0-6.91 3.536-10.37 10.6-10.37 2.1 0 4.15.08 6.15.23v8.067c-.925-.156-1.95-.23-3.075-.23-1.946 0-2.92 1.073-2.92 3.223v4.07h6.376m69.533 1.69h-10.76c-.41-5.832-4.326-8.75-11.75-8.75-2.97 0-5.326.64-7.067 1.92-1.74 1.23-2.61 2.89-2.61 4.99 0 2.05.74 3.584 2.226 4.61 1.48.97 4.27 1.867 8.37 2.686l8.75 1.69c5.17 1.023 8.93 2.764 11.29 5.222 2.352 2.407 3.53 5.81 3.53 10.216 0 5.68-2.023 10.137-6.068 13.36-4.047 3.17-9.68 4.76-16.9 4.76-7.17 0-12.75-1.59-16.746-4.76-3.94-3.18-6.09-7.76-6.45-13.75h11.218c.21 3.02 1.386 5.32 3.537 6.91 2.15 1.59 5.17 2.38 9.06 2.38 3.486 0 6.226-.663 8.22-1.995 2.05-1.33 3.075-3.175 3.075-5.53 0-2.254-.792-3.995-2.38-5.223-1.59-1.23-4.3-2.2-8.14-2.92l-7.83-1.533c-5.684-1.08-9.73-2.77-12.135-5.07-2.405-2.308-3.61-5.636-3.61-9.988 0-5.48 1.845-9.703 5.53-12.673 3.74-3.02 8.96-4.53 15.67-4.53 1.946 0 3.815.13 5.607.383 1.844.257 3.79.795 5.837 1.614 2.05.77 3.815 1.793 5.3 3.073 1.485 1.23 2.714 2.97 3.69 5.223 1.02 2.2 1.533 4.76 1.533 7.68m25.574-3.227c1.79 0 3.535.205 5.225.614 1.69.41 3.405 1.157 5.146 2.23 1.79 1.077 3.328 2.46 4.608 4.15 1.33 1.64 2.406 3.84 3.225 6.605.82 2.713 1.23 5.836 1.23 9.37 0 .614-.03 1.23-.08 1.842h-27.8c.05 1.584.18 2.97.38 4.144.255 1.128.665 2.255 1.23 3.38.613 1.077 1.483 1.92 2.61 2.536 1.18.56 2.64.844 4.38.844 4.094 0 6.833-1.74 8.216-5.225h10.6c-1.17 4.092-3.5 7.37-6.99 9.83-3.48 2.404-7.55 3.61-12.21 3.61-5.89 0-10.52-1.897-13.9-5.687-3.38-3.84-5.07-9.09-5.07-15.745 0-6.962 1.72-12.44 5.15-16.434 3.43-4.05 8.12-6.07 14.06-6.07m8.214 17.66c-.257-3.02-1.1-5.35-2.535-6.99-1.384-1.638-3.33-2.458-5.84-2.458-4.71 0-7.424 3.15-8.14 9.444h16.51m18.03-16.97h10.755v8.14c1.125-2.814 2.71-4.99 4.76-6.527s4.3-2.305 6.76-2.305c.46 0 .895.02 1.305.078V255c-1.28-.2-2.408-.3-3.38-.3-6.3 0-9.448 3.15-9.448 9.448v22.04H639.6v-41.48m51.896 41.475h-11.29l-14.516-41.48h11.366l8.987 30.337 8.372-30.34h11.367l-14.286 41.49m29.82-41.477v41.475h-10.753v-41.47h10.753m0-14.516v9.6h-10.753v-9.6h10.753m26.024 22.51c-5.838 0-8.757 4.53-8.757 13.596 0 4.046.768 7.22 2.304 9.525 1.588 2.303 3.738 3.455 6.452 3.455 2.1 0 3.73-.564 4.91-1.69 1.18-1.178 2.1-3.1 2.76-5.76h10.29c-.51 4.966-2.41 8.91-5.69 11.827-3.23 2.87-7.35 4.3-12.37 4.3-6.145 0-10.93-1.89-14.36-5.68-3.38-3.79-5.07-9.115-5.07-15.976 0-7.07 1.713-12.55 5.143-16.44 3.43-3.89 8.243-5.838 14.44-5.838 5.17 0 9.344 1.434 12.52 4.3 3.224 2.87 5.016 6.837 5.375 11.906H755c-.614-2.713-1.51-4.633-2.687-5.76-1.13-1.177-2.79-1.766-4.996-1.766m41.524-8.68c1.797 0 3.538.205 5.228.614 1.69.41 3.403 1.153 5.144 2.23 1.79 1.073 3.326 2.456 4.606 4.145 1.335 1.64 2.41 3.84 3.23 6.605.82 2.717 1.23 5.84 1.23 9.37 0 .62-.025 1.23-.08 1.846h-27.8c.05 1.586.18 2.97.385 4.146.255 1.13.665 2.257 1.228 3.38.617 1.08 1.487 1.92 2.614 2.538 1.173.564 2.633.846 4.374.846 4.097 0 6.836-1.74 8.22-5.223h10.6c-1.18 4.097-3.506 7.374-6.99 9.83-3.48 2.41-7.55 3.61-12.21 3.61-5.888 0-10.52-1.89-13.9-5.68-3.38-3.84-5.07-9.09-5.07-15.745 0-6.965 1.716-12.443 5.146-16.437 3.43-4.047 8.113-6.07 14.053-6.07m8.22 17.665c-.256-3.02-1.1-5.35-2.534-6.99-1.384-1.638-3.33-2.458-5.84-2.458-4.71 0-7.425 3.15-8.14 9.443h16.51" font-size="19.202" letter-spacing="0" word-spacing="0" font-family="FreeSans" font-weight="bold"/></g></svg>