<svg xmlns="http://www.w3.org/2000/svg" xmlns:xlink="http://www.w3.org/1999/xlink" width="600" height="400"><defs><radialGradient xlink:href="#a" cx="198.1" cy="329.221" fx="198.1" fy="329.221" r="198.1" gradientTransform="matrix(1 0 0 .379 0 204.579)" gradientUnits="userSpaceOnUse" spreadMethod="pad"/><linearGradient id="a"><stop offset="0" stop-color="#c8c8c8" stop-opacity="0"/><stop offset=".367" stop-color="#c8c8c8" stop-opacity="0"/><stop offset=".934" stop-color="#c8c8c8" stop-opacity=".196"/><stop offset="1" stop-color="#c8c8c8" stop-opacity=".196"/></linearGradient><linearGradient id="b"><stop offset="0" stop-color="#c8c8c8" stop-opacity="0"/><stop offset=".367" stop-color="#c8c8c8" stop-opacity="0"/><stop offset=".934" stop-color="#c8c8c8" stop-opacity=".196"/><stop offset="1" stop-color="#c8c8c8" stop-opacity=".196"/></linearGradient><radialGradient xlink:href="#b" id="c" gradientUnits="userSpaceOnUse" gradientTransform="matrix(1.514 0 0 1.01 -50 -78.158)" spreadMethod="pad" cx="198.1" cy="329.221" fx="198.1" fy="329.221" r="198.1"/></defs><path fill="#fff" d="M0 0h600v400H0z"/><path fill="url(#c)" d="M0 0h600v400H0z"/><g transform="matrix(.682 0 0 .682 20.455 1.831)"><rect width="128" height="24" x="50" y="230.221" rx="12" ry="12" fill="#46a546"/><rect ry="12" rx="12" y="262.221" x="50" height="24" width="112.64" fill="#f89406"/><rect width="122.88" height="24" x="50" y="294.221" rx="12" ry="12" fill="#c43c35"/><rect ry="12" rx="12" y="326.221" x="50" height="24" width="76.8" fill="#999"/></g><g style="line-height:89.99999762%" font-size="19.202" letter-spacing="0" word-spacing="0" font-family="FreeSans"><path style="line-height:89.99999762%;-inkscape-font-specification:FreeSans Bold" d="M158.168 240.52v-38.174h14.714c4.853 0 8.658 1.693 11.416 5.08 2.757 3.385 4.136 8.046 4.136 13.98 0 5.935-1.396 10.613-4.19 14.034-2.757 3.386-6.544 5.08-11.362 5.08h-14.714m4.87-4.295h9.006c3.77 0 6.633-1.256 8.588-3.77 1.955-2.513 2.932-6.18 2.932-10.996 0-4.86-.977-8.54-2.932-11.05-1.955-2.52-4.817-3.77-8.588-3.77h-9.006v29.58" font-weight="bold"/><path style="line-height:89.99999762%;-inkscape-font-specification:FreeSans" d="M199.203 213.08v27.44h-4.346v-27.44h4.346m0-10.734v5.498h-4.398v-5.498h4.398m29.725 0v38.173h-3.875v-3.62c-1.187 1.71-2.478 2.93-3.875 3.66-1.36.77-2.984 1.15-4.87 1.15-3.7 0-6.615-1.33-8.744-3.98-2.13-2.69-3.195-6.36-3.195-11 0-4.37 1.06-7.86 3.19-10.478 2.16-2.653 5.02-3.98 8.58-3.98 3.77 0 6.58 1.414 8.43 4.242v-14.19h4.34m-12.048 14.03c-2.373 0-4.293.977-5.76 2.932-1.466 1.952-2.2 4.52-2.2 7.694 0 3.21.734 5.796 2.2 7.75 1.467 1.92 3.404 2.88 5.813 2.88 2.304 0 4.154-.96 5.55-2.88 1.397-1.92 2.095-4.47 2.095-7.644 0-3.28-.7-5.88-2.096-7.8-1.398-1.957-3.266-2.935-5.605-2.935m18.43-3.29h4.03v4.61c1.22-1.92 2.53-3.3 3.93-4.14 1.43-.84 3.16-1.26 5.18-1.26 2.653 0 4.765.68 6.336 2.04 1.57 1.36 2.354 3.176 2.354 5.445v20.74h-4.34v-19.01c0-1.64-.505-2.95-1.52-3.93-1.01-.98-2.39-1.467-4.134-1.467-2.234 0-4.03.853-5.393 2.563-1.36 1.68-2.04 3.91-2.04 6.708v15.14h-4.4v-27.44m28.837-10.73H269v5.29c0 4.29-1.62 6.58-4.87 6.855v-1.99c1.68-.28 2.518-1.85 2.518-4.714h-2.512v-5.44m21.506 10.74v3.56h-4.5v18.8c0 .977.156 1.64.47 1.99.35.314.995.47 1.94.47.87 0 1.57-.07 2.092-.208v3.664c-1.36.245-2.548.367-3.56.367-1.71 0-3.02-.384-3.928-1.15-.91-.735-1.36-1.8-1.36-3.196v-20.73h-3.72v-3.56h3.72v-7.54h4.343v7.54h4.5m43.815 8.59c1.117.49 2.04 1.065 2.775 1.728.767.668 1.31 1.418 1.62 2.256.35.84.58 1.624.686 2.357.107.73.16 1.605.16 2.617 0 .315-.017.768-.053 1.36v1.31c0 1.43.16 2.634.47 3.61.317.98.93 1.78 1.836 2.41v1.204h-5.915c-.697-1.61-1.047-3.69-1.047-6.24v-3.403c0-2.34-.51-4.05-1.52-5.13-1.015-1.116-2.6-1.675-4.767-1.675h-12.57v16.44h-4.87v-38.17h17.596c3.734 0 6.6.89 8.59 2.67 2.02 1.748 3.034 4.26 3.034 7.54 0 2.167-.47 3.965-1.414 5.396-.942 1.433-2.48 2.67-4.607 3.72m.94-8.43c0-2.515-.665-4.243-1.99-5.186-1.328-.94-3.16-1.414-5.5-1.414h-11.78v13.14h11.78c2.583 0 4.47-.526 5.655-1.57 1.22-1.05 1.83-2.708 1.83-4.977m35.18 15.03h-20.21c.034 2.513.52 4.47 1.465 5.864 1.5 2.38 3.7 3.565 6.597 3.565 3.56 0 5.954-1.835 7.176-5.5h4.4c-.558 3.002-1.867 5.34-3.927 7.016-2.06 1.677-4.66 2.515-7.803 2.515-3.84 0-6.877-1.29-9.112-3.873-2.23-2.62-3.35-6.18-3.35-10.682s1.14-8.1 3.41-10.79c2.303-2.725 5.357-4.086 9.163-4.086 2.584 0 4.85.646 6.81 1.937 1.99 1.29 3.42 3.053 4.29 5.29.73 1.92 1.097 4.83 1.097 8.74m-20.108-3.56h15.4c.035-.07.05-.174.05-.314 0-2.268-.732-4.17-2.2-5.707-1.464-1.57-3.262-2.354-5.392-2.354-2.2 0-4.012.765-5.444 2.3-1.43 1.504-2.23 3.53-2.41 6.077m25.29-3.515c.21-5.94 3.88-8.907 11-8.907 3.387 0 5.95.648 7.698 1.94 1.746 1.26 2.62 3.11 2.62 5.55v16.13c0 1.43.785 2.146 2.356 2.146.313 0 .63-.03.94-.1v3.3c-1.22.316-2.216.47-2.984.47-1.398 0-2.46-.33-3.196-.99-.7-.63-1.135-1.647-1.31-3.04-2.93 2.69-6.04 4.03-9.32 4.03-2.76 0-4.958-.734-6.6-2.2-1.604-1.467-2.407-3.44-2.407-5.918 0-.803.07-1.536.21-2.2.172-.66.346-1.238.52-1.727.21-.527.558-.998 1.047-1.417.49-.45.89-.82 1.205-1.1.35-.28.91-.54 1.68-.783.8-.28 1.41-.47 1.83-.576.42-.14 1.15-.296 2.2-.47 1.042-.175 1.81-.297 2.3-.367.49-.07 1.36-.194 2.62-.368 1.71-.21 2.895-.54 3.56-.993.66-.453.993-1.134.993-2.042v-1.15c0-1.323-.54-2.335-1.624-3.034-1.05-.697-2.55-1.046-4.504-1.046-2.025 0-3.56.4-4.61 1.204-1.046.77-1.657 1.99-1.83 3.67h-4.4m8.745 16.7c2.41 0 4.38-.625 5.918-1.882 1.53-1.29 2.3-2.67 2.3-4.136v-4.92c-.87.42-2.2.77-3.98 1.048-1.746.28-3.265.525-4.556.734-1.295.21-2.465.713-3.51 1.52-1.05.764-1.57 1.85-1.57 3.243s.47 2.48 1.41 3.248c.947.77 2.27 1.15 3.98 1.15m42.41-35.55v38.175h-3.874v-3.62c-1.19 1.71-2.48 2.934-3.877 3.667-1.364.77-2.99 1.153-4.87 1.153-3.7 0-6.62-1.328-8.75-3.98-2.13-2.69-3.192-6.355-3.192-10.997 0-4.365 1.062-7.856 3.192-10.474 2.166-2.656 5.03-3.98 8.59-3.98 3.77 0 6.58 1.41 8.43 4.24v-14.19h4.347m-12.044 14.03c-2.376 0-4.296.98-5.76 2.93-1.47 1.957-2.2 4.52-2.2 7.7 0 3.21.73 5.796 2.2 7.75 1.464 1.92 3.4 2.88 5.81 2.88 2.3 0 4.15-.96 5.55-2.88 1.394-1.92 2.092-4.47 2.092-7.644 0-3.28-.698-5.88-2.094-7.8-1.4-1.95-3.266-2.93-5.604-2.93"/></g><path style="line-height:89.99999762%;-inkscape-font-specification:FreeSans Bold" d="M177.594 165.26v31.627h-7.854V165.26h-11.572v-6.545h30.58v6.545h-11.154m24.766 2.88c1.22 0 2.407.14 3.56.42 1.15.278 2.32.784 3.508 1.517 1.22.733 2.27 1.676 3.14 2.828.91 1.117 1.642 2.618 2.2 4.503.56 1.85.838 3.98.838 6.388 0 .42-.017.838-.052 1.257H196.6c.034 1.082.12 2.025.26 2.828.175.77.454 1.54.838 2.31.42.74 1.013 1.31 1.78 1.73.804.39 1.8.58 2.985.58 2.793 0 4.66-1.18 5.603-3.56h7.226c-.803 2.8-2.39 5.03-4.765 6.7-2.373 1.64-5.15 2.46-8.325 2.46-4.015 0-7.174-1.29-9.478-3.87-2.304-2.61-3.456-6.19-3.456-10.73 0-4.742 1.17-8.48 3.508-11.2 2.34-2.757 5.533-4.136 9.583-4.136m5.6 12.045c-.18-2.06-.75-3.65-1.73-4.77-.95-1.12-2.27-1.676-3.98-1.676-3.21 0-5.06 2.15-5.55 6.44h11.26m12.29-11.572h7.33v5.555c.77-1.92 1.85-3.405 3.25-4.45 1.39-1.05 2.93-1.573 4.61-1.573.31 0 .61.016.89.05v7.436c-.87-.14-1.64-.21-2.3-.21-4.3 0-6.44 2.148-6.44 6.44v15.03h-7.34v-28.28m19.88 0h7.28v3.51c1.22-1.43 2.402-2.443 3.56-3.04 1.18-.63 2.58-.94 4.19-.94 3.7 0 6.27 1.396 7.7 4.19 2.09-2.794 4.85-4.19 8.27-4.19 2.83 0 5.025.768 6.6 2.304 1.604 1.536 2.41 3.68 2.41 6.44v20h-7.33v-18.85c0-1.12-.37-2.01-1.1-2.67-.7-.663-1.66-.995-2.88-.995-1.57 0-2.81.49-3.72 1.47-.87.977-1.31 2.34-1.31 4.083v16.96h-7.33v-18.85c0-1.12-.368-2.01-1.1-2.67-.7-.664-1.66-.996-2.88-.996-1.57 0-2.81.49-3.72 1.465-.872.98-1.31 2.34-1.31 4.084V196.9h-7.33v-28.28m51.27 20.05c.245 1.19.734 2.096 1.467 2.724.77.626 2.2.94 4.294.94 1.71 0 3.035-.244 3.977-.733.976-.48 1.465-1.17 1.465-2.04 0-.55-.19-1.01-.575-1.36-.35-.35-.98-.66-1.885-.94l-8.743-2.72c-.036 0-.245-.05-.63-.16-.383-.14-.663-.24-.837-.31-.14-.07-.42-.173-.84-.313-.42-.172-.75-.35-.993-.52-.21-.175-.49-.385-.84-.63-.35-.28-.63-.575-.84-.89l-.57-1.047c-.21-.42-.37-.89-.47-1.415-.11-.525-.16-1.08-.16-1.677 0-2.895 1.03-5.182 3.09-6.86 2.095-1.71 4.94-2.563 8.536-2.563 3.804 0 6.79.852 8.953 2.563 2.16 1.673 3.28 4.01 3.35 7.014h-7.07c-.038-2.55-1.8-3.82-5.29-3.82-1.29 0-2.32.24-3.09.73-.77.453-1.15 1.08-1.15 1.884 0 .56.17.997.52 1.31.35.28 1.03.577 2.04.89l9.27 2.67c3.7 1.08 5.55 3.458 5.55 7.12 0 1.085-.19 2.15-.578 3.197-.38 1.013-1.01 2.026-1.882 3.038-.84 1.01-2.116 1.814-3.826 2.41-1.71.626-3.733.94-6.072.94-8.69 0-13.14-3.14-13.35-9.425h7.176m50.745-20.523c4.434 0 7.87 1.34 10.316 4.03 2.48 2.653 3.72 6.37 3.72 11.153 0 4.536-1.26 8.132-3.77 10.785-2.51 2.653-5.92 3.98-10.21 3.98-4.368 0-7.79-1.327-10.26-3.98-2.48-2.69-3.72-6.354-3.72-10.996s1.24-8.29 3.712-10.94c2.48-2.69 5.883-4.03 10.21-4.03m.054 5.914c-1.99 0-3.6.837-4.82 2.512-1.222 1.676-1.833 3.858-1.833 6.546s.61 4.87 1.838 6.545c1.22 1.68 2.827 2.515 4.817 2.515 1.96 0 3.546-.82 4.77-2.46 1.255-1.674 1.883-3.84 1.883-6.49 0-2.79-.61-5.01-1.832-6.65-1.184-1.68-2.79-2.517-4.814-2.517m31.56-4.873v4.87h-4.35v22.83h-7.33v-22.83h-3.98v-4.87h3.98v-3.404c0-4.71 2.41-7.07 7.227-7.07 1.43 0 2.83.055 4.19.16v5.496c-.63-.1-1.326-.153-2.094-.153-1.324 0-1.99.734-1.99 2.2v2.775h4.35m47.404 1.154h-7.33c-.28-3.98-2.95-5.97-8.01-5.97-2.026 0-3.63.437-4.82 1.31-1.187.838-1.78 1.97-1.78 3.403 0 1.396.506 2.443 1.518 3.14 1.014.663 2.92 1.274 5.71 1.833l5.97 1.153c3.525.695 6.09 1.88 7.696 3.56 1.603 1.64 2.41 3.96 2.41 6.96 0 3.877-1.38 6.914-4.14 9.11-2.758 2.167-6.598 3.25-11.52 3.25-4.888 0-8.69-1.08-11.416-3.246-2.69-2.164-4.155-5.29-4.4-9.37h7.646c.14 2.06.94 3.63 2.41 4.712 1.463 1.082 3.522 1.623 6.175 1.623 2.375 0 4.243-.45 5.604-1.36 1.398-.908 2.096-2.165 2.096-3.77 0-1.537-.54-2.72-1.62-3.56-1.084-.84-2.934-1.5-5.55-1.99l-5.343-1.048c-3.87-.735-6.63-1.89-8.27-3.46-1.64-1.57-2.46-3.84-2.46-6.81 0-3.73 1.256-6.61 3.77-8.64 2.548-2.06 6.11-3.09 10.68-3.09 1.328 0 2.6.09 3.824.267 1.26.173 2.585.54 3.98 1.1 1.398.522 2.6 1.22 3.615 2.093 1.01.84 1.85 2.026 2.51 3.56.7 1.5 1.05 3.248 1.05 5.238m17.435-2.195c1.22 0 2.41.14 3.56.42 1.15.277 2.32.783 3.51 1.516 1.22.736 2.27 1.68 3.14 2.83.91 1.118 1.64 2.62 2.2 4.5.56 1.85.836 3.98.836 6.39 0 .42-.017.84-.053 1.26h-18.96c.035 1.08.122 2.024.262 2.827.172.77.45 1.54.835 2.306.42.733 1.016 1.31 1.78 1.727.807.384 1.8.576 2.988.576 2.79 0 4.66-1.19 5.6-3.56h7.227c-.804 2.79-2.39 5.025-4.766 6.7-2.37 1.64-5.15 2.46-8.32 2.46-4.017 0-7.176-1.29-9.48-3.874-2.304-2.62-3.456-6.2-3.456-10.737 0-4.75 1.17-8.487 3.51-11.21 2.34-2.756 5.533-4.135 9.583-4.135m5.6 12.044c-.177-2.06-.75-3.65-1.73-4.766-.944-1.12-2.27-1.677-3.98-1.677-3.213 0-5.063 2.15-5.55 6.44h11.26m12.29-11.58h7.33v5.55c.767-1.92 1.85-3.403 3.246-4.45 1.39-1.05 2.93-1.57 4.6-1.57.315 0 .61.016.89.05v7.436c-.872-.14-1.64-.21-2.303-.21-4.29 0-6.44 2.15-6.44 6.44v15.03h-7.33V168.6m35.38 28.278h-7.693l-9.9-28.278h7.75l6.128 20.69 5.708-20.68h7.75l-9.74 28.275m20.33-28.28v28.277h-7.33V168.6h7.33m0-9.894v6.544h-7.33v-6.545h7.33m17.743 15.34c-3.98 0-5.97 3.09-5.97 9.27 0 2.76.527 4.92 1.574 6.494 1.08 1.57 2.55 2.35 4.4 2.35 1.43 0 2.55-.387 3.35-1.15.806-.808 1.43-2.117 1.89-3.93h7.01c-.35 3.383-1.64 6.07-3.874 8.06-2.2 1.95-5.01 2.93-8.43 2.93-4.19 0-7.457-1.29-9.796-3.88-2.304-2.582-3.456-6.212-3.456-10.89 0-4.82 1.17-8.553 3.51-11.206 2.332-2.655 5.62-3.98 9.84-3.98 3.523 0 6.37.976 8.533 2.93 2.2 1.954 3.42 4.66 3.665 8.115h-7.017c-.42-1.85-1.03-3.16-1.833-3.927-.764-.805-1.9-1.206-3.4-1.206m28.316-5.91c1.224 0 2.41.14 3.56.42 1.154.28 2.324.785 3.51 1.52 1.22.73 2.27 1.674 3.14 2.826.91 1.117 1.64 2.62 2.2 4.503.56 1.85.84 3.98.84 6.387 0 .42-.017.84-.053 1.26H552.5c.036 1.086.123 2.03.263 2.83.174.77.453 1.54.837 2.31.42.734 1.016 1.31 1.784 1.73.803.382 1.798.574 2.984.574 2.793 0 4.66-1.19 5.603-3.56h7.23c-.8 2.79-2.39 5.024-4.76 6.7-2.37 1.64-5.15 2.46-8.32 2.46-4.01 0-7.17-1.29-9.48-3.875-2.3-2.62-3.45-6.197-3.45-10.735 0-4.744 1.17-8.48 3.51-11.203 2.34-2.753 5.536-4.13 9.586-4.13m5.603 12.043c-.174-2.06-.75-3.65-1.727-4.765-.945-1.12-2.27-1.68-3.98-1.68-3.214 0-5.064 2.15-5.55 6.44h11.256" font-size="19.202" letter-spacing="0" word-spacing="0" font-family="FreeSans" font-weight="bold"/></svg>