<svg xmlns="http://www.w3.org/2000/svg" xmlns:xlink="http://www.w3.org/1999/xlink" width="760" height="128"><defs><radialGradient xlink:href="#a" cx="198.1" cy="329.221" fx="198.1" fy="329.221" r="198.1" gradientTransform="matrix(1 0 0 .379 0 204.579)" gradientUnits="userSpaceOnUse" spreadMethod="pad"/><linearGradient id="a"><stop offset="0" stop-color="#c8c8c8" stop-opacity="0"/><stop offset=".367" stop-color="#c8c8c8" stop-opacity="0"/><stop offset=".934" stop-color="#c8c8c8" stop-opacity=".196"/><stop offset="1" stop-color="#c8c8c8" stop-opacity=".196"/></linearGradient></defs><g transform="translate(-50 -226.221)"><rect ry="12" rx="12" y="230.221" x="50" height="24" width="128" fill="#46a546"/><rect width="112.64" height="24" x="50" y="262.221" rx="12" ry="12" fill="#f89406"/><rect ry="12" rx="12" y="294.221" x="50" height="24" width="122.88" fill="#c43c35"/><rect width="76.8" height="24" x="50" y="326.221" rx="12" ry="12" fill="#999"/><g style="line-height:89.99999762%" font-size="19.202" letter-spacing="0" word-spacing="0" font-family="FreeSans"><path style="line-height:89.99999762%;-inkscape-font-specification:FreeSans Bold" d="M202 350.215V294.22h21.583c7.118 0 12.7 2.485 16.745 7.452 4.045 4.967 6.067 11.803 6.067 20.507s-2.048 15.562-6.144 20.58c-4.04 4.967-9.6 7.45-16.663 7.45H202m7.143-6.298h13.21c5.532 0 9.73-1.843 12.598-5.53 2.87-3.687 4.306-9.063 4.306-16.13 0-7.117-1.434-12.52-4.3-16.206-2.87-3.688-7.067-5.53-12.598-5.53h-13.21v43.395" font-weight="bold"/><path style="line-height:89.99999762%;-inkscape-font-specification:FreeSans" d="M262.192 309.967v40.248h-6.375v-40.248h6.375m0-15.746v8.07h-6.452v-8.065h6.452m43.6-.003v55.996h-5.683v-5.3c-1.746 2.51-3.64 4.3-5.69 5.376-1.996 1.13-4.377 1.69-7.142 1.69-5.428 0-9.704-1.943-12.827-5.834-3.123-3.943-4.685-9.32-4.685-16.13 0-6.4 1.56-11.52 4.685-15.362 3.174-3.89 7.373-5.837 12.596-5.837 5.53 0 9.652 2.074 12.366 6.22v-20.814h6.375m-17.666 20.586c-3.48 0-6.3 1.434-8.45 4.3-2.15 2.87-3.224 6.63-3.224 11.29 0 4.71 1.075 8.5 3.226 11.37 2.15 2.816 4.992 4.224 8.525 4.224 3.38 0 6.095-1.408 8.143-4.224 2.048-2.818 3.072-6.556 3.073-11.215 0-4.814-1.025-8.63-3.073-11.445-2.048-2.868-4.788-4.3-8.218-4.3m27.028-4.843h5.914v6.76c1.792-2.818 3.712-4.84 5.76-6.07 2.1-1.23 4.635-1.843 7.605-1.843 3.89 0 6.99.998 9.293 2.995 2.304 1.997 3.456 4.66 3.456 7.988v30.417h-6.376v-27.882c0-2.407-.743-4.327-2.228-5.76-1.486-1.434-3.508-2.15-6.068-2.15-3.278 0-5.915 1.253-7.912 3.762-1.994 2.458-2.992 5.735-2.992 9.832v22.197h-6.452V309.97m42.292-15.748h7.143v7.76c0 6.297-2.38 9.65-7.14 10.06v-2.918c2.46-.41 3.688-2.714 3.688-6.913h-3.687v-7.99m31.544 15.747v5.223h-6.605v27.573c0 1.434.23 2.407.69 2.92.512.46 1.46.69 2.842.69 1.28 0 2.306-.102 3.074-.307v5.377c-1.997.358-3.738.537-5.223.537-2.51 0-4.43-.56-5.76-1.69-1.33-1.072-1.995-2.634-1.995-4.682V315.19h-5.454v-5.223h5.454v-11.06h6.375v11.06h6.604m64.263 12.597c1.64.716 2.996 1.56 4.07 2.534 1.128.973 1.92 2.074 2.382 3.303.51 1.23.844 2.386 1 3.46.15 1.077.23 2.357.23 3.84 0 .46-.026 1.128-.08 2v1.92c0 2.1.23 3.865.693 5.3.46 1.433 1.357 2.61 2.688 3.532v1.767h-8.68c-1.023-2.357-1.535-5.404-1.535-9.14v-4.994c0-3.43-.742-5.94-2.227-7.527-1.487-1.64-3.817-2.46-6.99-2.46h-18.436v24.118h-7.143V294.22h25.81c5.48 0 9.677 1.307 12.595 3.918 2.97 2.56 4.455 6.248 4.455 11.06 0 3.176-.69 5.813-2.072 7.912-1.382 2.1-3.635 3.917-6.76 5.454m1.384-12.367c0-3.686-.97-6.22-2.916-7.604-1.946-1.382-4.634-2.073-8.065-2.074h-17.28v19.274h17.282c3.79 0 6.553-.768 8.295-2.304 1.792-1.535 2.688-3.967 2.688-7.296m51.605 22.045H476.6c.05 3.686.768 6.554 2.15 8.602 2.202 3.482 5.428 5.223 9.678 5.223 5.223 0 8.73-2.688 10.523-8.065h6.457c-.82 4.405-2.74 7.835-5.76 10.293-3.022 2.458-6.837 3.687-11.445 3.687-5.633 0-10.09-1.89-13.365-5.68-3.277-3.84-4.916-9.064-4.916-15.67 0-6.605 1.665-11.88 4.993-15.82 3.38-3.996 7.86-5.993 13.444-5.993 3.79 0 7.117.947 9.985 2.842 2.918 1.89 5.018 4.48 6.298 7.754 1.075 2.817 1.613 7.092 1.613 12.827m-29.495-5.22h22.582c.05-.1.077-.256.077-.46 0-3.33-1.075-6.12-3.226-8.373-2.15-2.304-4.787-3.456-7.91-3.456-3.226 0-5.89 1.128-7.99 3.38-2.1 2.2-3.276 5.17-3.532 8.91m37.088-5.15c.308-8.704 5.684-13.056 16.13-13.056 4.967 0 8.73.947 11.29 2.842 2.56 1.843 3.842 4.557 3.842 8.14v23.658c0 2.1 1.152 3.15 3.456 3.15.46 0 .923-.052 1.384-.154v4.84c-1.793.46-3.252.69-4.38.69-2.047 0-3.61-.482-4.684-1.455-1.027-.922-1.667-2.407-1.92-4.455-4.304 3.942-8.86 5.913-13.675 5.913-4.046 0-7.27-1.074-9.68-3.225-2.355-2.15-3.533-5.044-3.533-8.68 0-1.177.102-2.252.307-3.225.257-.973.513-1.818.77-2.535.307-.768.82-1.46 1.536-2.074.717-.664 1.306-1.202 1.767-1.612.512-.41 1.33-.792 2.458-1.15 1.18-.41 2.077-.69 2.69-.846.616-.203 1.69-.434 3.227-.69 1.536-.256 2.663-.435 3.38-.538.717-.102 1.997-.28 3.84-.537 2.51-.305 4.25-.792 5.223-1.46.97-.663 1.457-1.662 1.457-2.993v-1.69c0-1.946-.793-3.43-2.38-4.455-1.537-1.024-3.74-1.536-6.606-1.536-2.97 0-5.22.588-6.76 1.766-1.534 1.124-2.43 2.916-2.686 5.374h-6.452m12.828 24.502c3.533 0 6.426-.922 8.68-2.765 2.252-1.894 3.378-3.916 3.378-6.07v-7.22c-1.28.618-3.226 1.13-5.837 1.54-2.56.41-4.787.766-6.68 1.074-1.896.307-3.61 1.05-5.15 2.227-1.534 1.128-2.302 2.715-2.302 4.763s.69 3.636 2.074 4.762c1.383 1.126 3.33 1.69 5.837 1.69m62.207-52.155v55.996H583.2v-5.3c-1.74 2.51-3.633 4.3-5.68 5.377-1.998 1.13-4.38 1.69-7.144 1.69-5.43 0-9.704-1.943-12.828-5.834-3.125-3.943-4.686-9.32-4.686-16.13 0-6.4 1.56-11.52 4.685-15.362 3.175-3.89 7.374-5.836 12.597-5.836 5.53 0 9.652 2.073 12.366 6.22V294.23h6.376m-17.667 20.585c-3.484 0-6.3 1.434-8.45 4.3-2.15 2.87-3.227 6.63-3.227 11.29 0 4.71 1.075 8.5 3.226 11.37 2.15 2.816 4.992 4.224 8.525 4.224 3.38 0 6.092-1.41 8.14-4.225 2.05-2.818 3.073-6.556 3.073-11.215 0-4.814-1.024-8.63-3.073-11.445-2.05-2.868-4.788-4.3-8.22-4.3"/></g><path style="line-height:89.99999762%;-inkscape-font-specification:FreeSans Bold" d="M230.495 239.824v46.39h-11.52v-46.39H202v-9.6h44.855v9.6h-16.36m36.325 4.224c1.792 0 3.533.205 5.223.614 1.69.41 3.405 1.153 5.146 2.228 1.79 1.075 3.323 2.458 4.603 4.147 1.33 1.64 2.407 3.84 3.226 6.606.82 2.714 1.23 5.837 1.23 9.37 0 .615-.027 1.23-.078 1.843H258.37c.052 1.588.18 2.97.385 4.148.256 1.126.666 2.253 1.23 3.38.614 1.075 1.484 1.92 2.61 2.534 1.178.563 2.638.845 4.378.845 4.097 0 6.836-1.74 8.22-5.223h10.598c-1.173 4.096-3.502 7.373-6.984 9.83-3.482 2.408-7.553 3.61-12.213 3.61-5.89 0-10.522-1.893-13.902-5.683-3.38-3.84-5.07-9.088-5.07-15.745 0-6.964 1.718-12.442 5.148-16.436 3.43-4.045 8.116-6.068 14.056-6.068m8.22 17.665c-.257-3.02-1.1-5.35-2.535-6.99-1.384-1.637-3.33-2.457-5.84-2.457-4.71 0-7.423 3.15-8.14 9.447h16.513m18.03-16.973h10.754v8.14c1.126-2.815 2.714-4.992 4.762-6.528 2.047-1.536 4.3-2.304 6.76-2.304.46 0 .894.024 1.303.077v10.906c-1.28-.2-2.406-.302-3.38-.302-6.297 0-9.446 3.15-9.446 9.447v22.045H293.07v-41.48m29.173 0h10.676v5.145c1.79-2.1 3.53-3.584 5.22-4.455 1.74-.92 3.79-1.382 6.142-1.382 5.428 0 9.192 2.048 11.29 6.144 3.073-4.096 7.118-6.144 12.136-6.144 4.15 0 7.374 1.127 9.68 3.38 2.353 2.252 3.53 5.402 3.53 9.447v29.34h-10.75v-27.65c0-1.64-.538-2.945-1.613-3.918-1.024-.973-2.432-1.46-4.224-1.46-2.303 0-4.12.718-5.452 2.15-1.28 1.435-1.92 3.432-1.92 5.992v24.88h-10.753v-27.65c0-1.64-.538-2.944-1.613-3.917-1.024-.973-2.433-1.46-4.225-1.46-2.308 0-4.126.718-5.457 2.15-1.28 1.435-1.92 3.432-1.92 5.992v24.885h-10.75v-41.47m75.2 29.416c.358 1.74 1.075 3.072 2.15 3.994 1.127.922 3.227 1.382 6.3 1.382 2.508 0 4.454-.358 5.836-1.075 1.434-.717 2.15-1.715 2.15-2.995 0-.82-.28-1.485-.844-1.997-.512-.512-1.434-.973-2.765-1.383l-12.827-3.994c-.05 0-.358-.076-.922-.23-.563-.205-.972-.358-1.228-.46-.205-.103-.615-.257-1.23-.462-.614-.256-1.1-.512-1.46-.768-.306-.256-.716-.563-1.228-.92-.512-.41-.92-.846-1.23-1.307-.255-.46-.536-.97-.843-1.53-.31-.616-.54-1.307-.697-2.075-.153-.767-.23-1.586-.23-2.457 0-4.25 1.51-7.604 4.532-10.062 3.07-2.507 7.244-3.762 12.518-3.762 5.58 0 9.96 1.256 13.134 3.764 3.174 2.46 4.812 5.89 4.914 10.294h-10.36c-.053-3.737-2.638-5.606-7.76-5.606-1.893 0-3.404.36-4.53 1.076-1.127.665-1.69 1.586-1.69 2.764 0 .82.256 1.46.768 1.92.512.41 1.51.846 2.995 1.307l13.595 3.92c5.428 1.586 8.142 5.07 8.142 10.445 0 1.587-.282 3.15-.845 4.685-.564 1.485-1.485 2.97-2.765 4.455-1.23 1.485-3.098 2.663-5.607 3.534-2.51.92-5.48 1.38-8.91 1.38-12.75 0-19.278-4.61-19.585-13.826h10.522m74.424-30.117c6.503 0 11.547 1.97 15.13 5.913 3.637 3.893 5.454 9.346 5.454 16.36 0 6.657-1.843 11.93-5.53 15.823-3.686 3.89-8.68 5.837-14.977 5.837-6.4 0-11.413-1.943-15.05-5.834-3.634-3.944-5.452-9.32-5.452-16.13 0-6.81 1.818-12.16 5.453-16.053 3.636-3.943 8.628-5.914 14.977-5.914m.077 8.68c-2.918 0-5.273 1.227-7.065 3.685-1.793 2.458-2.69 5.658-2.69 9.6 0 3.943.896 7.144 2.688 9.6 1.792 2.46 4.147 3.688 7.066 3.688 2.87 0 5.198-1.203 6.99-3.61 1.844-2.458 2.766-5.632 2.766-9.524 0-4.1-.9-7.35-2.69-9.757-1.74-2.458-4.098-3.687-7.068-3.687m46.297-7.143v7.143h-6.377v33.488H501.11v-33.488h-5.836v-7.143h5.837v-4.992c0-6.912 3.535-10.37 10.6-10.37 2.1 0 4.15.08 6.146.23v8.067c-.922-.154-1.946-.23-3.072-.23-1.946 0-2.92 1.075-2.92 3.225v4.07h6.376m69.534 1.69H577.02c-.41-5.836-4.326-8.755-11.75-8.755-2.97 0-5.326.64-7.067 1.92-1.74 1.23-2.61 2.893-2.61 4.992 0 2.05.74 3.584 2.226 4.61 1.483.97 4.274 1.867 8.37 2.686l8.756 1.69c5.172 1.024 8.935 2.765 11.29 5.223 2.356 2.406 3.534 5.81 3.534 10.215 0 5.684-2.022 10.138-6.067 13.364-4.045 3.17-9.677 4.76-16.897 4.76-7.17 0-12.75-1.59-16.744-4.76-3.943-3.178-6.093-7.76-6.452-13.75h11.217c.205 3.02 1.382 5.323 3.533 6.91 2.15 1.59 5.17 2.38 9.062 2.38 3.483 0 6.223-.664 8.22-1.996 2.048-1.33 3.072-3.174 3.072-5.53 0-2.253-.794-3.994-2.38-5.222-1.59-1.23-4.302-2.2-8.143-2.92l-7.83-1.534c-5.685-1.076-9.73-2.766-12.136-5.07-2.406-2.305-3.61-5.633-3.61-9.985 0-5.48 1.844-9.702 5.53-12.672 3.74-3.02 8.96-4.53 15.67-4.53 1.945 0 3.814.13 5.606.384 1.843.257 3.79.795 5.836 1.614 2.05.768 3.815 1.792 5.3 3.072 1.485 1.23 2.714 2.97 3.687 5.223 1.023 2.202 1.535 4.762 1.535 7.68m25.573-3.223c1.79 0 3.534.205 5.224.614 1.69.41 3.405 1.154 5.146 2.23 1.79 1.074 3.327 2.457 4.607 4.146 1.332 1.64 2.407 3.84 3.226 6.606.82 2.714 1.23 5.837 1.23 9.37 0 .615-.025 1.23-.078 1.843H604.9c.052 1.587.18 2.97.384 4.147.256 1.126.666 2.253 1.23 3.38.614 1.075 1.484 1.92 2.61 2.534 1.178.564 2.638.846 4.38.846 4.095 0 6.834-1.74 8.217-5.223h10.6c-1.173 4.095-3.503 7.372-6.99 9.83-3.48 2.407-7.55 3.61-12.21 3.61-5.89 0-10.52-1.894-13.9-5.684-3.38-3.84-5.07-9.09-5.07-15.746 0-6.963 1.717-12.44 5.147-16.435 3.43-4.046 8.116-6.07 14.056-6.07m8.218 17.666c-.255-3.02-1.1-5.35-2.533-6.99-1.383-1.637-3.33-2.457-5.838-2.457-4.71 0-7.425 3.15-8.14 9.446h16.51m18.03-16.972h10.754v8.14c1.127-2.815 2.714-4.992 4.762-6.528 2.048-1.536 4.3-2.304 6.76-2.304.46 0 .895.024 1.305.077v10.905c-1.28-.2-2.406-.303-3.38-.303-6.297 0-9.446 3.15-9.446 9.447v22.044H639.6v-41.48m51.896 41.475h-11.29l-14.516-41.48h11.366l8.987 30.338 8.372-30.34h11.367l-14.286 41.477m29.82-41.475v41.475h-10.753V244.74h10.753m0-14.517v9.6h-10.753v-9.6h10.753m26.024 22.504c-5.838 0-8.757 4.532-8.757 13.595 0 4.045.768 7.22 2.304 9.524 1.588 2.304 3.738 3.456 6.452 3.456 2.1 0 3.733-.563 4.91-1.69 1.18-1.177 2.1-3.098 2.766-5.76h10.29c-.51 4.967-2.406 8.91-5.683 11.828-3.226 2.867-7.348 4.3-12.366 4.3-6.144 0-10.93-1.893-14.36-5.683-3.38-3.79-5.07-9.114-5.07-15.975 0-7.066 1.714-12.545 5.144-16.437 3.43-3.89 8.245-5.837 14.44-5.837 5.173 0 9.346 1.434 12.52 4.3 3.226 2.87 5.018 6.837 5.377 11.906h-10.29c-.615-2.714-1.51-4.634-2.688-5.76-1.128-1.178-2.79-1.767-4.994-1.767m41.524-8.68c1.793 0 3.534.206 5.224.615 1.69.41 3.405 1.153 5.146 2.228 1.792 1.075 3.328 2.458 4.608 4.147 1.334 1.64 2.41 3.84 3.23 6.606.82 2.714 1.23 5.837 1.23 9.37 0 .615-.026 1.23-.08 1.843h-27.804c.05 1.588.18 2.97.384 4.148.254 1.126.664 2.253 1.227 3.38.615 1.075 1.485 1.92 2.612 2.534 1.175.563 2.635.845 4.376.845 4.096 0 6.835-1.74 8.218-5.223h10.6c-1.18 4.096-3.506 7.373-6.99 9.83-3.48 2.408-7.55 3.61-12.21 3.61-5.888 0-10.52-1.893-13.9-5.683-3.38-3.84-5.07-9.088-5.07-15.745 0-6.964 1.716-12.442 5.146-16.436 3.43-4.045 8.116-6.068 14.056-6.068m8.22 17.665c-.256-3.02-1.1-5.35-2.534-6.99-1.383-1.637-3.33-2.457-5.838-2.457-4.71 0-7.425 3.15-8.14 9.447h16.51" font-size="19.202" letter-spacing="0" word-spacing="0" font-family="FreeSans" font-weight="bold"/></g></svg>