<svg xmlns="http://www.w3.org/2000/svg" xmlns:xlink="http://www.w3.org/1999/xlink" width="220" height="194"><defs><radialGradient xlink:href="#a" cx="198.1" cy="329.221" fx="198.1" fy="329.221" r="198.1" gradientTransform="matrix(1 0 0 .379 0 204.579)" gradientUnits="userSpaceOnUse" spreadMethod="pad"/><linearGradient id="a"><stop offset="0" stop-color="#c8c8c8" stop-opacity="0"/><stop offset=".367" stop-color="#c8c8c8" stop-opacity="0"/><stop offset=".934" stop-color="#c8c8c8" stop-opacity=".196"/><stop offset="1" stop-color="#c8c8c8" stop-opacity=".196"/></linearGradient><linearGradient id="b"><stop offset="0" stop-color="#c8c8c8" stop-opacity="0"/><stop offset=".367" stop-color="#c8c8c8" stop-opacity="0"/><stop offset=".934" stop-color="#c8c8c8" stop-opacity=".196"/><stop offset="1" stop-color="#c8c8c8" stop-opacity=".196"/></linearGradient><radialGradient xlink:href="#b" id="c" gradientUnits="userSpaceOnUse" gradientTransform="matrix(.555 0 0 .49 -50 196.017)" spreadMethod="pad" cx="198.1" cy="329.221" fx="198.1" fy="329.221" r="198.1"/></defs><path fill="#fff" d="M0 0h220v194H0z"/><path fill="url(#c)" d="M0 0h220v194H0z"/><g transform="matrix(.25 0 0 .25 7.5 26.005)"><rect width="128" height="24" x="50" y="230.221" rx="12" ry="12" fill="#46a546"/><rect ry="12" rx="12" y="262.221" x="50" height="24" width="112.64" fill="#f89406"/><rect width="122.88" height="24" x="50" y="294.221" rx="12" ry="12" fill="#c43c35"/><rect ry="12" rx="12" y="326.221" x="50" height="24" width="76.8" fill="#999"/></g><g style="line-height:89.99999762%" font-size="19.202" letter-spacing="0" word-spacing="0" font-family="FreeSans"><path style="line-height:89.99999762%;-inkscape-font-specification:FreeSans Bold" d="M58 113.56v-14h5.396c1.78 0 3.174.622 4.186 1.863 1.01 1.242 1.517 2.95 1.517 5.127 0 2.177-.52 3.892-1.54 5.147-1.01 1.24-2.4 1.862-4.17 1.862H58m1.786-1.58h3.302c1.383 0 2.433-.46 3.15-1.39.717-.92 1.075-2.27 1.075-4.03 0-1.78-.358-3.13-1.075-4.06-.717-.92-1.767-1.387-3.15-1.387h-3.302v10.85" font-weight="bold"/><path style="line-height:89.99999762%;-inkscape-font-specification:FreeSans" d="M73.048 103.497v10.062h-1.594v-10.07h1.594m0-3.94v2.01h-1.613v-2.01h1.613m10.9 0v14h-1.42v-1.33c-.436.624-.91 1.073-1.422 1.34-.5.283-1.094.424-1.786.424-1.357 0-2.426-.48-3.206-1.46-.78-.98-1.172-2.32-1.172-4.03 0-1.6.39-2.88 1.172-3.84.793-.97 1.843-1.46 3.15-1.46 1.38 0 2.412.52 3.09 1.56v-5.21h1.594m-4.416 5.15c-.87 0-1.575.357-2.113 1.074s-.81 1.66-.81 2.823c0 1.18.27 2.128.8 2.845.53.702 1.24 1.054 2.13 1.054.84 0 1.52-.35 2.03-1.055s.77-1.64.77-2.804c0-1.2-.26-2.154-.77-2.86-.51-.715-1.2-1.073-2.06-1.073m6.757-1.21h1.48v1.69c.447-.707.927-1.21 1.44-1.52.524-.307 1.16-.46 1.9-.46.973 0 1.747.25 2.323.75.58.5.87 1.163.87 1.995v7.605H92.7v-6.97c0-.607-.185-1.087-.556-1.44-.37-.36-.877-.54-1.517-.54-.82 0-1.48.31-1.98.94-.5.61-.75 1.43-.75 2.46v5.55h-1.61v-10.06m10.573-3.93h1.785v1.94c0 1.574-.596 2.412-1.786 2.515v-.73c.61-.102.92-.678.92-1.728h-.92V99.56m7.88 3.937v1.306h-1.65v6.894c0 .358.05.6.17.73.13.114.36.172.71.172.32 0 .57-.03.77-.08v1.34c-.5.09-.94.13-1.31.13-.63 0-1.11-.14-1.44-.43-.34-.27-.5-.66-.5-1.17v-7.6h-1.37v-1.31h1.364v-2.766h1.596v2.76h1.65m16.07 3.15c.41.18.75.39 1.02.634.28.24.48.516.594.824.127.306.21.594.25.863.037.27.057.59.057.96 0 .113-.002.28-.02.5v.48c0 .522.06.964.177 1.322.114.36.34.65.67.88v.44h-2.17c-.26-.59-.386-1.35-.386-2.29V110c0-.86-.18-1.484-.55-1.88-.375-.41-.957-.615-1.75-.615h-4.61v6.03h-1.79v-14h6.45c1.37 0 2.42.325 3.15.98.74.64 1.114 1.56 1.114 2.763 0 .794-.173 1.453-.52 1.98-.344.524-.908.98-1.69 1.362m.347-3.09c0-.922-.24-1.556-.73-1.9-.484-.346-1.156-.52-2.014-.52h-4.32v4.82h4.32c.946 0 1.64-.19 2.073-.575.443-.384.67-.992.67-1.824m12.9 5.52h-7.41c.01.92.19 1.64.535 2.15.55.87 1.36 1.31 2.42 1.31 1.308 0 2.185-.673 2.63-2.017h1.616c-.2 1.1-.68 1.96-1.44 2.575-.752.61-1.71.92-2.86.92-1.41 0-2.52-.475-3.34-1.42-.82-.96-1.23-2.27-1.23-3.92s.418-2.97 1.25-3.955c.845-1 1.965-1.5 3.36-1.5.948 0 1.78.235 2.497.71.73.472 1.255 1.12 1.576 1.94.27.702.406 1.77.406 3.205m-7.375-1.306h5.646c.01-.026.02-.064.02-.115 0-.83-.27-1.53-.81-2.092-.537-.575-1.197-.863-1.98-.863-.805 0-1.47.28-1.996.843-.52.55-.82 1.295-.88 2.23m9.27-1.285c.074-2.18 1.42-3.27 4.03-3.27 1.24 0 2.18.236 2.822.71.64.46.96 1.14.96 2.035v5.914c0 .524.287.79.863.79.114 0 .23-.015.344-.04v1.21c-.45.114-.814.172-1.095.172-.51 0-.9-.12-1.17-.363-.25-.23-.414-.603-.48-1.115-1.07.987-2.21 1.48-3.415 1.48-1.01 0-1.82-.27-2.42-.807-.59-.54-.882-1.26-.882-2.17 0-.296.024-.56.076-.808.063-.243.13-.454.19-.634.076-.19.204-.365.384-.518.18-.17.326-.3.44-.405.13-.1.334-.2.616-.284.295-.1.52-.17.67-.21.156-.05.425-.108.81-.17.383-.065.665-.11.844-.136l.96-.133c.63-.072 1.064-.2 1.307-.36.247-.17.37-.42.37-.75v-.42c0-.49-.2-.86-.6-1.117-.38-.254-.933-.38-1.65-.38-.74 0-1.305.144-1.69.44-.383.28-.607.73-.67 1.343h-1.614m3.208 6.125c.886 0 1.61-.23 2.17-.69.566-.477.848-.98.848-1.52v-1.807c-.32.15-.805.28-1.46.38l-1.67.27c-.472.077-.9.26-1.285.558-.383.28-.575.678-.575 1.19 0 .51.17.91.517 1.19.35.28.834.42 1.46.42m15.55-13.035v14h-1.42v-1.327c-.436.627-.91 1.076-1.42 1.344-.5.28-1.096.424-1.787.424-1.356 0-2.425-.486-3.206-1.46-.78-.98-1.17-2.328-1.17-4.03 0-1.6.39-2.88 1.17-3.84.795-.97 1.844-1.46 3.15-1.46 1.38 0 2.41.52 3.09 1.555v-5.2h1.595m-4.42 5.15c-.87 0-1.574.36-2.11 1.076-.536.716-.805 1.657-.805 2.822 0 1.178.27 2.125.81 2.84.54.706 1.25 1.058 2.13 1.058.85 0 1.526-.35 2.04-1.055.51-.7.766-1.64.766-2.8 0-1.203-.254-2.16-.766-2.86-.514-.72-1.2-1.076-2.057-1.076"/></g><path style="line-height:89.99999762%;-inkscape-font-specification:FreeSans Bold" d="M65.124 85.96v11.6h-2.88v-11.6H58v-2.4h11.214v2.4h-4.09m9.08 1.057c.45 0 .884.052 1.307.154.43.11.86.29 1.29.56.45.27.83.62 1.15 1.04.34.41.6.96.81 1.65.21.68.31 1.46.31 2.35 0 .16 0 .31-.02.46H72.1c.012.4.044.75.095 1.04.063.28.165.57.306.85.16.27.37.48.66.64.3.14.66.21 1.1.21 1.027 0 1.71-.434 2.058-1.305h2.65c-.296 1.026-.88 1.846-1.75 2.46-.87.6-1.89.9-3.053.9-1.473 0-2.63-.47-3.476-1.42-.844-.96-1.267-2.27-1.267-3.934 0-1.74.43-3.11 1.288-4.11.86-1.01 2.03-1.513 3.516-1.513m2.053 4.415c-.066-.752-.277-1.334-.635-1.744-.347-.41-.833-.612-1.46-.612-1.18 0-1.857.787-2.036 2.36h4.13m4.51-4.246h2.69v2.036c.28-.707.68-1.25 1.19-1.635.513-.385 1.077-.577 1.69-.577.116 0 .225.007.33.02v2.727c-.32-.05-.604-.08-.847-.08-1.58 0-2.367.79-2.367 2.36v5.51h-2.69V87.19m7.29 0h2.67v1.287c.45-.525.887-.896 1.31-1.114.44-.23.95-.346 1.54-.346 1.36 0 2.3.512 2.823 1.536.764-1.024 1.78-1.536 3.03-1.536 1.035 0 1.84.282 2.42.845.586.563.88 1.35.88 2.362v7.335h-2.687v-6.92c0-.41-.134-.74-.403-.98-.255-.25-.61-.37-1.055-.37-.578 0-1.03.18-1.365.54-.32.35-.48.85-.48 1.49v6.22h-2.69v-6.91c0-.41-.136-.74-.405-.98-.255-.248-.61-.37-1.055-.37-.58 0-1.03.18-1.365.54-.32.36-.48.86-.48 1.5v6.22h-2.69V87.19m18.8 7.354c.09.436.27.768.54 1 .28.23.805.344 1.573.344.627 0 1.114-.09 1.46-.268.358-.18.537-.43.537-.75 0-.204-.07-.37-.215-.498-.13-.128-.36-.244-.69-.346l-3.21-1c-.015 0-.09-.018-.23-.056-.14-.05-.246-.09-.31-.115-.05-.026-.153-.064-.307-.116-.152-.07-.273-.13-.363-.2-.074-.07-.18-.14-.304-.23-.13-.1-.23-.21-.308-.33-.066-.12-.137-.25-.21-.39-.08-.16-.138-.33-.176-.52-.04-.19-.056-.4-.056-.618 0-1.063.38-1.9 1.137-2.516.77-.627 1.81-.94 3.13-.94 1.397 0 2.49.313 3.285.94.794.615 1.204 1.472 1.23 2.573h-2.593c-.01-.93-.66-1.4-1.94-1.4-.47 0-.85.09-1.13.27-.28.166-.422.396-.422.69 0 .205.066.365.194.48.13.103.38.21.75.327l3.4.98c1.357.4 2.035 1.27 2.035 2.61 0 .4-.07.79-.21 1.175-.14.37-.37.74-.69 1.114-.31.37-.78.66-1.406.88-.625.23-1.37.345-2.225.345-3.186 0-4.82-1.15-4.895-3.454h2.63M125.495 87c1.62 0 2.88.49 3.78 1.48.903.97 1.36 2.332 1.36 4.09 0 1.66-.46 2.98-1.38 3.95-.928.975-2.17 1.46-3.75 1.46-1.6 0-2.854-.485-3.76-1.46-.91-.983-1.367-2.327-1.367-4.03 0-1.703.455-3.04 1.364-4.013.91-.985 2.154-1.48 3.74-1.48m.02 2.17c-.73 0-1.32.31-1.766.924-.45.617-.673 1.417-.673 2.4s.225 1.79.673 2.4c.444.618 1.032.92 1.762.92.72 0 1.3-.3 1.75-.9.46-.612.69-1.41.69-2.38 0-1.023-.223-1.84-.67-2.44-.437-.612-1.025-.92-1.768-.92m11.58-1.79v1.79h-1.595v8.377h-2.69v-8.37h-1.46V87.4h1.46v-1.247c0-1.728.882-2.592 2.65-2.592.524 0 1.036.02 1.535.06v2.02c-.23-.04-.486-.06-.77-.06-.484 0-.73.27-.73.81v1.01h1.597m17.387.43h-2.69c-.1-1.46-1.08-2.19-2.94-2.19-.742 0-1.33.16-1.766.48-.432.31-.65.73-.65 1.25 0 .51.186.9.557 1.15.37.25 1.07.47 2.093.68l2.19.426c1.29.257 2.23.69 2.82 1.306.59.6.882 1.453.882 2.554 0 1.42-.507 2.53-1.518 3.34-1.01.79-2.42 1.19-4.222 1.19-1.794 0-3.19-.4-4.187-1.19-.988-.8-1.526-1.94-1.615-3.44h2.804c.05.75.346 1.33.883 1.73.538.39 1.293.59 2.266.59.87 0 1.56-.167 2.06-.5.51-.33.766-.79.766-1.38 0-.566-.2-1-.595-1.308-.4-.31-1.077-.55-2.037-.73l-1.96-.385c-1.42-.27-2.433-.69-3.034-1.266-.605-.572-.906-1.404-.906-2.492 0-1.37.46-2.425 1.386-3.17.93-.754 2.24-1.13 3.92-1.13.482 0 .95.032 1.4.096.46.065.95.2 1.46.4.51.19.952.45 1.323.77.37.307.68.74.925 1.306.254.55.382 1.19.382 1.92m6.394-.81c.448 0 .883.054 1.306.156.42.106.85.29 1.286.56.443.27.83.615 1.15 1.04.33.41.6.96.804 1.65.208.68.31 1.46.31 2.343 0 .15-.006.304-.02.46h-6.95c.013.394.045.74.096 1.034.06.28.166.56.307.842.16.27.37.48.658.634.3.14.66.21 1.1.21 1.027 0 1.71-.432 2.057-1.303h2.65c-.294 1.027-.876 1.847-1.746 2.46-.87.6-1.89.904-3.05.904-1.47 0-2.63-.475-3.473-1.42-.844-.96-1.266-2.274-1.266-3.94 0-1.74.43-3.11 1.285-4.11.86-1.01 2.03-1.514 3.516-1.514m2.056 4.416c-.064-.757-.276-1.34-.634-1.75-.35-.41-.835-.614-1.46-.614-1.18 0-1.86.786-2.04 2.36h4.13m4.506-4.25h2.69v2.038c.282-.703.68-1.25 1.19-1.63.513-.383 1.076-.575 1.69-.575.115 0 .224.007.327.02v2.727c-.32-.05-.6-.075-.842-.075-1.574 0-2.36.79-2.36 2.364v5.51h-2.7V87.19m12.974 10.37h-2.825l-3.62-10.37h2.84l2.25 7.585 2.094-7.585h2.84l-3.57 10.37m7.45-10.37v10.37h-2.69V87.19h2.69m0-3.63v2.4h-2.69v-2.4h2.69m6.51 5.627c-1.46 0-2.19 1.133-2.19 3.4 0 1.01.192 1.804.576 2.38.396.576.934.864 1.613.864.522 0 .932-.14 1.226-.42.295-.29.525-.77.69-1.44h2.574c-.13 1.24-.606 2.23-1.42 2.96-.81.72-1.84 1.08-3.097 1.08-1.534 0-2.73-.47-3.59-1.42-.843-.95-1.27-2.28-1.27-3.99 0-1.76.43-3.13 1.29-4.11.858-.97 2.06-1.46 3.61-1.46 1.29 0 2.336.36 3.13 1.08.806.72 1.254 1.71 1.344 2.98h-2.57c-.154-.68-.38-1.16-.672-1.44-.28-.293-.697-.44-1.247-.44m10.38-2.17c.45 0 .887.053 1.31.155.422.108.85.29 1.29.56.444.27.83.617 1.15 1.04.33.41.6.96.804 1.65.206.68.31 1.46.31 2.344 0 .152-.007.306-.02.46h-6.95c.01.396.043.742.095 1.036.062.28.164.564.31.845.15.27.37.48.65.636.293.14.66.21 1.093.21 1.023 0 1.71-.434 2.054-1.305h2.65c-.294 1.026-.876 1.846-1.75 2.46-.87.6-1.885.903-3.05.903-1.47 0-2.63-.473-3.472-1.42-.844-.96-1.27-2.272-1.27-3.937 0-1.74.43-3.11 1.29-4.11.857-1.01 2.03-1.514 3.514-1.514m2.05 4.42c-.064-.754-.275-1.34-.633-1.75-.35-.41-.835-.61-1.46-.61-1.18 0-1.86.786-2.04 2.36h4.13" font-size="19.202" letter-spacing="0" word-spacing="0" font-family="FreeSans" font-weight="bold"/></svg>