<svg xmlns="http://www.w3.org/2000/svg" xmlns:xlink="http://www.w3.org/1999/xlink" width="600" height="400"><defs><linearGradient id="a"><stop offset="0" stop-color="#c8c8c8" stop-opacity="0"/><stop offset=".367" stop-color="#c8c8c8" stop-opacity="0"/><stop offset=".934" stop-color="#c8c8c8" stop-opacity=".196"/><stop offset="1" stop-color="#c8c8c8" stop-opacity=".196"/></linearGradient><linearGradient id="b"><stop offset="0" stop-color="#c8c8c8" stop-opacity="0"/><stop offset=".367" stop-color="#c8c8c8" stop-opacity="0"/><stop offset=".934" stop-color="#c8c8c8" stop-opacity=".196"/><stop offset="1" stop-color="#c8c8c8" stop-opacity=".196"/></linearGradient><radialGradient xlink:href="#b" id="c" gradientUnits="userSpaceOnUse" gradientTransform="matrix(1.514 0 0 1.01 -50 -78.158)" spreadMethod="pad" cx="198.1" cy="329.221" fx="198.1" fy="329.221" r="198.1"/></defs><path fill="#fff" d="M0 0h600v400H0z"/><path fill="url(#c)" d="M0 0h600v400H0z"/><g transform="matrix(.682 0 0 .682 20.455 1.831)"><rect width="128" height="24" x="50" y="230.221" rx="12" ry="12" fill="#46a546"/><rect ry="12" rx="12" y="262.221" x="50" height="24" width="112.64" fill="#f89406"/><rect width="122.88" height="24" x="50" y="294.221" rx="12" ry="12" fill="#c43c35"/><rect ry="12" rx="12" y="326.221" x="50" height="24" width="76.8" fill="#999"/></g><g style="line-height:89.99999762%" font-size="19.202" letter-spacing="0" word-spacing="0" font-family="FreeSans"><path style="line-height:89.99999762%;-inkscape-font-specification:FreeSans Bold" d="M158.168 240.52v-38.174h14.714c4.853 0 8.658 1.693 11.416 5.08 2.757 3.385 4.136 8.046 4.136 13.98 0 5.935-1.396 10.613-4.19 14.034-2.757 3.386-6.544 5.08-11.362 5.08h-14.714m4.87-4.295h9.006c3.77 0 6.633-1.256 8.588-3.77 1.955-2.513 2.932-6.18 2.932-10.996 0-4.86-.977-8.54-2.932-11.05-1.955-2.52-4.817-3.77-8.588-3.77h-9.006v29.58" font-weight="bold"/><path style="line-height:89.99999762%;-inkscape-font-specification:FreeSans" d="M199.203 213.08v27.44h-4.346v-27.44h4.346m0-10.734v5.498h-4.398v-5.498h4.398m29.725 0v38.173h-3.875v-3.62c-1.187 1.71-2.478 2.93-3.875 3.66-1.36.77-2.984 1.15-4.87 1.15-3.7 0-6.615-1.33-8.744-3.98-2.13-2.69-3.195-6.36-3.195-11 0-4.37 1.06-7.86 3.19-10.48 2.16-2.66 5.02-3.98 8.58-3.98 3.77 0 6.58 1.41 8.43 4.24v-14.19h4.34m-12.05 14.03c-2.38 0-4.3.97-5.76 2.93-1.47 1.95-2.2 4.52-2.2 7.69 0 3.21.73 5.79 2.2 7.75 1.46 1.92 3.4 2.88 5.81 2.88 2.3 0 4.15-.96 5.55-2.88 1.39-1.92 2.09-4.47 2.09-7.65 0-3.28-.7-5.88-2.1-7.8-1.4-1.96-3.27-2.94-5.61-2.94m18.43-3.29h4.03v4.61c1.22-1.92 2.53-3.3 3.93-4.14 1.43-.84 3.16-1.26 5.18-1.26 2.65 0 4.76.68 6.33 2.04 1.57 1.36 2.35 3.17 2.35 5.44v20.74h-4.34v-19.01c0-1.64-.51-2.95-1.52-3.93s-2.39-1.47-4.13-1.47c-2.24 0-4.03.85-5.4 2.56-1.36 1.68-2.04 3.91-2.04 6.71v15.14h-4.4v-27.44m28.84-10.73h4.9v5.29c0 4.29-1.62 6.58-4.87 6.85v-1.99c1.68-.28 2.51-1.85 2.51-4.71h-2.51v-5.44m21.5 10.74v3.56h-4.5v18.8c0 .97.15 1.64.47 1.99.35.31.99.47 1.94.47.87 0 1.57-.07 2.09-.21v3.66c-1.36.25-2.55.37-3.56.37-1.71 0-3.02-.39-3.93-1.15-.91-.74-1.36-1.8-1.36-3.2V216.6h-3.72v-3.56h3.72v-7.54h4.34v7.54h4.5m43.81 8.59c1.11.49 2.04 1.067 2.77 1.73.76.67 1.31 1.42 1.62 2.26.35.84.58 1.624.68 2.357.1.73.16 1.605.16 2.617 0 .32-.02.77-.06 1.36v1.31c0 1.43.16 2.637.47 3.61.31.98.93 1.78 1.83 2.41v1.207H331c-.696-1.61-1.046-3.69-1.046-6.24v-3.4c0-2.34-.51-4.05-1.52-5.13-1.016-1.11-2.6-1.67-4.768-1.67H311.1v16.44h-4.87v-38.17h17.595c3.73 0 6.6.89 8.59 2.67 2.02 1.75 3.03 4.26 3.03 7.54 0 2.17-.47 3.97-1.414 5.4-.94 1.43-2.48 2.67-4.6 3.72m.94-8.43c0-2.51-.66-4.24-1.99-5.19-1.33-.94-3.16-1.41-5.5-1.41H311.1v13.14h11.78c2.582 0 4.47-.52 5.654-1.57 1.22-1.05 1.83-2.71 1.83-4.98m35.18 15.03h-20.21c.035 2.51.52 4.47 1.466 5.86 1.5 2.38 3.7 3.57 6.596 3.57 3.56 0 5.956-1.84 7.18-5.5h4.4c-.558 3-1.867 5.34-3.927 7.01-2.06 1.68-4.66 2.52-7.8 2.52-3.84 0-6.87-1.29-9.11-3.87-2.23-2.62-3.35-6.18-3.35-10.68s1.14-8.1 3.41-10.79c2.3-2.72 5.36-4.08 9.16-4.08 2.58 0 4.85.64 6.81 1.94 1.99 1.29 3.42 3.05 4.29 5.29.73 1.92 1.09 4.83 1.09 8.74m-20.11-3.56h15.4c.03-.07.05-.17.05-.31 0-2.27-.73-4.17-2.2-5.71-1.47-1.57-3.26-2.35-5.39-2.35-2.2 0-4.02.77-5.45 2.3-1.43 1.51-2.23 3.53-2.41 6.08m25.29-3.52c.21-5.94 3.88-8.9 11-8.9 3.38 0 5.95.65 7.69 1.94 1.74 1.26 2.62 3.11 2.62 5.55v16.13c0 1.43.78 2.15 2.35 2.15.31 0 .63-.03.94-.1v3.3c-1.22.32-2.22.47-2.99.47-1.4 0-2.46-.33-3.2-.99-.7-.63-1.14-1.65-1.31-3.04-2.93 2.69-6.04 4.03-9.32 4.03-2.76 0-4.96-.73-6.6-2.2-1.61-1.47-2.41-3.44-2.41-5.92 0-.8.07-1.53.21-2.2.17-.66.34-1.23.52-1.72.21-.52.56-.99 1.05-1.41.49-.45.89-.82 1.21-1.1.35-.28.91-.54 1.68-.78.8-.28 1.41-.47 1.83-.57.42-.14 1.15-.29 2.2-.47 1.04-.17 1.81-.3 2.3-.37.49-.07 1.36-.2 2.62-.37 1.71-.21 2.9-.54 3.56-.99.66-.45.99-1.13.99-2.04v-1.15c0-1.32-.54-2.33-1.62-3.03-1.05-.7-2.55-1.05-4.5-1.05-2.03 0-3.56.4-4.61 1.21-1.05.77-1.66 1.99-1.83 3.67h-4.4m8.74 16.7c2.41 0 4.38-.63 5.92-1.88 1.53-1.29 2.3-2.67 2.3-4.14v-4.92c-.87.42-2.2.77-3.98 1.05l-4.55.74c-1.3.21-2.47.72-3.51 1.52-1.05.77-1.57 1.85-1.57 3.25s.47 2.48 1.41 3.25 2.27 1.15 3.98 1.15m42.41-35.55v38.18H418v-3.62c-1.19 1.71-2.48 2.93-3.875 3.67-1.36.77-2.99 1.16-4.87 1.16-3.7 0-6.62-1.33-8.75-3.98-2.13-2.69-3.19-6.36-3.19-11 0-4.37 1.06-7.86 3.19-10.47 2.17-2.66 5.03-3.98 8.59-3.98 3.77 0 6.58 1.41 8.43 4.24v-14.2h4.35m-12.04 14.03c-2.374 0-4.294.98-5.76 2.93-1.47 1.95-2.2 4.52-2.2 7.7 0 3.21.73 5.79 2.2 7.75 1.466 1.92 3.4 2.88 5.81 2.88 2.3 0 4.15-.96 5.55-2.88 1.396-1.92 2.094-4.47 2.094-7.65 0-3.28-.7-5.88-2.1-7.8-1.4-1.95-3.27-2.93-5.61-2.93"/></g><path style="line-height:89.99999762%;-inkscape-font-specification:FreeSans Bold" d="M177.594 165.26v31.627h-7.854V165.26h-11.572v-6.545h30.58v6.545h-11.154m24.766 2.88c1.22 0 2.407.14 3.56.42 1.15.278 2.32.784 3.508 1.517 1.22.733 2.27 1.676 3.14 2.828.91 1.117 1.642 2.618 2.2 4.503.56 1.85.838 3.98.838 6.388 0 .42-.017.838-.052 1.257H196.6c.034 1.082.12 2.025.26 2.828.175.77.454 1.54.838 2.31.42.74 1.013 1.31 1.78 1.73.804.39 1.8.58 2.985.58 2.793 0 4.66-1.18 5.603-3.56h7.226c-.803 2.8-2.39 5.03-4.765 6.7-2.373 1.64-5.15 2.46-8.325 2.46-4.015 0-7.174-1.29-9.478-3.87-2.304-2.61-3.456-6.19-3.456-10.73 0-4.74 1.17-8.48 3.508-11.2 2.34-2.75 5.533-4.13 9.583-4.13m5.6 12.05c-.18-2.06-.75-3.65-1.73-4.77-.95-1.12-2.27-1.67-3.98-1.67-3.21 0-5.06 2.15-5.55 6.44h11.26m12.29-11.57h7.33v5.56c.77-1.92 1.85-3.4 3.25-4.45 1.39-1.05 2.93-1.57 4.61-1.57.31 0 .61.02.89.05v7.44c-.87-.14-1.64-.21-2.3-.21-4.3 0-6.44 2.15-6.44 6.44v15.03h-7.34v-28.28m19.88 0h7.28v3.51c1.22-1.43 2.4-2.44 3.56-3.04 1.18-.63 2.58-.94 4.19-.94 3.7 0 6.27 1.4 7.7 4.19 2.09-2.79 4.85-4.19 8.27-4.19 2.83 0 5.02.77 6.6 2.31 1.6 1.54 2.41 3.68 2.41 6.44v20h-7.33v-18.85c0-1.12-.37-2.01-1.1-2.67-.7-.66-1.66-.99-2.88-.99-1.57 0-2.81.49-3.72 1.47-.87.98-1.31 2.34-1.31 4.08v16.96h-7.33v-18.85c0-1.12-.37-2.01-1.1-2.67-.7-.66-1.66-.99-2.88-.99-1.57 0-2.81.49-3.72 1.47-.88.98-1.31 2.34-1.31 4.08v16.96h-7.33v-28.28m51.27 20.05c.24 1.19.73 2.1 1.46 2.73.77.63 2.2.94 4.29.94 1.71 0 3.03-.24 3.97-.73.97-.48 1.46-1.17 1.46-2.04 0-.55-.19-1.01-.58-1.36-.35-.35-.98-.66-1.89-.94l-8.75-2.72c-.04 0-.25-.05-.63-.16-.38-.14-.66-.24-.84-.31-.14-.07-.42-.17-.84-.31a5.36 5.36 0 0 1-1-.52c-.21-.17-.49-.38-.84-.63a3.88 3.88 0 0 1-.84-.89l-.57-1.04c-.21-.42-.37-.89-.47-1.41-.11-.52-.16-1.08-.16-1.68 0-2.89 1.03-5.18 3.09-6.86 2.1-1.71 4.94-2.56 8.54-2.56 3.8 0 6.79.85 8.95 2.56 2.16 1.68 3.28 4.01 3.35 7.02h-7.07c-.04-2.55-1.8-3.82-5.29-3.82-1.29 0-2.32.24-3.09.73-.77.46-1.15 1.08-1.15 1.89 0 .56.17 1 .52 1.31.35.28 1.03.58 2.04.89l9.27 2.67c3.7 1.08 5.55 3.46 5.55 7.12 0 1.09-.19 2.15-.58 3.2-.38 1.02-1.01 2.03-1.88 3.04-.84 1.01-2.12 1.82-3.83 2.41-1.71.63-3.74.94-6.07.94-8.69 0-13.14-3.14-13.35-9.42h7.18m50.74-20.52c4.43 0 7.87 1.34 10.32 4.03 2.48 2.66 3.72 6.37 3.72 11.16 0 4.54-1.26 8.13-3.77 10.79s-5.92 3.98-10.21 3.98c-4.37 0-7.79-1.32-10.26-3.98-2.48-2.69-3.72-6.35-3.72-10.99s1.24-8.29 3.71-10.94c2.48-2.69 5.88-4.03 10.21-4.03m.05 5.92c-1.99 0-3.6.84-4.82 2.51-1.23 1.68-1.84 3.86-1.84 6.55s.61 4.87 1.84 6.55c1.22 1.68 2.82 2.51 4.81 2.51 1.96 0 3.55-.82 4.77-2.46 1.26-1.67 1.88-3.84 1.88-6.49 0-2.79-.61-5.01-1.83-6.65-1.18-1.68-2.79-2.51-4.81-2.51m31.56-4.87v4.87h-4.35V197h-7.33v-22.9h-3.98v-4.87h3.98v-3.41c0-4.71 2.41-7.07 7.23-7.07 1.43 0 2.83.053 4.19.16v5.494c-.63-.1-1.33-.15-2.1-.15-1.32 0-1.99.736-1.99 2.2v2.777h4.35m47.4 1.15h-7.33c-.28-3.98-2.95-5.97-8.01-5.97-2.03 0-3.63.44-4.82 1.31-1.19.84-1.78 1.97-1.78 3.41 0 1.4.5 2.45 1.51 3.14 1.01.67 2.92 1.28 5.71 1.84l5.97 1.15c3.52.7 6.09 1.88 7.7 3.56 1.6 1.64 2.41 3.96 2.41 6.96 0 3.88-1.38 6.92-4.14 9.11-2.76 2.17-6.6 3.25-11.52 3.25-4.89 0-8.69-1.08-11.42-3.24-2.69-2.16-4.16-5.29-4.4-9.37h7.64c.14 2.06.94 3.63 2.41 4.71 1.46 1.08 3.52 1.63 6.17 1.63 2.38 0 4.25-.45 5.61-1.36 1.4-.91 2.1-2.16 2.1-3.77 0-1.53-.54-2.72-1.62-3.56-1.08-.84-2.93-1.5-5.55-1.99l-5.34-1.05c-3.87-.73-6.63-1.89-8.27-3.46-1.64-1.57-2.46-3.84-2.46-6.81 0-3.73 1.25-6.61 3.77-8.64 2.54-2.06 6.11-3.09 10.68-3.09 1.32 0 2.6.09 3.82.27 1.26.18 2.59.54 3.98 1.1 1.4.52 2.6 1.22 3.62 2.1 1.01.84 1.85 2.03 2.51 3.56.7 1.5 1.05 3.25 1.05 5.24m17.43-2.19c1.22 0 2.41.14 3.56.42 1.15.28 2.32.78 3.51 1.52 1.22.74 2.27 1.68 3.14 2.83.91 1.12 1.64 2.62 2.2 4.5.56 1.85.83 3.98.83 6.39 0 .42-.02.84-.05 1.26H432.8c.04 1.08.124 2.03.264 2.83.17.77.45 1.54.834 2.3.42.73 1.017 1.31 1.78 1.73.808.38 1.8.58 2.99.58 2.79 0 4.66-1.19 5.6-3.56h7.224c-.805 2.79-2.39 5.03-4.767 6.7-2.37 1.64-5.15 2.46-8.32 2.46-4.01 0-7.17-1.29-9.48-3.87-2.3-2.62-3.45-6.2-3.45-10.74 0-4.75 1.17-8.49 3.51-11.21 2.34-2.75 5.535-4.13 9.585-4.13m5.6 12.05c-.18-2.06-.75-3.65-1.73-4.77-.946-1.12-2.27-1.67-3.98-1.67-3.215 0-5.065 2.15-5.55 6.44h11.26m12.29-11.58h7.33v5.55c.765-1.92 1.85-3.4 3.244-4.45 1.39-1.05 2.93-1.57 4.6-1.57.32 0 .61.02.89.05v7.44c-.87-.14-1.64-.21-2.3-.21-4.29 0-6.44 2.15-6.44 6.44v15.03h-7.33V168.6m35.38 28.278h-7.69l-9.9-28.278H482l6.125 20.69 5.71-20.68h7.75l-9.74 28.275m20.33-28.28v28.277h-7.33V168.6h7.33m0-9.894v6.544h-7.33v-6.545h7.33m17.743 15.34c-3.98 0-5.97 3.09-5.97 9.27 0 2.76.525 4.92 1.572 6.494 1.08 1.57 2.55 2.35 4.4 2.35 1.43 0 2.55-.39 3.35-1.15.81-.81 1.43-2.12 1.89-3.93h7.01c-.35 3.38-1.64 6.07-3.87 8.06-2.2 1.95-5.01 2.93-8.43 2.93-4.19 0-7.457-1.29-9.796-3.88-2.3-2.59-3.457-6.22-3.457-10.89 0-4.82 1.17-8.56 3.51-11.21 2.33-2.66 5.62-3.98 9.84-3.98 3.52 0 6.37.97 8.53 2.93 2.2 1.95 3.42 4.66 3.664 8.11h-7.01c-.42-1.85-1.03-3.16-1.83-3.93-.76-.81-1.9-1.21-3.4-1.21m28.32-5.91c1.22 0 2.41.14 3.56.42 1.15.28 2.32.78 3.51 1.52 1.22.73 2.27 1.67 3.14 2.82.91 1.12 1.64 2.62 2.2 4.5.56 1.85.84 3.98.84 6.38 0 .42-.02.84-.06 1.26H552.5c.036 1.08.123 2.03.263 2.83.174.77.453 1.54.837 2.31.42.73 1.016 1.31 1.784 1.73.803.38 1.798.57 2.984.57 2.793 0 4.66-1.19 5.603-3.56h7.23c-.8 2.79-2.39 5.02-4.76 6.7-2.37 1.64-5.15 2.46-8.32 2.46-4.01 0-7.17-1.29-9.48-3.88-2.3-2.62-3.45-6.2-3.45-10.74 0-4.75 1.17-8.48 3.51-11.21 2.34-2.75 5.54-4.13 9.59-4.13m5.61 12.04c-.17-2.06-.75-3.65-1.72-4.77-.94-1.12-2.27-1.68-3.98-1.68-3.21 0-5.06 2.15-5.55 6.44h11.25" font-size="19.202" letter-spacing="0" word-spacing="0" font-family="FreeSans" font-weight="bold"/></svg>