<svg xmlns="http://www.w3.org/2000/svg" xmlns:xlink="http://www.w3.org/1999/xlink" width="220" height="194"><defs><radialGradient xlink:href="#a" cx="198.1" cy="329.221" fx="198.1" fy="329.221" r="198.1" gradientTransform="matrix(1 0 0 .379 0 204.579)" gradientUnits="userSpaceOnUse" spreadMethod="pad"/><linearGradient id="a"><stop offset="0" stop-color="#c8c8c8" stop-opacity="0"/><stop offset=".367" stop-color="#c8c8c8" stop-opacity="0"/><stop offset=".934" stop-color="#c8c8c8" stop-opacity=".196"/><stop offset="1" stop-color="#c8c8c8" stop-opacity=".196"/></linearGradient><linearGradient id="b"><stop offset="0" stop-color="#c8c8c8" stop-opacity="0"/><stop offset=".367" stop-color="#c8c8c8" stop-opacity="0"/><stop offset=".934" stop-color="#c8c8c8" stop-opacity=".196"/><stop offset="1" stop-color="#c8c8c8" stop-opacity=".196"/></linearGradient><radialGradient xlink:href="#b" id="c" gradientUnits="userSpaceOnUse" gradientTransform="matrix(.555 0 0 .49 -50 196.017)" spreadMethod="pad" cx="198.1" cy="329.221" fx="198.1" fy="329.221" r="198.1"/></defs><g><path fill="#fff" d="M0 0h220v194H0z"/><path fill="url(#c)" d="M0 0h220v194H0z"/><g transform="matrix(.25 0 0 .25 7.5 26.005)"><rect width="128" height="24" x="50" y="230.221" rx="12" ry="12" fill="#46a546"/><rect ry="12" rx="12" y="262.221" x="50" height="24" width="112.64" fill="#f89406"/><rect width="122.88" height="24" x="50" y="294.221" rx="12" ry="12" fill="#c43c35"/><rect ry="12" rx="12" y="326.221" x="50" height="24" width="76.8" fill="#999"/></g><g style="line-height:89.99999762%" font-size="19.202" letter-spacing="0" word-spacing="0" font-family="FreeSans"><path style="line-height:89.99999762%;-inkscape-font-specification:FreeSans Bold" d="M58 113.56v-14h5.396c1.78 0 3.174.622 4.186 1.863 1.01 1.242 1.517 2.95 1.517 5.127 0 2.177-.513 3.892-1.537 5.147-1.012 1.24-2.4 1.862-4.167 1.862H58m1.786-1.575h3.302c1.383 0 2.433-.46 3.15-1.383.717-.922 1.075-2.266 1.075-4.032 0-1.78-.358-3.13-1.075-4.052-.717-.922-1.767-1.383-3.15-1.383h-3.302v10.85" font-weight="bold"/><path style="line-height:89.99999762%;-inkscape-font-specification:FreeSans" d="M73.048 103.497v10.062h-1.594v-10.063h1.594m0-3.936v2.017h-1.613V99.56h1.613"/><path style="line-height:89.99999762%;-inkscape-font-specification:FreeSans" d="M83.948 99.56v14h-1.42v-1.326c-.436.627-.91 1.076-1.422 1.344-.5.282-1.094.423-1.786.423-1.357 0-2.426-.486-3.206-1.46-.78-.984-1.172-2.328-1.172-4.03 0-1.6.39-2.88 1.172-3.84.793-.974 1.843-1.46 3.15-1.46 1.38 0 2.412.518 3.09 1.555V99.56h1.594m-4.416 5.147c-.87 0-1.575.358-2.113 1.075s-.807 1.658-.807 2.823c0 1.178.27 2.125.806 2.842.537.704 1.247 1.056 2.13 1.056.846 0 1.524-.352 2.036-1.056.512-.704.768-1.64.768-2.804 0-1.203-.256-2.157-.768-2.86-.512-.718-1.197-1.076-2.054-1.076"/><path style="line-height:89.99999762%;-inkscape-font-specification:FreeSans" d="M86.288 103.497h1.48v1.69c.447-.704.927-1.21 1.44-1.517.524-.307 1.158-.46 1.9-.46.973 0 1.747.25 2.323.748.578.5.866 1.165.866 1.997v7.604h-1.594v-6.97c0-.603-.186-1.083-.557-1.44-.37-.36-.877-.54-1.517-.54-.82 0-1.48.315-1.978.942-.5.614-.75 1.434-.75 2.458v5.55H86.29v-10.063"/><path style="line-height:89.99999762%;-inkscape-font-specification:FreeSans" d="M96.862 99.56h1.786v1.94c0 1.575-.596 2.413-1.786 2.516v-.73c.614-.102.92-.678.92-1.728h-.92V99.56"/><path style="line-height:89.99999762%;-inkscape-font-specification:FreeSans" d="M104.748 103.497v1.306h-1.65v6.894c0 .358.056.6.172.73.128.114.364.172.71.172.32 0 .576-.027.768-.078v1.344c-.5.09-.934.135-1.306.135-.627 0-1.107-.14-1.44-.422-.333-.268-.5-.66-.5-1.17v-7.605h-1.362v-1.306h1.363v-2.765h1.594v2.765h1.65"/><path style="line-height:89.99999762%;-inkscape-font-specification:FreeSans" d="M120.814 106.646c.41.18.75.39 1.018.634.282.243.48.518.595.826.128.307.212.595.25.864.038.27.058.59.058.96 0 .115-.006.282-.02.5v.48c0 .524.058.966.173 1.324.115.36.34.653.672.883v.442h-2.17c-.256-.59-.384-1.35-.384-2.286v-1.248c0-.858-.185-1.485-.556-1.882-.372-.41-.954-.614-1.748-.614h-4.608v6.03h-1.786v-14h6.452c1.37 0 2.42.327 3.15.98.74.64 1.113 1.562 1.113 2.765 0 .794-.173 1.453-.52 1.978-.344.525-.908.98-1.69 1.363m.347-3.09c0-.923-.243-1.557-.73-1.902-.486-.346-1.158-.52-2.016-.52h-4.32v4.82h4.32c.947 0 1.64-.19 2.074-.575.448-.385.672-.993.672-1.825"/><path style="line-height:89.99999762%;-inkscape-font-specification:FreeSans" d="M134.062 109.066h-7.412c.013.922.192 1.638.537 2.15.55.87 1.357 1.306 2.42 1.306 1.306 0 2.183-.672 2.63-2.016h1.614c-.204 1.1-.684 1.96-1.44 2.573-.755.614-1.71.92-2.86.92-1.41 0-2.523-.473-3.342-1.42-.82-.96-1.23-2.266-1.23-3.917 0-1.652.417-2.97 1.25-3.956.844-1 1.964-1.498 3.36-1.498.947 0 1.78.236 2.496.71.73.473 1.254 1.12 1.575 1.94.267.703.402 1.772.402 3.206m-7.374-1.306h5.646c.012-.026.02-.064.02-.115 0-.832-.27-1.53-.808-2.093-.537-.576-1.197-.864-1.978-.864-.806 0-1.472.28-1.997.845-.523.55-.818 1.293-.882 2.227"/><path style="line-height:89.99999762%;-inkscape-font-specification:FreeSans" d="M135.96 106.474c.077-2.177 1.42-3.265 4.033-3.265 1.242 0 2.182.236 2.823.71.64.46.96 1.14.96 2.035v5.914c0 .524.288.787.864.787.115 0 .23-.013.345-.04v1.21c-.448.116-.813.174-1.094.174-.51 0-.902-.12-1.17-.364-.256-.23-.417-.602-.48-1.114-1.076.986-2.215 1.48-3.418 1.48-1.012 0-1.818-.27-2.42-.808-.59-.537-.883-1.26-.883-2.17 0-.294.024-.563.076-.806.064-.243.128-.454.192-.634.076-.192.204-.365.384-.518.18-.167.326-.3.44-.403.13-.103.334-.2.616-.288.294-.103.518-.173.672-.212.153-.05.422-.108.806-.172.384-.063.666-.108.845-.134l.96-.134c.63-.077 1.064-.2 1.307-.365.243-.167.365-.416.365-.75v-.42c0-.488-.2-.86-.595-1.115-.384-.256-.935-.384-1.652-.384-.742 0-1.306.147-1.69.44-.384.283-.608.73-.672 1.346h-1.613m3.207 6.125c.883 0 1.607-.23 2.17-.692.563-.474.845-.98.845-1.517v-1.804c-.32.153-.807.28-1.46.384-.64.102-1.196.192-1.67.27-.474.075-.903.26-1.287.556-.384.28-.576.678-.576 1.19 0 .512.172.91.518 1.19.345.282.832.423 1.46.423"/><path style="line-height:89.99999762%;-inkscape-font-specification:FreeSans" d="M154.718 99.56v14h-1.42v-1.326c-.436.627-.91 1.076-1.42 1.344-.5.282-1.096.423-1.787.423-1.356 0-2.425-.486-3.206-1.46-.78-.984-1.17-2.328-1.17-4.03 0-1.6.39-2.88 1.17-3.84.794-.974 1.843-1.46 3.15-1.46 1.382 0 2.412.518 3.09 1.555V99.56h1.594m-4.416 5.147c-.87 0-1.575.358-2.112 1.075-.538.717-.807 1.658-.807 2.823 0 1.178.27 2.125.807 2.842.537.704 1.248 1.056 2.13 1.056.846 0 1.525-.352 2.037-1.056.512-.704.768-1.64.768-2.804 0-1.203-.256-2.157-.768-2.86-.512-.718-1.197-1.076-2.055-1.076"/></g><g style="line-height:89.99999762%" font-size="19.202" letter-spacing="0" word-spacing="0" font-family="FreeSans" font-weight="bold"><path style="line-height:89.99999762%;-inkscape-font-specification:FreeSans Bold" d="M65.124 85.96v11.6h-2.88v-11.6H58v-2.4h11.214v2.4h-4.09"/><path style="line-height:89.99999762%;-inkscape-font-specification:FreeSans Bold" d="M74.205 87.017c.448 0 .883.052 1.306.154.423.103.852.29 1.287.558.448.27.832.614 1.152 1.037.332.41.6.96.806 1.65.204.68.307 1.46.307 2.344 0 .152-.007.306-.02.46h-6.95c.013.396.045.742.096 1.036.063.282.165.564.306.845.154.27.37.48.653.635.293.14.658.21 1.093.21 1.024 0 1.71-.434 2.055-1.305h2.65c-.295 1.024-.877 1.844-1.748 2.458-.87.602-1.888.903-3.053.903-1.472 0-2.63-.473-3.475-1.42-.845-.96-1.268-2.272-1.268-3.937 0-1.74.43-3.11 1.287-4.11.86-1.01 2.03-1.516 3.515-1.516m2.054 4.417c-.065-.756-.276-1.338-.634-1.748-.346-.41-.832-.614-1.46-.614-1.177 0-1.856.787-2.035 2.362h4.13"/><path style="line-height:89.99999762%;-inkscape-font-specification:FreeSans Bold" d="M80.768 87.19h2.688v2.036c.28-.705.678-1.25 1.19-1.633.512-.384 1.076-.576 1.69-.576.115 0 .224.006.327.02v2.726c-.32-.05-.602-.077-.845-.077-1.575 0-2.362.788-2.362 2.362v5.51h-2.688V87.19"/><path style="line-height:89.99999762%;-inkscape-font-specification:FreeSans Bold" d="M88.06 87.19h2.67v1.287c.448-.525.883-.896 1.305-1.114.436-.23.948-.346 1.536-.346 1.358 0 2.3.512 2.824 1.536.768-1.024 1.78-1.536 3.034-1.536 1.037 0 1.843.282 2.42.845.588.563.883 1.35.883 2.362v7.335h-2.688v-6.914c0-.41-.134-.736-.403-.98-.257-.242-.61-.364-1.057-.364-.576 0-1.03.18-1.363.538-.32.358-.48.858-.48 1.498v6.22h-2.688v-6.912c0-.41-.135-.736-.404-.98-.256-.242-.608-.364-1.056-.364-.576 0-1.03.18-1.363.538-.32.358-.48.858-.48 1.498v6.22h-2.69V87.19"/><path style="line-height:89.99999762%;-inkscape-font-specification:FreeSans Bold" d="M106.86 94.544c.09.436.27.768.538 1 .28.23.806.344 1.574.344.627 0 1.114-.09 1.46-.268.358-.18.537-.43.537-.75 0-.204-.07-.37-.212-.498-.128-.128-.36-.244-.69-.346l-3.208-1c-.013 0-.09-.018-.23-.056-.14-.05-.244-.09-.308-.115-.05-.026-.153-.064-.307-.116-.154-.065-.275-.13-.365-.193-.077-.064-.18-.14-.307-.23-.128-.102-.23-.21-.307-.326-.064-.115-.135-.243-.21-.383-.078-.154-.136-.327-.174-.52-.04-.19-.058-.396-.058-.613 0-1.063.378-1.9 1.133-2.516.768-.627 1.81-.94 3.13-.94 1.395 0 2.49.313 3.283.94.794.615 1.204 1.472 1.23 2.573h-2.593c-.013-.933-.66-1.4-1.94-1.4-.473 0-.85.09-1.132.268-.282.167-.423.397-.423.692 0 .204.064.364.192.48.128.102.378.21.75.326l3.398.98c1.357.396 2.035 1.267 2.035 2.61 0 .398-.07.788-.21 1.172-.142.37-.372.743-.692 1.114-.307.37-.775.665-1.402.883-.627.23-1.37.346-2.227.346-3.188 0-4.82-1.15-4.897-3.456h2.63"/><path style="line-height:89.99999762%;-inkscape-font-specification:FreeSans Bold" d="M125.466 87.017c1.626 0 2.887.493 3.783 1.48.908.972 1.362 2.335 1.362 4.09 0 1.663-.46 2.98-1.383 3.954-.922.974-2.17 1.46-3.745 1.46-1.6 0-2.854-.486-3.763-1.46-.91-.984-1.364-2.328-1.364-4.03 0-1.704.455-3.04 1.364-4.014.91-.986 2.157-1.48 3.744-1.48m.02 2.17c-.73 0-1.32.308-1.767.923-.45.613-.673 1.413-.673 2.4 0 .985.224 1.785.672 2.4.447.614 1.035.92 1.765.92.717 0 1.3-.3 1.747-.902.46-.614.692-1.408.692-2.38 0-1.025-.224-1.838-.672-2.44-.436-.614-1.024-.92-1.767-.92"/><path style="line-height:89.99999762%;-inkscape-font-specification:FreeSans Bold" d="M137.06 87.4v1.787h-1.594v8.372h-2.688v-8.373h-1.46V87.4h1.46v-1.247c0-1.728.883-2.592 2.65-2.592.525 0 1.037.02 1.536.06v2.015c-.23-.04-.487-.058-.768-.058-.487 0-.73.27-.73.807V87.4h1.594"/><path style="line-height:89.99999762%;-inkscape-font-specification:FreeSans Bold" d="M154.444 87.824h-2.69c-.1-1.46-1.08-2.19-2.937-2.19-.742 0-1.33.16-1.766.48-.434.308-.652.724-.652 1.25 0 .51.186.895.557 1.15.37.244 1.07.468 2.093.673l2.19.423c1.292.256 2.233.69 2.822 1.305.588.602.883 1.453.883 2.554 0 1.42-.506 2.534-1.517 3.34-1.01.794-2.42 1.19-4.224 1.19-1.793 0-3.188-.396-4.186-1.19-.986-.794-1.524-1.94-1.613-3.437h2.803c.05.755.346 1.33.883 1.728.537.398 1.292.596 2.265.596.87 0 1.555-.166 2.055-.5.512-.332.768-.792.768-1.38 0-.565-.2-1-.595-1.307-.397-.308-1.076-.55-2.036-.73l-1.958-.385c-1.422-.27-2.434-.69-3.035-1.267-.602-.576-.903-1.408-.903-2.496 0-1.37.46-2.426 1.383-3.168.934-.756 2.24-1.133 3.917-1.133.486 0 .954.033 1.402.097.46.064.947.198 1.46.403.51.192.953.448 1.324.768.37.307.678.742.922 1.306.256.55.384 1.19.384 1.92"/><path style="line-height:89.99999762%;-inkscape-font-specification:FreeSans Bold" d="M160.837 87.017c.448 0 .883.052 1.306.154.422.103.85.29 1.286.558.447.27.83.614 1.15 1.037.334.41.603.96.808 1.65.205.68.307 1.46.307 2.344 0 .152-.006.306-.02.46h-6.95c.013.396.045.742.096 1.036.065.282.167.564.308.845.154.27.37.48.653.635.295.14.66.21 1.095.21 1.025 0 1.71-.434 2.055-1.305h2.65c-.295 1.024-.877 1.844-1.747 2.458-.87.602-1.89.903-3.054.903-1.473 0-2.63-.473-3.476-1.42-.845-.96-1.267-2.272-1.267-3.937 0-1.74.428-3.11 1.286-4.11.858-1.01 2.03-1.516 3.514-1.516m2.055 4.417c-.064-.756-.276-1.338-.634-1.748-.346-.41-.832-.614-1.46-.614-1.177 0-1.855.787-2.035 2.362h4.13"/><path style="line-height:89.99999762%;-inkscape-font-specification:FreeSans Bold" d="M167.4 87.19h2.688v2.036c.282-.705.68-1.25 1.19-1.633.513-.384 1.076-.576 1.69-.576.115 0 .224.006.327.02v2.726c-.32-.05-.602-.077-.845-.077-1.575 0-2.362.788-2.362 2.362v5.51H167.4V87.19"/><path style="line-height:89.99999762%;-inkscape-font-specification:FreeSans Bold" d="M180.374 97.56h-2.823l-3.628-10.37h2.842l2.246 7.585 2.093-7.585h2.842l-3.57 10.37"/><path style="line-height:89.99999762%;-inkscape-font-specification:FreeSans Bold" d="M187.83 87.19v10.37h-2.69V87.19h2.69m0-3.63v2.4h-2.69v-2.4h2.69"/><path style="line-height:89.99999762%;-inkscape-font-specification:FreeSans Bold" d="M194.335 89.187c-1.46 0-2.19 1.133-2.19 3.4 0 1.01.193 1.804.577 2.38.396.576.934.864 1.613.864.524 0 .934-.14 1.228-.422.295-.294.525-.774.692-1.44h2.573c-.128 1.242-.602 2.228-1.42 2.957-.808.717-1.838 1.076-3.093 1.076-1.536 0-2.733-.473-3.59-1.42-.845-.948-1.268-2.28-1.268-3.994 0-1.767.43-3.136 1.287-4.11.858-.972 2.06-1.46 3.61-1.46 1.293 0 2.336.36 3.13 1.077.806.716 1.254 1.71 1.344 2.976h-2.573c-.154-.68-.378-1.16-.672-1.44-.282-.296-.698-.443-1.248-.443"/><path style="line-height:89.99999762%;-inkscape-font-specification:FreeSans Bold" d="M204.716 87.017c.448 0 .883.052 1.305.154.424.103.853.29 1.288.558.448.27.832.614 1.152 1.037.333.41.602.96.806 1.65.205.68.308 1.46.308 2.344 0 .152-.006.306-.02.46h-6.95c.012.396.044.742.096 1.036.064.282.166.564.307.845.153.27.37.48.653.635.294.14.66.21 1.094.21 1.024 0 1.71-.434 2.055-1.305h2.65c-.296 1.024-.878 1.844-1.75 2.458-.87.602-1.887.903-3.052.903-1.472 0-2.63-.473-3.475-1.42-.845-.96-1.268-2.272-1.268-3.937 0-1.74.43-3.11 1.287-4.11.857-1.01 2.03-1.516 3.514-1.516m2.054 4.417c-.064-.756-.275-1.338-.633-1.748-.346-.41-.832-.614-1.46-.614-1.177 0-1.856.787-2.035 2.362h4.128"/></g></g></svg>