<svg xmlns="http://www.w3.org/2000/svg" xmlns:xlink="http://www.w3.org/1999/xlink" width="190" height="32"><defs><radialGradient xlink:href="#a" cx="198.1" cy="329.221" fx="198.1" fy="329.221" r="198.1" gradientTransform="matrix(1 0 0 .379 0 204.579)" gradientUnits="userSpaceOnUse" spreadMethod="pad"/><linearGradient id="a"><stop offset="0" stop-color="#c8c8c8" stop-opacity="0"/><stop offset=".367" stop-color="#c8c8c8" stop-opacity="0"/><stop offset=".934" stop-color="#c8c8c8" stop-opacity=".196"/><stop offset="1" stop-color="#c8c8c8" stop-opacity=".196"/></linearGradient></defs><g transform="translate(-50 -322.221)"><rect ry="3" rx="3" y="323.221" x="50" height="6" width="32" fill="#46a546"/><rect width="28.16" height="6" x="50" y="331.221" rx="3" ry="3" fill="#f89406"/><rect ry="3" rx="3" y="339.221" x="50" height="6" width="30.72" fill="#c43c35"/><rect width="19.2" height="6" x="50" y="347.221" rx="3" ry="3" fill="#999"/><g style="line-height:89.99999762%" font-size="19.202" letter-spacing="0" word-spacing="0" font-family="FreeSans"><path style="line-height:89.99999762%;-inkscape-font-specification:FreeSans Bold" d="M88 353.22v-14h5.396c1.78 0 3.175.622 4.186 1.864 1.01 1.242 1.517 2.95 1.517 5.127 0 2.18-.516 3.895-1.54 5.15-1.01 1.24-2.4 1.863-4.167 1.863H88m1.786-1.574h3.303c1.38 0 2.43-.46 3.145-1.384.717-.92 1.075-2.265 1.075-4.032 0-1.78-.357-3.13-1.074-4.05-.717-.92-1.767-1.383-3.15-1.383h-3.302v10.85" font-weight="bold"/><path style="line-height:89.99999762%;-inkscape-font-specification:FreeSans" d="M103.048 343.158v10.062h-1.594v-10.062h1.594m0-3.937v2.02h-1.613v-2.016h1.613m10.9-.003v14h-1.42v-1.324c-.436.627-.91 1.075-1.422 1.344-.5.28-1.094.42-1.786.42-1.357 0-2.425-.487-3.206-1.46-.78-.986-1.172-2.33-1.172-4.033 0-1.6.39-2.88 1.172-3.84.793-.974 1.843-1.46 3.15-1.46 1.38 0 2.412.518 3.09 1.555v-5.204h1.594m-4.416 5.146c-.87 0-1.575.36-2.113 1.076-.54.717-.81 1.657-.81 2.822 0 1.178.27 2.125.806 2.842.537.704 1.248 1.056 2.13 1.056.846 0 1.524-.352 2.036-1.056.512-.704.768-1.638.768-2.803 0-1.202-.255-2.155-.767-2.86-.512-.716-1.197-1.075-2.054-1.075m6.757-1.206h1.48v1.69c.447-.706.927-1.21 1.44-1.52.524-.306 1.158-.46 1.9-.46.973 0 1.748.25 2.324.75.577.5.865 1.164.865 1.997v7.604H122.7v-6.97c0-.6-.185-1.082-.556-1.44-.37-.36-.877-.54-1.517-.54-.82 0-1.478.316-1.978.943-.5.615-.75 1.434-.75 2.458v5.55h-1.613v-10.06m10.574-3.94h1.787v1.94c0 1.576-.596 2.415-1.786 2.517v-.73c.615-.102.923-.678.923-1.728h-.922v-1.998m7.887 3.938v1.305h-1.65v6.894c0 .357.057.6.172.73.127.114.364.17.71.17.32 0 .575-.027.767-.08v1.346c-.5.09-.934.134-1.305.134-.628 0-1.108-.14-1.44-.42-.333-.27-.5-.66-.5-1.174v-7.604h-1.363v-1.305h1.362v-2.765h1.594v2.765h1.65m16.068 3.15c.41.18.748.39 1.017.633.283.244.48.52.597.826.128.307.21.595.25.864.038.27.057.59.057.96 0 .116-.006.282-.02.5v.48c0 .525.058.966.173 1.325.116.358.34.652.672.883v.442h-2.17c-.256-.59-.384-1.35-.384-2.286v-1.248c0-.857-.186-1.485-.557-1.88-.373-.41-.955-.616-1.75-.616h-4.607v6.03h-1.786v-14h6.452c1.37 0 2.42.328 3.15.98.74.64 1.112 1.562 1.112 2.766 0 .793-.173 1.453-.52 1.977-.344.525-.908.98-1.688 1.364m.345-3.092c0-.92-.244-1.555-.73-1.9-.487-.346-1.16-.52-2.017-.52h-4.32v4.82h4.32c.948 0 1.64-.192 2.074-.576.448-.388.672-.996.672-1.828m12.9 5.513h-7.41c.012.922.19 1.64.537 2.15.55.87 1.357 1.307 2.42 1.307 1.305 0 2.182-.672 2.63-2.017h1.613c-.202 1.1-.682 1.96-1.44 2.573-.753.612-1.706.92-2.86.92-1.41 0-2.52-.474-3.34-1.42-.82-.96-1.23-2.268-1.23-3.92 0-1.65.417-2.97 1.25-3.955.844-.998 1.965-1.497 3.36-1.497.947 0 1.78.235 2.496.71.73.473 1.255 1.12 1.575 1.94.27.703.404 1.77.404 3.205m-7.374-1.305h5.645c.013-.026.02-.065.02-.116 0-.83-.27-1.53-.807-2.093-.538-.575-1.197-.863-1.978-.863-.81 0-1.474.282-2 .845-.524.55-.82 1.292-.883 2.226m9.273-1.283c.077-2.176 1.422-3.264 4.033-3.264 1.242 0 2.183.235 2.823.71.64.46.96 1.14.96 2.035v5.914c0 .524.288.786.864.786.115 0 .23-.013.346-.038v1.206c-.448.116-.813.173-1.095.173-.51 0-.9-.12-1.17-.365-.253-.23-.413-.6-.48-1.113-1.073.984-2.212 1.477-3.415 1.477-1.012 0-1.818-.267-2.42-.804-.59-.538-.883-1.26-.883-2.17 0-.295.026-.563.077-.807.063-.245.127-.456.19-.635.077-.19.205-.364.384-.52.18-.164.326-.3.44-.4.13-.103.334-.2.616-.29.293-.1.517-.172.67-.21.155-.05.423-.11.808-.173.384-.062.665-.107.844-.132l.963-.136c.627-.078 1.062-.2 1.305-.366.243-.167.365-.417.365-.75v-.42c0-.49-.198-.86-.595-1.116-.384-.255-.935-.383-1.652-.383-.742 0-1.305.147-1.69.442-.383.28-.607.73-.67 1.343h-1.614m3.207 6.125c.885 0 1.608-.23 2.17-.69.564-.474.846-.98.846-1.518v-1.804c-.32.154-.806.282-1.46.384-.64.103-1.196.192-1.67.27-.474.076-.902.26-1.286.556-.385.282-.577.678-.577 1.19 0 .513.172.91.518 1.19.348.283.834.423 1.46.423m15.55-13.04v14h-1.42v-1.325c-.436.628-.91 1.076-1.42 1.345-.5.28-1.097.42-1.788.42-1.354 0-2.423-.487-3.204-1.46-.78-.986-1.17-2.33-1.17-4.033 0-1.6.39-2.88 1.17-3.84.794-.974 1.844-1.46 3.15-1.46 1.382 0 2.412.518 3.09 1.555v-5.204h1.595m-4.417 5.146c-.87 0-1.574.36-2.112 1.075-.537.717-.805 1.657-.805 2.822 0 1.178.267 2.125.805 2.842.54.703 1.25 1.055 2.13 1.055.847 0 1.526-.352 2.038-1.056.512-.705.768-1.64.768-2.804 0-1.203-.255-2.156-.767-2.86-.512-.717-1.197-1.076-2.055-1.076"/></g><path style="line-height:89.99999762%;-inkscape-font-specification:FreeSans Bold" d="M95.124 325.622v11.598h-2.88v-11.598H88v-2.4h11.214v2.4h-4.09m9.08 1.056c.45 0 .884.05 1.307.154.426.102.855.288 1.29.556.448.27.83.615 1.15 1.037.334.41.6.96.808 1.652.205.678.307 1.46.307 2.342 0 .15-.006.303-.02.46h-6.95c.013.394.045.74.096 1.034.063.282.165.563.306.845.154.27.37.48.653.633.292.14.657.212 1.092.212 1.026 0 1.71-.436 2.057-1.306h2.65c-.296 1.024-.878 1.843-1.75 2.46-.87.6-1.89.9-3.053.9-1.472 0-2.63-.473-3.475-1.42-.844-.96-1.266-2.273-1.266-3.937 0-1.74.428-3.11 1.286-4.11.86-1.01 2.03-1.516 3.514-1.516m2.055 4.416c-.065-.755-.277-1.337-.635-1.747-.346-.41-.832-.615-1.46-.615-1.177 0-1.856.79-2.035 2.363h4.13m4.508-4.244h2.688v2.035c.282-.704.678-1.248 1.19-1.632.512-.384 1.076-.576 1.69-.576.115 0 .224.006.327.02v2.726c-.32-.05-.602-.077-.845-.077-1.575 0-2.362.787-2.362 2.362v5.51h-2.688v-10.37m7.292 0h2.67v1.287c.448-.525.883-.896 1.305-1.113.436-.23.948-.346 1.537-.346 1.357 0 2.297.512 2.822 1.536.768-1.024 1.78-1.536 3.034-1.536 1.037 0 1.843.282 2.42.845.588.564.883 1.35.883 2.363v7.335h-2.684v-6.913c0-.41-.135-.736-.404-.98-.256-.243-.61-.364-1.056-.364-.576 0-1.03.18-1.363.54-.32.36-.48.86-.48 1.5v6.22h-2.687v-6.91c0-.41-.135-.738-.404-.98-.257-.245-.61-.366-1.057-.366-.576 0-1.03.18-1.363.538-.32.36-.48.858-.48 1.498v6.223h-2.69v-10.37m18.8 7.352c.09.435.27.768.538.998.28.23.806.346 1.574.346.627 0 1.114-.09 1.46-.27.358-.18.537-.43.537-.75 0-.206-.07-.37-.213-.5-.128-.13-.358-.244-.69-.347l-3.208-.998c-.015 0-.09-.02-.23-.058-.14-.05-.246-.09-.31-.116-.05-.024-.153-.063-.307-.114-.153-.065-.275-.13-.365-.193-.077-.064-.18-.14-.308-.23-.13-.103-.23-.212-.308-.327-.064-.114-.135-.242-.21-.383-.078-.154-.136-.326-.174-.518-.04-.194-.057-.4-.057-.617 0-1.063.38-1.9 1.135-2.516.768-.628 1.81-.942 3.13-.942 1.395 0 2.49.314 3.283.94.793.615 1.203 1.473 1.23 2.574h-2.594c-.013-.935-.66-1.402-1.94-1.402-.473 0-.85.09-1.132.27-.28.165-.422.396-.422.69 0 .205.065.365.193.48.13.103.38.21.75.327l3.4.98c1.357.396 2.035 1.266 2.035 2.61 0 .397-.07.79-.21 1.172-.142.37-.372.74-.692 1.112-.307.37-.775.665-1.402.883-.626.23-1.37.345-2.226.345-3.188 0-4.82-1.15-4.897-3.455h2.63m18.61-7.52c1.626 0 2.887.493 3.783 1.478.906.973 1.36 2.337 1.36 4.09 0 1.664-.46 2.983-1.38 3.956-.924.974-2.17 1.46-3.747 1.46-1.6 0-2.854-.486-3.763-1.46-.91-.985-1.363-2.33-1.363-4.03 0-1.704.455-3.04 1.364-4.015.91-.985 2.16-1.478 3.746-1.478m.02 2.17c-.73 0-1.32.307-1.767.92-.45.616-.674 1.416-.674 2.402 0 .984.223 1.784.67 2.4.448.613 1.037.92 1.766.92.717 0 1.3-.3 1.748-.9.46-.617.69-1.41.69-2.383 0-1.024-.222-1.837-.67-2.44-.435-.613-1.024-.92-1.767-.92m11.577-1.786v1.787h-1.594v8.372h-2.688v-8.373h-1.46v-1.786h1.46v-1.247c0-1.728.883-2.592 2.65-2.592.525 0 1.037.02 1.536.058v2.013c-.23-.037-.486-.056-.768-.056-.487 0-.73.27-.73.806v1.018h1.594m17.384.424h-2.688c-.103-1.46-1.082-2.19-2.938-2.19-.743 0-1.332.16-1.767.48-.432.31-.65.725-.65 1.25 0 .512.186.896.557 1.152.37.243 1.07.467 2.093.672l2.19.422c1.29.256 2.232.69 2.82 1.306.59.6.884 1.453.884 2.554 0 1.42-.507 2.534-1.518 3.34-1.01.794-2.42 1.19-4.224 1.19-1.792 0-3.188-.396-4.186-1.19-.986-.793-1.524-1.94-1.613-3.436h2.802c.05.755.346 1.33.884 1.728.54.397 1.294.595 2.267.595.87 0 1.556-.166 2.055-.5.513-.332.77-.793.77-1.382 0-.563-.2-.998-.596-1.305-.397-.308-1.076-.55-2.036-.73l-1.958-.384c-1.422-.27-2.433-.69-3.035-1.267-.602-.58-.903-1.41-.903-2.5 0-1.37.46-2.425 1.383-3.168.934-.756 2.24-1.134 3.917-1.134.487 0 .954.032 1.402.096.46.064.947.2 1.46.403.51.19.953.447 1.324.767.37.308.678.743.922 1.306.256.55.384 1.19.384 1.92m6.39-.805c.45 0 .885.05 1.307.154.42.102.85.288 1.285.556.446.27.83.615 1.15 1.037.332.41.6.96.806 1.652.206.678.308 1.46.308 2.342 0 .15-.006.304-.02.46h-6.95c.013.395.045.74.096 1.035.064.28.167.562.307.844.155.27.373.48.654.634.297.14.66.212 1.097.212 1.025 0 1.71-.436 2.055-1.306h2.65c-.292 1.025-.875 1.844-1.745 2.46-.87.6-1.888.9-3.053.9-1.47 0-2.63-.472-3.475-1.42-.845-.96-1.267-2.272-1.267-3.936 0-1.74.43-3.11 1.286-4.11.86-1.01 2.03-1.516 3.515-1.516m2.055 4.416c-.064-.755-.275-1.337-.634-1.747-.345-.41-.832-.614-1.46-.614-1.177 0-1.855.788-2.035 2.362h4.13m4.506-4.244h2.688v2.036c.282-.704.68-1.248 1.19-1.632.513-.384 1.076-.576 1.69-.576.116 0 .225.006.327.02v2.726c-.32-.05-.6-.077-.844-.077-1.574 0-2.362.788-2.362 2.363v5.51H197.4v-10.37m12.974 10.37h-2.823l-3.625-10.37h2.842l2.247 7.585 2.094-7.584h2.842l-3.573 10.37m7.453-10.37v10.37h-2.69v-10.37h2.69m0-3.628v2.4h-2.69v-2.4h2.69m6.505 5.626c-1.46 0-2.19 1.133-2.19 3.398 0 1.012.193 1.805.577 2.38.397.577.934.865 1.613.865.525 0 .934-.14 1.23-.42.293-.293.524-.773.69-1.44h2.573c-.128 1.24-.602 2.228-1.42 2.958-.807.717-1.838 1.075-3.092 1.075-1.537 0-2.733-.472-3.59-1.42-.846-.947-1.268-2.278-1.268-3.994 0-1.767.428-3.137 1.286-4.11.858-.973 2.06-1.46 3.61-1.46 1.293 0 2.336.36 3.13 1.076.806.717 1.254 1.71 1.344 2.976h-2.573c-.154-.68-.378-1.16-.672-1.44-.282-.294-.698-.44-1.248-.44m10.38-2.174c.45 0 .884.05 1.307.154.422.102.85.288 1.286.556.448.27.832.615 1.152 1.037.333.41.602.96.807 1.65.205.68.307 1.46.307 2.343 0 .15-.006.304-.02.46h-6.95c.013.395.045.74.096 1.035.064.282.166.563.307.845.154.27.37.48.653.634.294.14.66.212 1.094.212 1.024 0 1.71-.437 2.055-1.307h2.65c-.3 1.025-.88 1.844-1.75 2.46-.87.6-1.89.9-3.055.9-1.472 0-2.63-.472-3.475-1.42-.844-.96-1.266-2.272-1.266-3.936 0-1.74.428-3.11 1.286-4.11.86-1.01 2.03-1.516 3.515-1.516m2.055 4.417c-.063-.755-.275-1.337-.633-1.747-.346-.41-.832-.615-1.46-.615-1.177 0-1.856.788-2.035 2.362h4.13" font-size="19.202" letter-spacing="0" word-spacing="0" font-family="FreeSans" font-weight="bold"/></g></svg>