<svg xmlns="http://www.w3.org/2000/svg" xmlns:xlink="http://www.w3.org/1999/xlink" width="190" height="32"><defs><radialGradient xlink:href="#a" cx="198.1" cy="329.221" fx="198.1" fy="329.221" r="198.1" gradientTransform="matrix(1 0 0 .379 0 204.579)" gradientUnits="userSpaceOnUse" spreadMethod="pad"/><linearGradient id="a"><stop offset="0" stop-color="#c8c8c8" stop-opacity="0"/><stop offset=".367" stop-color="#c8c8c8" stop-opacity="0"/><stop offset=".934" stop-color="#c8c8c8" stop-opacity=".196"/><stop offset="1" stop-color="#c8c8c8" stop-opacity=".196"/></linearGradient></defs><g transform="translate(-50 -322.221)"><rect ry="3" rx="3" y="323.221" x="50" height="6" width="32" fill="#46a546"/><rect width="28.16" height="6" x="50" y="331.221" rx="3" ry="3" fill="#f89406"/><rect ry="3" rx="3" y="339.221" x="50" height="6" width="30.72" fill="#c43c35"/><rect width="19.2" height="6" x="50" y="347.221" rx="3" ry="3" fill="#999"/><g style="line-height:89.99999762%" font-size="19.202" letter-spacing="0" word-spacing="0" font-family="FreeSans"><path style="line-height:89.99999762%;-inkscape-font-specification:FreeSans Bold" d="M88 353.22v-14h5.396c1.78 0 3.175.622 4.186 1.864 1.01 1.242 1.517 2.95 1.517 5.127 0 2.178-.514 3.893-1.538 5.148-1.012 1.242-2.4 1.863-4.167 1.863H88m1.786-1.574h3.303c1.38 0 2.43-.46 3.147-1.383.717-.92 1.075-2.265 1.075-4.032 0-1.78-.358-3.13-1.075-4.05-.717-.92-1.767-1.383-3.15-1.383h-3.302v10.85" font-weight="bold"/><path style="line-height:89.99999762%;-inkscape-font-specification:FreeSans" d="M103.048 343.158v10.062h-1.594v-10.062h1.594m0-3.937v2.018h-1.613v-2.016h1.613M113.948 339.22v14h-1.42v-1.325c-.436.627-.91 1.075-1.422 1.344-.5.28-1.094.42-1.786.42-1.357 0-2.425-.486-3.206-1.46-.78-.985-1.172-2.33-1.172-4.032 0-1.6.39-2.88 1.172-3.84.793-.974 1.843-1.46 3.15-1.46 1.38 0 2.412.518 3.09 1.555v-5.204h1.594m-4.416 5.146c-.87 0-1.575.36-2.113 1.076-.54.717-.808 1.657-.808 2.822 0 1.178.27 2.125.806 2.842.537.704 1.248 1.056 2.13 1.056.846 0 1.524-.352 2.036-1.056.512-.704.768-1.638.768-2.803 0-1.204-.256-2.157-.768-2.86-.512-.718-1.197-1.077-2.054-1.077M116.288 343.158h1.48v1.69c.447-.705.927-1.21 1.44-1.518.524-.307 1.158-.46 1.9-.46.973 0 1.748.25 2.324.748.576.5.864 1.165.864 1.998v7.604h-1.594v-6.97c0-.602-.186-1.083-.557-1.44-.37-.36-.877-.54-1.517-.54-.82 0-1.478.315-1.978.942-.5.615-.75 1.434-.75 2.458v5.55h-1.612v-10.062M126.862 339.22h1.786v1.94c0 1.575-.596 2.414-1.786 2.516v-.73c.614-.102.922-.678.922-1.728h-.922v-1.997M134.748 343.158v1.305h-1.65v6.894c0 .358.057.602.172.73.128.115.365.172.71.172.32 0 .576-.027.768-.078v1.344c-.5.09-.934.134-1.305.134-.628 0-1.108-.14-1.44-.42-.333-.27-.5-.66-.5-1.173v-7.604h-1.363v-1.305h1.363v-2.765h1.594v2.765h1.65M150.815 346.307c.41.18.748.39 1.017.633.282.244.48.52.596.826.128.307.21.595.25.864.038.27.057.59.057.96 0 .116-.006.282-.02.5v.48c0 .525.058.966.173 1.325.116.358.34.652.672.883v.442h-2.17c-.255-.59-.383-1.35-.383-2.286v-1.248c0-.857-.186-1.485-.557-1.88-.372-.41-.954-.616-1.748-.616h-4.608v6.03h-1.786v-14h6.452c1.37 0 2.42.328 3.15.98.742.64 1.113 1.562 1.113 2.766 0 .793-.173 1.453-.52 1.977-.344.525-.908.98-1.688 1.364m.345-3.092c0-.92-.243-1.555-.73-1.9-.486-.346-1.158-.52-2.016-.52h-4.32v4.82h4.32c.948 0 1.64-.192 2.074-.576.448-.386.672-.994.672-1.826M164.062 348.726h-7.412c.013.922.192 1.64.538 2.15.55.87 1.357 1.307 2.42 1.307 1.305 0 2.182-.672 2.63-2.017h1.613c-.203 1.1-.683 1.96-1.44 2.573-.754.613-1.707.92-2.86.92-1.41 0-2.52-.473-3.34-1.42-.82-.96-1.23-2.267-1.23-3.918 0-1.65.416-2.97 1.25-3.956.843-.998 1.964-1.497 3.36-1.497.946 0 1.78.235 2.495.71.73.473 1.255 1.12 1.575 1.94.268.703.402 1.77.402 3.205m-7.374-1.306h5.646c.013-.026.02-.065.02-.116 0-.832-.27-1.53-.807-2.093-.538-.575-1.197-.863-1.978-.863-.81 0-1.474.282-2 .845-.524.55-.82 1.293-.883 2.227M165.96 346.134c.077-2.176 1.422-3.264 4.033-3.264 1.242 0 2.183.236 2.823.71.64.46.96 1.14.96 2.036v5.914c0 .525.288.787.864.787.115 0 .23-.013.346-.038v1.207c-.448.116-.813.173-1.095.173-.51 0-.9-.12-1.17-.364-.255-.23-.415-.6-.48-1.113-1.075.985-2.214 1.478-3.417 1.478-1.012 0-1.818-.267-2.42-.804-.59-.538-.883-1.26-.883-2.17 0-.295.025-.563.076-.807.064-.244.128-.455.192-.634.077-.192.205-.365.384-.52.18-.165.326-.3.44-.402.13-.102.334-.198.616-.288.294-.102.518-.173.672-.21.154-.052.422-.11.807-.174.384-.063.665-.108.844-.133l.963-.136c.627-.077 1.062-.198 1.305-.365.243-.167.365-.417.365-.75v-.42c0-.49-.198-.86-.595-1.116-.384-.256-.935-.384-1.652-.384-.742 0-1.305.147-1.69.442-.383.28-.607.73-.67 1.344h-1.614m3.207 6.125c.883 0 1.606-.23 2.17-.69.562-.474.844-.98.844-1.518v-1.804c-.32.154-.806.282-1.46.384-.64.103-1.196.192-1.67.27-.474.076-.902.26-1.286.556-.384.282-.576.678-.576 1.19 0 .513.172.91.518 1.19.346.283.832.423 1.46.423M184.72 339.22v14h-1.422v-1.325c-.435.627-.91 1.075-1.42 1.344-.5.28-1.096.42-1.787.42-1.355 0-2.424-.486-3.205-1.46-.78-.985-1.17-2.33-1.17-4.032 0-1.6.39-2.88 1.17-3.84.794-.974 1.844-1.46 3.15-1.46 1.382 0 2.412.518 3.09 1.555v-5.204h1.595m-4.418 5.146c-.87 0-1.574.36-2.112 1.076-.538.717-.806 1.657-.806 2.822 0 1.178.268 2.125.806 2.842.538.704 1.248 1.056 2.13 1.056.846 0 1.525-.352 2.037-1.056.512-.704.768-1.638.768-2.803 0-1.204-.256-2.157-.768-2.86-.512-.718-1.197-1.077-2.055-1.077"/></g><g style="line-height:89.99999762%" font-size="19.202" letter-spacing="0" word-spacing="0" font-family="FreeSans" font-weight="bold"><path style="line-height:89.99999762%;-inkscape-font-specification:FreeSans Bold" d="M95.124 325.622v11.598h-2.88v-11.598H88v-2.4h11.214v2.4h-4.09M104.205 326.678c.448 0 .883.05 1.306.154.424.102.853.288 1.288.556.448.27.832.615 1.152 1.037.332.41.6.96.806 1.652.205.678.307 1.46.307 2.342 0 .152-.006.305-.02.46h-6.95c.013.396.045.74.096 1.036.062.282.164.563.305.845.154.27.37.48.653.634.293.14.658.212 1.093.212 1.025 0 1.71-.436 2.056-1.306h2.65c-.295 1.025-.877 1.844-1.748 2.46-.87.6-1.888.9-3.053.9-1.472 0-2.63-.472-3.475-1.42-.845-.96-1.267-2.272-1.267-3.936 0-1.74.428-3.11 1.286-4.11.86-1.01 2.03-1.516 3.514-1.516m2.055 4.416c-.065-.755-.277-1.337-.635-1.747-.346-.41-.832-.615-1.46-.615-1.177 0-1.856.788-2.035 2.362h4.13M110.768 326.85h2.688v2.036c.282-.704.678-1.248 1.19-1.632.512-.384 1.076-.576 1.69-.576.115 0 .224.006.327.02v2.726c-.32-.05-.602-.077-.845-.077-1.575 0-2.362.787-2.362 2.362v5.51h-2.688v-10.37M118.06 326.85h2.67v1.287c.448-.525.883-.896 1.305-1.113.436-.23.948-.346 1.537-.346 1.357 0 2.297.512 2.822 1.536.768-1.024 1.78-1.536 3.034-1.536 1.037 0 1.843.282 2.42.845.588.563.883 1.35.883 2.362v7.335h-2.686v-6.913c0-.41-.135-.736-.404-.98-.257-.243-.61-.364-1.057-.364-.576 0-1.03.18-1.363.538-.32.36-.48.86-.48 1.5v6.22h-2.688v-6.912c0-.41-.135-.736-.404-.98-.256-.243-.608-.364-1.056-.364-.576 0-1.03.18-1.363.538-.32.36-.48.858-.48 1.498v6.222h-2.69v-10.37M136.86 334.205c.09.435.27.768.538.998.28.23.806.346 1.574.346.627 0 1.114-.09 1.46-.27.358-.18.537-.43.537-.75 0-.204-.07-.37-.213-.5-.128-.127-.358-.242-.69-.345l-3.208-.998c-.014 0-.09-.02-.23-.058-.14-.05-.245-.09-.31-.116-.05-.025-.152-.064-.306-.115-.153-.065-.275-.13-.365-.193-.077-.064-.18-.14-.308-.23-.128-.103-.23-.212-.307-.327-.064-.114-.135-.242-.21-.383-.078-.154-.136-.326-.174-.518-.04-.194-.057-.4-.057-.617 0-1.062.378-1.9 1.133-2.515.768-.628 1.81-.942 3.13-.942 1.395 0 2.49.314 3.283.94.793.615 1.203 1.473 1.23 2.574h-2.594c-.013-.935-.66-1.402-1.94-1.402-.473 0-.85.09-1.132.27-.282.165-.423.396-.423.69 0 .205.065.365.193.48.128.103.378.21.75.327l3.398.98c1.358.396 2.036 1.266 2.036 2.61 0 .397-.07.788-.21 1.172-.142.37-.372.74-.692 1.112-.307.37-.775.665-1.402.883-.627.23-1.37.345-2.227.345-3.188 0-4.82-1.15-4.897-3.455h2.63M155.466 326.678c1.626 0 2.887.493 3.783 1.478.907.973 1.36 2.337 1.36 4.09 0 1.664-.46 2.983-1.38 3.956-.923.973-2.17 1.46-3.746 1.46-1.6 0-2.854-.487-3.763-1.46-.91-.986-1.363-2.33-1.363-4.032 0-1.703.455-3.04 1.364-4.014.91-.985 2.158-1.478 3.745-1.478m.02 2.17c-.73 0-1.32.307-1.767.92-.45.616-.673 1.416-.673 2.402 0 .985.224 1.785.672 2.4.447.614 1.036.92 1.765.92.717 0 1.3-.3 1.748-.9.46-.616.69-1.41.69-2.382 0-1.024-.223-1.837-.67-2.44-.436-.613-1.025-.92-1.768-.92M167.06 327.062v1.786h-1.594v8.372h-2.688v-8.372h-1.46v-1.786h1.46v-1.248c0-1.728.883-2.592 2.65-2.592.525 0 1.037.02 1.536.057v2.014c-.23-.038-.486-.057-.768-.057-.487 0-.73.27-.73.806v1.018h1.594M184.444 327.484h-2.688c-.103-1.46-1.082-2.19-2.938-2.19-.743 0-1.332.16-1.767.48-.433.31-.65.725-.65 1.25 0 .512.185.896.556 1.152.37.243 1.07.467 2.093.672l2.19.422c1.29.256 2.232.69 2.82 1.306.59.6.884 1.453.884 2.554 0 1.42-.506 2.534-1.517 3.34-1.01.794-2.42 1.19-4.224 1.19-1.792 0-3.188-.396-4.186-1.19-.986-.793-1.524-1.94-1.613-3.436h2.803c.05.755.346 1.33.884 1.728.538.397 1.293.595 2.266.595.87 0 1.556-.166 2.055-.5.513-.332.77-.793.77-1.382 0-.563-.2-.998-.596-1.305-.397-.308-1.076-.55-2.036-.73l-1.958-.384c-1.422-.27-2.433-.69-3.035-1.267-.602-.578-.903-1.41-.903-2.5 0-1.37.46-2.424 1.383-3.167.934-.755 2.24-1.133 3.917-1.133.487 0 .954.033 1.402.097.46.064.947.2 1.46.403.51.192.953.448 1.324.768.37.308.678.743.922 1.306.256.55.384 1.19.384 1.92M190.837 326.678c.448 0 .884.05 1.306.154.422.102.85.288 1.286.556.447.27.83.615 1.15 1.037.333.41.6.96.807 1.652.205.678.307 1.46.307 2.342 0 .152-.006.305-.02.46h-6.95c.013.396.045.74.096 1.036.065.282.168.563.308.845.154.27.372.48.653.634.297.14.66.212 1.097.212 1.024 0 1.71-.436 2.054-1.306h2.65c-.293 1.025-.876 1.844-1.746 2.46-.87.6-1.888.9-3.053.9-1.47 0-2.63-.472-3.475-1.42-.845-.96-1.267-2.272-1.267-3.936 0-1.74.43-3.11 1.286-4.11.858-1.01 2.03-1.516 3.514-1.516m2.055 4.416c-.064-.755-.275-1.337-.634-1.747-.346-.41-.833-.615-1.46-.615-1.178 0-1.856.788-2.036 2.362h4.13M197.4 326.85h2.688v2.036c.282-.704.68-1.248 1.19-1.632.513-.384 1.076-.576 1.69-.576.116 0 .225.006.327.02v2.726c-.32-.05-.602-.077-.845-.077-1.574 0-2.362.787-2.362 2.362v5.51H197.4v-10.37M210.374 337.22h-2.823l-3.627-10.37h2.842l2.247 7.585 2.094-7.584h2.842l-3.572 10.37M217.83 326.85v10.37h-2.69v-10.37h2.69m0-3.628v2.4h-2.69v-2.4h2.69M224.335 328.848c-1.46 0-2.19 1.133-2.19 3.398 0 1.012.193 1.805.577 2.38.397.577.934.865 1.613.865.525 0 .934-.14 1.23-.42.293-.294.524-.774.69-1.44h2.573c-.128 1.24-.602 2.227-1.42 2.957-.807.717-1.838 1.075-3.092 1.075-1.537 0-2.733-.472-3.59-1.42-.846-.947-1.268-2.278-1.268-3.994 0-1.766.428-3.136 1.286-4.11.858-.972 2.06-1.458 3.61-1.458 1.293 0 2.336.358 3.13 1.075.806.717 1.254 1.71 1.344 2.976h-2.573c-.154-.68-.378-1.16-.672-1.44-.282-.294-.698-.44-1.248-.44M234.716 326.678c.448 0 .883.05 1.306.154.422.102.85.288 1.286.556.448.27.832.615 1.152 1.037.333.41.602.96.807 1.652.205.678.307 1.46.307 2.342 0 .152-.006.305-.02.46h-6.95c.013.396.045.74.096 1.036.064.282.166.563.307.845.154.27.37.48.653.634.294.14.66.212 1.094.212 1.024 0 1.71-.436 2.055-1.306h2.65c-.297 1.025-.88 1.844-1.75 2.46-.87.6-1.888.9-3.053.9-1.472 0-2.63-.472-3.475-1.42-.845-.96-1.267-2.272-1.267-3.936 0-1.74.428-3.11 1.286-4.11.86-1.01 2.03-1.516 3.515-1.516m2.055 4.416c-.063-.755-.275-1.337-.633-1.747-.346-.41-.832-.615-1.46-.615-1.177 0-1.856.788-2.035 2.362h4.13"/></g></g></svg>