<svg xmlns="http://www.w3.org/2000/svg" xmlns:xlink="http://www.w3.org/1999/xlink" width="220" height="194"><defs><radialGradient xlink:href="#a" cx="198.1" cy="329.221" fx="198.1" fy="329.221" r="198.1" gradientTransform="matrix(1 0 0 .379 0 204.579)" gradientUnits="userSpaceOnUse" spreadMethod="pad"/><linearGradient id="a"><stop offset="0" stop-color="#c8c8c8" stop-opacity="0"/><stop offset=".367" stop-color="#c8c8c8" stop-opacity="0"/><stop offset=".934" stop-color="#c8c8c8" stop-opacity=".196"/><stop offset="1" stop-color="#c8c8c8" stop-opacity=".196"/></linearGradient><linearGradient id="b"><stop offset="0" stop-color="#c8c8c8" stop-opacity="0"/><stop offset=".367" stop-color="#c8c8c8" stop-opacity="0"/><stop offset=".934" stop-color="#c8c8c8" stop-opacity=".196"/><stop offset="1" stop-color="#c8c8c8" stop-opacity=".196"/></linearGradient><radialGradient xlink:href="#b" id="c" gradientUnits="userSpaceOnUse" gradientTransform="matrix(.555 0 0 .49 -50 196.017)" spreadMethod="pad" cx="198.1" cy="329.221" fx="198.1" fy="329.221" r="198.1"/></defs><path fill="#fff" d="M0 0h220v194H0z"/><path fill="url(#c)" d="M0 0h220v194H0z"/><g transform="matrix(.25 0 0 .25 7.5 26.005)"><rect width="128" height="24" x="50" y="230.221" rx="12" ry="12" fill="#46a546"/><rect ry="12" rx="12" y="262.221" x="50" height="24" width="112.64" fill="#f89406"/><rect width="122.88" height="24" x="50" y="294.221" rx="12" ry="12" fill="#c43c35"/><rect ry="12" rx="12" y="326.221" x="50" height="24" width="76.8" fill="#999"/></g><g style="line-height:89.99999762%" font-size="19.202" letter-spacing="0" word-spacing="0" font-family="FreeSans"><path style="line-height:89.99999762%;-inkscape-font-specification:FreeSans Bold" d="M58 113.56v-14h5.396c1.78 0 3.174.622 4.186 1.863 1.01 1.242 1.517 2.95 1.517 5.127 0 2.177-.517 3.892-1.54 5.147-1.01 1.24-2.4 1.862-4.168 1.862H58m1.786-1.58h3.302c1.383 0 2.433-.46 3.15-1.382.717-.92 1.075-2.266 1.075-4.03 0-1.78-.358-3.13-1.075-4.054-.717-.922-1.767-1.383-3.15-1.383h-3.302v10.85" font-weight="bold"/><path style="line-height:89.99999762%;-inkscape-font-specification:FreeSans" d="M73.048 103.497v10.062h-1.594v-10.067h1.594m0-3.936v2.016h-1.613V99.56h1.613m10.9 0v14h-1.42v-1.326c-.436.627-.91 1.076-1.422 1.344-.5.282-1.094.423-1.786.423-1.357 0-2.426-.482-3.206-1.46-.78-.98-1.172-2.324-1.172-4.03 0-1.6.39-2.88 1.172-3.84.793-.97 1.843-1.46 3.15-1.46 1.38 0 2.412.52 3.09 1.56v-5.21h1.594m-4.416 5.147c-.87 0-1.575.358-2.113 1.075s-.81 1.658-.81 2.823c0 1.178.27 2.125.805 2.842.537.704 1.247 1.056 2.13 1.056.846 0 1.524-.352 2.036-1.056.513-.704.77-1.64.77-2.804 0-1.203-.256-2.157-.768-2.86-.512-.718-1.197-1.076-2.054-1.076m6.757-1.21h1.48v1.69c.447-.704.927-1.21 1.44-1.517.524-.307 1.158-.46 1.9-.46.973 0 1.747.25 2.323.748.58.5.868 1.165.868 1.997v7.604h-1.594v-6.97c0-.607-.186-1.087-.557-1.44-.37-.36-.877-.54-1.517-.54-.82 0-1.48.31-1.98.94-.5.612-.75 1.432-.75 2.46v5.55h-1.61v-10.067m10.572-3.935h1.786v1.94c0 1.574-.596 2.412-1.786 2.515v-.73c.614-.102.92-.678.92-1.728h-.92V99.56m7.886 3.937v1.306h-1.65v6.894c0 .358.056.6.172.73.128.114.364.172.71.172.32 0 .576-.03.768-.08v1.342c-.5.09-.934.135-1.306.135-.627 0-1.107-.14-1.44-.423-.333-.268-.5-.66-.5-1.17V104.8h-1.362v-1.306h1.363v-2.765h1.595v2.764h1.65m16.067 3.15c.41.18.75.39 1.018.634.282.242.48.517.595.825.128.307.212.595.25.864.038.27.058.59.058.96 0 .114-.006.28-.02.5v.48c0 .523.058.965.173 1.323.115.36.34.653.672.883v.442h-2.17c-.256-.59-.384-1.35-.384-2.288v-1.248c0-.86-.185-1.486-.556-1.883-.372-.41-.954-.614-1.748-.614h-4.608v6.03h-1.786v-14h6.452c1.37 0 2.42.326 3.15.98.74.64 1.113 1.56 1.113 2.764 0 .794-.172 1.453-.52 1.978-.343.525-.907.98-1.69 1.363m.348-3.09c0-.922-.243-1.556-.73-1.9-.486-.346-1.158-.52-2.016-.52h-4.32v4.82h4.32c.947 0 1.64-.19 2.074-.575.448-.385.672-.993.672-1.825m12.902 5.516h-7.412c.013.922.192 1.638.537 2.15.55.87 1.357 1.306 2.42 1.306 1.306 0 2.183-.672 2.63-2.016h1.614c-.2 1.1-.68 1.96-1.44 2.573-.753.61-1.71.92-2.86.92-1.41 0-2.52-.476-3.34-1.42-.82-.96-1.23-2.27-1.23-3.92s.417-2.97 1.25-3.956c.844-1 1.964-1.497 3.36-1.497.947 0 1.78.236 2.496.71.73.473 1.254 1.12 1.575 1.94.27.703.404 1.772.404 3.206m-7.374-1.307h5.646c.012-.026.02-.064.02-.115 0-.83-.27-1.53-.808-2.092-.537-.577-1.197-.865-1.978-.865-.807 0-1.473.28-1.998.846-.522.55-.817 1.294-.88 2.228m9.268-1.284c.077-2.177 1.42-3.265 4.033-3.265 1.242 0 2.182.234 2.823.71.64.46.96 1.14.96 2.033v5.914c0 .524.288.787.864.787.115 0 .23-.013.345-.04v1.21c-.448.116-.813.174-1.094.174-.51 0-.9-.12-1.17-.365-.252-.23-.413-.603-.48-1.115-1.072.986-2.21 1.48-3.414 1.48-1.012 0-1.818-.27-2.42-.808-.59-.537-.883-1.26-.883-2.17 0-.294.025-.563.077-.806.063-.242.127-.453.19-.633.076-.192.204-.365.384-.518.18-.168.326-.3.44-.404.13-.102.334-.2.616-.287.293-.104.517-.174.67-.213.154-.05.423-.107.807-.17.384-.064.666-.11.845-.135l.96-.134c.63-.077 1.065-.2 1.308-.365.243-.167.365-.416.365-.75v-.42c0-.488-.2-.86-.595-1.115-.384-.255-.935-.383-1.652-.383-.742 0-1.306.147-1.69.44-.384.283-.608.73-.672 1.346h-1.613m3.208 6.126c.886 0 1.61-.23 2.17-.693.566-.474.848-.98.848-1.517v-1.804c-.32.153-.807.28-1.46.384-.64.102-1.196.192-1.67.27-.474.075-.903.26-1.287.556-.384.28-.576.678-.576 1.19 0 .512.172.91.518 1.19.347.282.834.423 1.46.423m15.55-13.037v14h-1.42v-1.326c-.436.627-.91 1.076-1.42 1.344-.5.282-1.096.423-1.787.423-1.354 0-2.423-.484-3.204-1.46-.78-.98-1.17-2.326-1.17-4.03 0-1.6.39-2.88 1.17-3.84.794-.97 1.843-1.46 3.15-1.46 1.38 0 2.41.52 3.09 1.557V99.56h1.594m-4.417 5.147c-.87 0-1.575.358-2.112 1.075-.536.717-.805 1.658-.805 2.823 0 1.178.27 2.125.806 2.842.538.704 1.25 1.056 2.13 1.056.847 0 1.526-.352 2.038-1.056.512-.704.768-1.64.768-2.804 0-1.203-.256-2.157-.768-2.86-.512-.718-1.197-1.076-2.055-1.076"/></g><path style="line-height:89.99999762%;-inkscape-font-specification:FreeSans Bold" d="M65.124 85.96v11.6h-2.88v-11.6H58v-2.4h11.214v2.4h-4.09m9.08 1.057c.45 0 .884.052 1.307.154.427.107.856.29 1.29.56.45.27.83.616 1.15 1.04.335.41.6.96.81 1.65.203.68.306 1.46.306 2.343 0 .153-.007.307-.02.46h-6.95c.013.397.045.743.096 1.037.063.28.165.563.306.844.154.27.37.48.653.636.293.14.658.21 1.093.21 1.026 0 1.71-.434 2.057-1.305h2.65c-.296 1.025-.878 1.845-1.75 2.46-.87.6-1.89.902-3.053.902-1.472 0-2.63-.473-3.475-1.42-.844-.96-1.267-2.272-1.267-3.937 0-1.74.43-3.11 1.287-4.11.86-1.01 2.03-1.516 3.514-1.516m2.054 4.416c-.065-.756-.276-1.338-.634-1.748-.346-.41-.832-.614-1.46-.614-1.177 0-1.856.787-2.035 2.362h4.13m4.51-4.248h2.688v2.036c.28-.705.678-1.25 1.19-1.633.512-.384 1.076-.576 1.69-.576.115 0 .224.004.327.02v2.724c-.32-.05-.602-.077-.845-.077-1.576 0-2.363.788-2.363 2.362v5.51H80.77V87.19m7.29 0h2.67v1.287c.45-.525.884-.896 1.306-1.114.436-.23.948-.346 1.536-.346 1.36 0 2.3.512 2.826 1.536.768-1.024 1.78-1.536 3.034-1.536 1.036 0 1.842.282 2.42.845.587.563.882 1.35.882 2.362v7.335h-2.688V90.64c0-.41-.134-.736-.403-.98-.255-.242-.61-.364-1.055-.364-.576 0-1.03.18-1.363.54-.32.356-.48.856-.48 1.496v6.22h-2.687v-6.912c0-.41-.135-.736-.404-.98-.256-.242-.61-.364-1.056-.364-.576 0-1.03.18-1.363.54-.32.358-.48.858-.48 1.498v6.22h-2.69V87.19m18.8 7.354c.09.436.27.768.538 1 .28.23.806.344 1.574.344.627 0 1.114-.09 1.46-.268.358-.18.537-.43.537-.75 0-.204-.07-.37-.214-.498-.128-.128-.36-.244-.69-.346l-3.208-1c-.014 0-.09-.018-.23-.056-.14-.05-.245-.09-.31-.115-.05-.026-.152-.064-.306-.116-.154-.07-.275-.13-.365-.197-.076-.064-.18-.14-.306-.23-.13-.102-.23-.21-.308-.326-.064-.116-.135-.244-.21-.384-.078-.154-.136-.327-.174-.52-.04-.19-.056-.396-.056-.613 0-1.062.38-1.9 1.134-2.515.768-.627 1.81-.94 3.13-.94 1.395 0 2.49.313 3.283.94.794.615 1.204 1.472 1.23 2.573h-2.593c-.013-.932-.66-1.4-1.94-1.4-.473 0-.85.09-1.132.27-.28.166-.422.396-.422.69 0 .205.065.365.193.48.13.103.38.21.75.327l3.4.98c1.356.396 2.034 1.267 2.034 2.61 0 .398-.07.788-.21 1.172-.14.37-.37.74-.69 1.112-.308.37-.776.663-1.403.88-.625.23-1.37.347-2.225.347-3.187 0-4.82-1.15-4.896-3.455h2.63m18.61-7.528c1.624 0 2.885.493 3.78 1.48.907.972 1.36 2.335 1.36 4.09 0 1.663-.46 2.98-1.382 3.954-.922.975-2.17 1.46-3.745 1.46-1.6 0-2.854-.485-3.763-1.46-.91-.983-1.365-2.327-1.365-4.03 0-1.703.455-3.04 1.364-4.013.91-.986 2.155-1.48 3.742-1.48m.02 2.17c-.73 0-1.32.308-1.767.923-.45.614-.673 1.414-.673 2.4s.224 1.786.672 2.4c.446.615 1.034.92 1.764.92.718 0 1.3-.3 1.748-.9.46-.615.692-1.41.692-2.38 0-1.026-.224-1.84-.672-2.44-.436-.615-1.024-.92-1.767-.92m11.58-1.79v1.787h-1.595v8.372h-2.687V89.18h-1.46V87.4h1.46v-1.247c0-1.728.883-2.592 2.65-2.592.525 0 1.037.02 1.536.06v2.02c-.23-.04-.488-.06-.77-.06-.486 0-.73.27-.73.807V87.4h1.595m17.383.424h-2.69c-.1-1.46-1.08-2.19-2.938-2.19-.742 0-1.33.16-1.766.48-.433.308-.65.724-.65 1.25 0 .51.185.895.556 1.15.37.244 1.07.468 2.093.673l2.19.423c1.29.256 2.23.69 2.82 1.305.59.602.883 1.453.883 2.554 0 1.42-.506 2.53-1.517 3.34-1.01.79-2.42 1.19-4.224 1.19-1.794 0-3.19-.4-4.187-1.19-.986-.798-1.524-1.94-1.613-3.44h2.803c.05.754.346 1.33.883 1.73.537.395 1.292.593 2.265.593.87 0 1.556-.166 2.056-.5.51-.332.767-.792.767-1.38 0-.565-.2-1-.595-1.307-.398-.31-1.077-.55-2.037-.73l-1.958-.386c-1.424-.27-2.436-.69-3.037-1.266-.602-.576-.903-1.408-.903-2.496 0-1.37.46-2.426 1.384-3.168.934-.756 2.24-1.133 3.917-1.133.488 0 .956.032 1.404.096.46.064.948.198 1.46.403.51.19.954.447 1.325.767.37.307.678.742.922 1.306.255.55.383 1.19.383 1.92m6.393-.808c.448 0 .883.052 1.306.154.42.105.85.29 1.284.56.445.27.83.614 1.15 1.037.332.41.6.96.806 1.65.206.68.308 1.46.308 2.344 0 .153-.006.307-.02.46h-6.95c.013.397.045.743.096 1.037.064.282.166.564.307.845.156.27.37.48.655.635.296.14.66.21 1.096.21 1.026 0 1.71-.434 2.056-1.305h2.65c-.293 1.026-.875 1.846-1.745 2.46-.87.6-1.89.903-3.053.903-1.472 0-2.63-.473-3.475-1.42-.844-.96-1.266-2.272-1.266-3.937 0-1.74.428-3.11 1.286-4.11.858-1.01 2.03-1.516 3.514-1.516m2.055 4.416c-.064-.756-.276-1.338-.634-1.748-.347-.41-.833-.614-1.46-.614-1.178 0-1.856.787-2.036 2.362h4.13m4.505-4.248h2.688v2.036c.282-.705.68-1.25 1.19-1.633.513-.382 1.076-.574 1.69-.574.115 0 .224.006.327.02v2.726c-.32-.05-.602-.076-.845-.076-1.575 0-2.362.788-2.362 2.362v5.51H167.4V87.19m12.974 10.37h-2.823l-3.624-10.37h2.842l2.246 7.585 2.094-7.585h2.842l-3.57 10.37m7.45-10.37v10.37h-2.69V87.19h2.69m0-3.63v2.4h-2.69v-2.4h2.69m6.506 5.627c-1.46 0-2.19 1.133-2.19 3.4 0 1.01.193 1.804.577 2.38.396.576.934.864 1.613.864.524 0 .934-.14 1.228-.42.295-.292.525-.772.692-1.44h2.573c-.13 1.24-.604 2.23-1.42 2.96-.81.716-1.84 1.075-3.095 1.075-1.536 0-2.733-.473-3.59-1.42-.845-.948-1.268-2.28-1.268-3.994 0-1.767.43-3.136 1.287-4.11.858-.972 2.06-1.46 3.61-1.46 1.293 0 2.336.36 3.13 1.077.806.716 1.254 1.71 1.344 2.976h-2.574c-.154-.68-.378-1.16-.672-1.44-.282-.295-.698-.442-1.248-.442m10.38-2.172c.45 0 .884.052 1.306.154.426.106.855.29 1.29.56.448.27.83.615 1.15 1.038.335.41.604.96.808 1.65.205.68.308 1.46.308 2.344 0 .153-.006.307-.02.46h-6.95c.012.397.044.743.096 1.037.065.28.167.564.308.845.153.27.37.48.653.636.295.14.66.21 1.095.21 1.024 0 1.71-.433 2.055-1.304h2.65c-.296 1.025-.878 1.845-1.75 2.46-.87.6-1.887.902-3.052.902-1.47 0-2.63-.473-3.473-1.42-.846-.96-1.27-2.272-1.27-3.937 0-1.74.43-3.11 1.288-4.11.857-1.01 2.03-1.515 3.514-1.515m2.052 4.416c-.064-.755-.275-1.337-.633-1.747-.347-.41-.833-.614-1.46-.614-1.178 0-1.857.786-2.036 2.36h4.128" font-size="19.202" letter-spacing="0" word-spacing="0" font-family="FreeSans" font-weight="bold"/></svg>