<?xml version="1.0" encoding="UTF-8" standalone="no"?>
<!-- Created with Inkscape (http://www.inkscape.org/) -->

<svg
   xmlns:dc="http://purl.org/dc/elements/1.1/"
   xmlns:cc="http://creativecommons.org/ns#"
   xmlns:rdf="http://www.w3.org/1999/02/22-rdf-syntax-ns#"
   xmlns:svg="http://www.w3.org/2000/svg"
   xmlns="http://www.w3.org/2000/svg"
   xmlns:xlink="http://www.w3.org/1999/xlink"
   xmlns:sodipodi="http://sodipodi.sourceforge.net/DTD/sodipodi-0.dtd"
   xmlns:inkscape="http://www.inkscape.org/namespaces/inkscape"
   width="760"
   height="128"
   id="svg2"
   version="1.1"
   inkscape:version="0.48.3.1 r9886"
   sodipodi:docname="tosdr-logo-32.svg"
   inkscape:export-filename="/home/user/tosdr-logo/tosdr-logo-32.png"
   inkscape:export-xdpi="90"
   inkscape:export-ydpi="90">
  <defs
     id="defs4">
    <radialGradient
       inkscape:collect="always"
       xlink:href="#linearGradient4394"
       id="radialGradient4400"
       cx="198.10001"
       cy="329.22119"
       fx="198.10001"
       fy="329.22119"
       r="198.10001"
       gradientTransform="matrix(1,0,0,0.37859666,0,204.57915)"
       gradientUnits="userSpaceOnUse"
       spreadMethod="pad" />
    <linearGradient
       id="linearGradient4394">
      <stop
         id="stop4402"
         offset="0"
         style="stop-color:#c8c8c8;stop-opacity:0;" />
      <stop
         style="stop-color:#c8c8c8;stop-opacity:0;"
         offset="0.36680028"
         id="stop4404" />
      <stop
         id="stop4406"
         offset="0.93367344"
         style="stop-color:#c8c8c8;stop-opacity:0.19607843;" />
      <stop
         style="stop-color:#c8c8c8;stop-opacity:0.19607843;"
         offset="1"
         id="stop4398" />
    </linearGradient>
  </defs>
  <sodipodi:namedview
     id="base"
     pagecolor="#ffffff"
     bordercolor="#666666"
     borderopacity="1.0"
     inkscape:pageopacity="0.0"
     inkscape:pageshadow="2"
     inkscape:zoom="2"
     inkscape:cx="141.96378"
     inkscape:cy="41.466035"
     inkscape:document-units="px"
     inkscape:current-layer="layer1"
     showgrid="true"
     inkscape:window-width="1280"
     inkscape:window-height="799"
     inkscape:window-x="0"
     inkscape:window-y="0"
     inkscape:window-maximized="1"
     showguides="true"
     inkscape:guide-bbox="true"
     fit-margin-top="0"
     fit-margin-left="0"
     fit-margin-right="0"
     fit-margin-bottom="0">
    <inkscape:grid
       type="xygrid"
       id="grid3255"
       empspacing="2"
       visible="true"
       enabled="true"
       snapvisiblegridlinesonly="true"
       originx="-3.3306691e-16px"
       originy="5.46875e-06px" />
  </sodipodi:namedview>
  <metadata
     id="metadata7">
    <rdf:RDF>
      <cc:Work
         rdf:about="">
        <dc:format>image/svg+xml</dc:format>
        <dc:type
           rdf:resource="http://purl.org/dc/dcmitype/StillImage" />
        <dc:title></dc:title>
      </cc:Work>
    </rdf:RDF>
  </metadata>
  <g
     inkscape:label="Layer 1"
     inkscape:groupmode="layer"
     id="layer1"
     transform="translate(-50,-226.22119)">
    <rect
       style="fill:#46a546;fill-opacity:1"
       ry="12"
       rx="12"
       y="230.22119"
       x="50"
       height="24"
       width="128"
       id="rect3936" />
    <rect
       id="rect3996"
       width="112.64"
       height="24"
       x="50"
       y="262.22119"
       rx="12"
       ry="12"
       style="fill:#f89406;fill-opacity:1" />
    <rect
       style="fill:#c43c35;fill-opacity:1"
       ry="12"
       rx="12"
       y="294.22119"
       x="50"
       height="24"
       width="122.88"
       id="rect4005" />
    <rect
       id="rect4007"
       width="76.800003"
       height="24"
       x="50"
       y="326.22119"
       rx="12"
       ry="12"
       style="fill:#999999;fill-opacity:1" />
    <g
       id="text2985-5"
       style="font-size:36.57554245px;font-style:normal;font-weight:normal;line-height:89.99999762%;letter-spacing:0px;word-spacing:0px;fill:#000000;fill-opacity:1;stroke:none;font-family:Sans"
       transform="matrix(4.0000068,0,0,3.9999932,-6,-1062.6636)">
      <path
         inkscape:connector-curvature="0"
         id="path4314"
         style="font-size:19.20215988px;font-variant:normal;font-weight:bold;font-stretch:normal;line-height:89.99999762%;fill:#000000;font-family:FreeSans;-inkscape-font-specification:FreeSans Bold"
         d="m 51.999912,353.22015 0,-13.99838 5.395807,0 c 1.779392,1e-5 3.174747,0.62088 4.186071,1.86261 1.011302,1.24175 1.516958,2.95074 1.516971,5.12698 -1.3e-5,2.17625 -0.51207,3.89164 -1.536173,5.14618 -1.011324,1.24174 -2.400279,1.86261 -4.166869,1.86261 l -5.395807,0 m 1.785801,-1.57458 3.302772,0 c 1.382547,0 2.432264,-0.46085 3.149154,-1.38256 0.71687,-0.9217 1.07531,-2.26585 1.075321,-4.03245 -1.1e-5,-1.77939 -0.358451,-3.12994 -1.075321,-4.05166 -0.71689,-0.92169 -1.766607,-1.38254 -3.149154,-1.38255 l -3.302772,0 0,10.84922" />
      <path
         inkscape:connector-curvature="0"
         id="path4316"
         style="font-size:19.20215988px;font-variant:normal;font-stretch:normal;line-height:89.99999762%;fill:#000000;font-family:FreeSans;-inkscape-font-specification:FreeSans"
         d="m 67.047805,343.15821 0,10.06194 -1.593779,0 0,-10.06194 1.593779,0 m 0,-3.93644 0,2.01623 -1.612981,0 0,-2.01623 1.612981,0" />
      <path
         inkscape:connector-curvature="0"
         id="path4318"
         style="font-size:19.20215988px;font-variant:normal;font-stretch:normal;line-height:89.99999762%;fill:#000000;font-family:FreeSans;-inkscape-font-specification:FreeSans"
         d="m 77.948032,339.22177 0,13.99838 -1.42096,0 0,-1.32495 c -0.435257,0.62727 -0.908909,1.07532 -1.42096,1.34415 -0.499262,0.28163 -1.094529,0.42244 -1.785801,0.42245 -1.356956,-1e-5 -2.425875,-0.48646 -3.20676,-1.45937 -0.780889,-0.98571 -1.171333,-2.32986 -1.171332,-4.03245 -10e-7,-1.60018 0.390443,-2.88032 1.171332,-3.84043 0.793686,-0.9729 1.843403,-1.45936 3.149154,-1.45937 1.382549,10e-6 2.413064,0.51847 3.091548,1.55538 l 0,-5.20379 1.593779,0 m -4.416497,5.14618 c -0.870502,10e-6 -1.574581,0.35845 -2.112238,1.07532 -0.537662,0.71689 -0.806492,1.65779 -0.80649,2.82272 -2e-6,1.17773 0.268828,2.12504 0.80649,2.84192 0.537657,0.70408 1.248137,1.05612 2.13144,1.05612 0.844889,0 1.523365,-0.35204 2.035429,-1.05612 0.51205,-0.70408 0.768079,-1.63858 0.768087,-2.80352 -8e-6,-1.20333 -0.256037,-2.15703 -0.768087,-2.86112 -0.512064,-0.71687 -1.19694,-1.07531 -2.054631,-1.07532" />
      <path
         inkscape:connector-curvature="0"
         id="path4320"
         style="font-size:19.20215988px;font-variant:normal;font-stretch:normal;line-height:89.99999762%;fill:#000000;font-family:FreeSans;-inkscape-font-specification:FreeSans"
         d="m 80.288294,343.15821 1.478567,0 0,1.68979 c 0.448047,-0.70407 0.9281,-1.20972 1.440162,-1.51697 0.524854,-0.30722 1.158525,-0.46084 1.901014,-0.46085 0.972902,10e-6 1.747388,0.24964 2.323461,0.74889 0.576056,0.49926 0.864088,1.16493 0.864097,1.99702 l 0,7.60406 -1.593779,0 0,-6.97039 c -8e-6,-0.60166 -0.185629,-1.08171 -0.556863,-1.44016 -0.371248,-0.35843 -0.876905,-0.53765 -1.51697,-0.53766 -0.819297,1e-5 -1.478571,0.31364 -1.977823,0.9409 -0.499259,0.61448 -0.748887,1.43377 -0.748884,2.45788 l 0,5.54943 -1.612982,0 0,-10.06194" />
      <path
         inkscape:connector-curvature="0"
         id="path4322"
         style="font-size:19.20215988px;font-variant:normal;font-stretch:normal;line-height:89.99999762%;fill:#000000;font-family:FreeSans;-inkscape-font-specification:FreeSans"
         d="m 90.861785,339.22177 1.785801,0 0,1.93942 c -3e-6,1.57459 -0.595269,2.41308 -1.785801,2.51548 l 0,-0.72968 c 0.614467,-0.1024 0.921702,-0.67847 0.921704,-1.72819 l -0.921704,0 0,-1.99703" />
      <path
         inkscape:connector-curvature="0"
         id="path4324"
         style="font-size:19.20215988px;font-variant:normal;font-stretch:normal;line-height:89.99999762%;fill:#000000;font-family:FreeSans;-inkscape-font-specification:FreeSans"
         d="m 98.748172,343.15821 0,1.30575 -1.651386,0 0,6.89358 c -3e-6,0.35844 0.0576,0.60166 0.172819,0.72968 0.128011,0.11521 0.364837,0.17282 0.71048,0.17282 0.320032,0 0.57606,-0.0256 0.768087,-0.0768 l 0,1.34415 c -0.499261,0.0896 -0.93451,0.13441 -1.305747,0.13442 -0.627274,-10e-6 -1.107327,-0.14082 -1.440162,-0.42245 -0.33284,-0.26883 -0.499258,-0.65928 -0.499257,-1.17133 l 0,-7.60406 -1.363353,0 0,-1.30575 1.363353,0 0,-2.76511 1.59378,0 0,2.76511 1.651386,0" />
      <path
         inkscape:connector-curvature="0"
         id="path4326"
         style="font-size:19.20215988px;font-variant:normal;font-stretch:normal;line-height:89.99999762%;fill:#000000;font-family:FreeSans;-inkscape-font-specification:FreeSans"
         d="m 114.81438,346.30737 c 0.40964,0.17922 0.74887,0.39045 1.01771,0.63367 0.28162,0.24323 0.48005,0.51846 0.59527,0.82569 0.128,0.30724 0.21121,0.59527 0.24963,0.8641 0.0384,0.26883 0.0576,0.58887 0.0576,0.96011 -2e-5,0.11521 -0.006,0.28163 -0.0192,0.49925 -1e-5,0.21763 -1e-5,0.37765 0,0.48006 -1e-5,0.52486 0.0576,0.96651 0.17282,1.32495 0.1152,0.35844 0.33923,0.65287 0.67208,0.8833 l 0,0.44165 -2.16985,0 c -0.25603,-0.58887 -0.38405,-1.35056 -0.38404,-2.28506 l 0,-1.24814 c -1e-5,-0.85769 -0.18563,-1.48496 -0.55686,-1.88181 -0.37125,-0.40964 -0.95372,-0.61447 -1.7474,-0.61447 l -4.60852,0 0,6.02948 -1.7858,0 0,-13.99838 6.45193,0 c 1.36974,1e-5 2.41946,0.32645 3.14915,0.97931 0.74247,0.64009 1.11372,1.56179 1.11373,2.76511 -1e-5,0.7937 -0.17283,1.45297 -0.51846,1.97782 -0.34565,0.52487 -0.90891,0.97932 -1.68979,1.36336 m 0.34564,-3.09155 c -1e-5,-0.92169 -0.24324,-1.55536 -0.72968,-1.90101 -0.48647,-0.34563 -1.15854,-0.51845 -2.01623,-0.51846 l -4.32049,0 0,4.81974 4.32049,0 c 0.9473,1e-5 1.63857,-0.19201 2.07383,-0.57606 0.44804,-0.38404 0.67207,-0.99211 0.67208,-1.82421" />
      <path
         inkscape:connector-curvature="0"
         id="path4328"
         style="font-size:19.20215988px;font-variant:normal;font-stretch:normal;line-height:89.99999762%;fill:#000000;font-family:FreeSans;-inkscape-font-specification:FreeSans"
         d="m 128.06177,348.72684 -7.41203,0 c 0.0128,0.92171 0.19202,1.63859 0.53766,2.15064 0.55046,0.8705 1.35695,1.30575 2.41947,1.30575 1.30574,0 2.18264,-0.67208 2.6307,-2.01623 l 1.61298,0 c -0.20483,1.10093 -0.68489,1.95862 -1.44016,2.57309 -0.7553,0.61447 -1.709,0.9217 -2.86113,0.92171 -1.40816,-1e-5 -2.52188,-0.47366 -3.34117,-1.42096 -0.8193,-0.96011 -1.22894,-2.26586 -1.22894,-3.91725 0,-1.65137 0.41605,-2.96992 1.24814,-3.95564 0.84489,-0.9985 1.96502,-1.49776 3.36038,-1.49777 0.9473,10e-6 1.77939,0.23684 2.49628,0.71048 0.72967,0.47366 1.25453,1.12014 1.57458,1.93942 0.26882,0.70409 0.40323,1.773 0.40324,3.20676 m -7.37363,-1.30575 5.64544,0 c 0.0128,-0.0256 0.0192,-0.064 0.0192,-0.11521 -10e-6,-0.83209 -0.26884,-1.52976 -0.80649,-2.09304 -0.53767,-0.57605 -1.19694,-0.86408 -1.97782,-0.86409 -0.8065,1e-5 -1.47217,0.28164 -1.99703,0.84489 -0.52486,0.55047 -0.81929,1.29295 -0.8833,2.22745" />
      <path
         inkscape:connector-curvature="0"
         id="path4330"
         style="font-size:19.20215988px;font-variant:normal;font-stretch:normal;line-height:89.99999762%;fill:#000000;font-family:FreeSans;-inkscape-font-specification:FreeSans"
         d="m 129.96039,346.13455 c 0.0768,-2.17624 1.42095,-3.26436 4.03245,-3.26437 1.24173,10e-6 2.18264,0.23684 2.82272,0.71048 0.64006,0.46086 0.9601,1.13934 0.96011,2.03543 l 0,5.91427 c -1e-5,0.52486 0.28802,0.78728 0.86409,0.78728 0.11521,0 0.23042,-0.0128 0.34564,-0.0384 l 0,1.20974 c -0.44806,0.11521 -0.8129,0.17281 -1.09452,0.17282 -0.51207,-1e-5 -0.90251,-0.12162 -1.17133,-0.36485 -0.25604,-0.23042 -0.41606,-0.60166 -0.48006,-1.11372 -1.07532,0.98571 -2.21465,1.47856 -3.41798,1.47857 -1.01132,-1e-5 -1.81781,-0.26884 -2.41947,-0.8065 -0.58887,-0.53766 -0.8833,-1.26094 -0.8833,-2.16984 0,-0.29443 0.0256,-0.56326 0.0768,-0.80649 0.064,-0.24322 0.12801,-0.45445 0.19202,-0.63367 0.0768,-0.19202 0.20482,-0.36484 0.38404,-0.51846 0.17922,-0.16641 0.32644,-0.30083 0.44165,-0.40325 0.12801,-0.1024 0.33283,-0.19841 0.61447,-0.28803 0.29443,-0.1024 0.51845,-0.17281 0.67207,-0.21122 0.15362,-0.0512 0.42245,-0.10881 0.8065,-0.17282 0.38403,-0.064 0.66567,-0.10881 0.84489,-0.13442 0.17922,-0.0256 0.49925,-0.0704 0.96011,-0.13441 0.62726,-0.0768 1.06251,-0.19842 1.30575,-0.36484 0.24322,-0.16641 0.36483,-0.41604 0.36484,-0.74889 l 0,-0.42244 c -1e-5,-0.48645 -0.19843,-0.85769 -0.59527,-1.11373 -0.38405,-0.25602 -0.93451,-0.38403 -1.65139,-0.38404 -0.74248,1e-5 -1.30575,0.14722 -1.68979,0.44165 -0.38404,0.28164 -0.60807,0.72969 -0.67207,1.34415 l -1.61298,0 m 3.20676,6.12549 c 0.88329,0 1.60657,-0.23043 2.16984,-0.69128 0.56326,-0.47365 0.84489,-0.97931 0.8449,-1.51697 l 0,-1.805 c -0.32005,0.15362 -0.8065,0.28163 -1.45937,0.38404 -0.64008,0.10242 -1.19694,0.19203 -1.67059,0.26883 -0.47365,0.0768 -0.9025,0.26243 -1.28654,0.55686 -0.38405,0.28164 -0.57607,0.67848 -0.57607,1.19054 0,0.51206 0.17282,0.9089 0.51846,1.19053 0.34564,0.28163 0.83209,0.42245 1.45937,0.42245" />
      <path
         inkscape:connector-curvature="0"
         id="path4332"
         style="font-size:19.20215988px;font-variant:normal;font-stretch:normal;line-height:89.99999762%;fill:#000000;font-family:FreeSans;-inkscape-font-specification:FreeSans"
         d="m 148.71849,339.22177 0,13.99838 -1.42096,0 0,-1.32495 c -0.43526,0.62727 -0.90891,1.07532 -1.42096,1.34415 -0.49926,0.28163 -1.09453,0.42244 -1.7858,0.42245 -1.35696,-1e-5 -2.42588,-0.48646 -3.20676,-1.45937 -0.78089,-0.98571 -1.17133,-2.32986 -1.17133,-4.03245 0,-1.60018 0.39044,-2.88032 1.17133,-3.84043 0.79369,-0.9729 1.8434,-1.45936 3.14915,-1.45937 1.38255,10e-6 2.41307,0.51847 3.09155,1.55538 l 0,-5.20379 1.59378,0 m -4.4165,5.14618 c -0.8705,10e-6 -1.57458,0.35845 -2.11223,1.07532 -0.53767,0.71689 -0.8065,1.65779 -0.8065,2.82272 0,1.17773 0.26883,2.12504 0.8065,2.84192 0.53765,0.70408 1.24813,1.05612 2.13144,1.05612 0.84488,0 1.52336,-0.35204 2.03542,-1.05612 0.51205,-0.70408 0.76808,-1.63858 0.76809,-2.80352 -1e-5,-1.20333 -0.25604,-2.15703 -0.76809,-2.86112 -0.51206,-0.71687 -1.19694,-1.07531 -2.05463,-1.07532" />
    </g>
    <g
       id="text3239"
       style="font-size:36.57447052px;font-style:normal;font-weight:normal;line-height:89.99999762%;letter-spacing:0px;word-spacing:0px;fill:#000000;fill-opacity:1;stroke:none;font-family:Sans"
       transform="matrix(4.0000052,0,0,3.9999947,-6,-1062.6636)">
      <path
         inkscape:connector-curvature="0"
         id="path4335"
         style="font-size:19.20159531px;font-variant:normal;font-weight:bold;font-stretch:normal;line-height:89.99999762%;fill:#000000;font-family:FreeSans;-inkscape-font-specification:FreeSans Bold"
         d="m 59.123724,325.62224 0,11.59776 -2.880239,0 0,-11.59776 -4.243553,0 0,-2.4002 11.213732,0 0,2.4002 -4.08994,0" />
      <path
         inkscape:connector-curvature="0"
         id="path4337"
         style="font-size:19.20159531px;font-variant:normal;font-weight:bold;font-stretch:normal;line-height:89.99999762%;fill:#000000;font-family:FreeSans;-inkscape-font-specification:FreeSans Bold"
         d="m 68.204878,326.67833 c 0.448032,10e-6 0.883267,0.0512 1.305709,0.15361 0.422428,0.10242 0.851263,0.28803 1.286507,0.55684 0.448028,0.26884 0.83206,0.61446 1.152095,1.03689 0.332819,0.40964 0.601641,0.96009 0.806467,1.65134 0.204807,0.67846 0.307216,1.45932 0.307226,2.34259 -1e-5,0.15362 -0.0064,0.30723 -0.0192,0.46084 l -6.950977,0 c 0.0128,0.39684 0.0448,0.74247 0.09601,1.03689 0.064,0.28162 0.16641,0.56325 0.307225,0.84487 0.153609,0.26882 0.371227,0.48004 0.652854,0.63365 0.29442,0.14081 0.65925,0.21122 1.094491,0.21122 1.024079,0 1.708935,-0.43524 2.054571,-1.30571 l 2.64982,0 c -0.294434,1.02409 -0.876882,1.84335 -1.747345,2.4578 -0.87048,0.60165 -1.888163,0.90248 -3.053054,0.90248 -1.472126,0 -2.630621,-0.47364 -3.475488,-1.42092 -0.844871,-0.96008 -1.267306,-2.27219 -1.267306,-3.93633 0,-1.74094 0.428835,-3.11065 1.286507,-4.10914 0.857669,-1.01127 2.028965,-1.51691 3.513892,-1.51692 m 2.054571,4.41636 c -0.06401,-0.75525 -0.27523,-1.3377 -0.633653,-1.74734 -0.345635,-0.40963 -0.832075,-0.61445 -1.459321,-0.61445 -1.177702,0 -1.856158,0.78727 -2.035369,2.36179 l 4.128343,0" />
      <path
         inkscape:connector-curvature="0"
         id="path4339"
         style="font-size:19.20159531px;font-variant:normal;font-weight:bold;font-stretch:normal;line-height:89.99999762%;fill:#000000;font-family:FreeSans;-inkscape-font-specification:FreeSans Bold"
         d="m 74.767623,326.85114 2.688223,0 0,2.03537 c 0.281619,-0.70405 0.678452,-1.2481 1.190499,-1.63214 0.512037,-0.38402 1.075283,-0.57603 1.689741,-0.57604 0.115202,10e-6 0.224011,0.006 0.326427,0.0192 l 0,2.72662 c -0.320034,-0.0512 -0.601657,-0.0768 -0.844871,-0.0768 -1.574535,10e-6 -2.3618,0.78727 -2.361796,2.36179 l 0,5.51086 -2.688223,0 0,-10.36886" />
      <path
         inkscape:connector-curvature="0"
         id="path4341"
         style="font-size:19.20159531px;font-variant:normal;font-weight:bold;font-stretch:normal;line-height:89.99999762%;fill:#000000;font-family:FreeSans;-inkscape-font-specification:FreeSans Bold"
         d="m 82.060631,326.85114 2.669021,0 0,1.28651 c 0.448033,-0.52484 0.883269,-0.89607 1.305709,-1.1137 0.435231,-0.2304 0.947273,-0.34561 1.536128,-0.34562 1.356904,10e-6 2.297782,0.51205 2.822634,1.53612 0.768054,-1.02407 1.779337,-1.53611 3.033852,-1.53612 1.036873,10e-6 1.843339,0.28163 2.419401,0.84487 0.588834,0.56325 0.883258,1.35052 0.883274,2.36179 l 0,7.33501 -2.688224,0 0,-6.91257 c -1.3e-5,-0.40963 -0.134424,-0.73606 -0.403233,-0.97928 -0.256034,-0.24322 -0.608063,-0.36483 -1.056088,-0.36483 -0.576059,0 -1.030496,0.17922 -1.363313,0.53764 -0.320037,0.35844 -0.48005,0.85768 -0.48004,1.49772 l 0,6.22132 -2.688224,0 0,-6.91257 c -7e-6,-0.40963 -0.134418,-0.73606 -0.403233,-0.97928 -0.256028,-0.24322 -0.608057,-0.36483 -1.056088,-0.36483 -0.576053,0 -1.03049,0.17922 -1.363313,0.53764 -0.320031,0.35844 -0.480044,0.85768 -0.48004,1.49772 l 0,6.22132 -2.688223,0 0,-10.36886" />
      <path
         inkscape:connector-curvature="0"
         id="path4343"
         style="font-size:19.20159531px;font-variant:normal;font-weight:bold;font-stretch:normal;line-height:89.99999762%;fill:#000000;font-family:FreeSans;-inkscape-font-specification:FreeSans Bold"
         d="m 100.85989,334.20535 c 0.0896,0.43524 0.26882,0.76807 0.53765,0.99848 0.28162,0.23042 0.80646,0.34563 1.57453,0.34563 0.62724,0 1.11368,-0.0896 1.45932,-0.26882 0.35842,-0.17921 0.53764,-0.42883 0.53764,-0.74886 0,-0.20482 -0.0704,-0.37123 -0.21121,-0.49924 -0.12802,-0.12801 -0.35844,-0.24322 -0.69126,-0.34563 l -3.20667,-0.99849 c -0.0128,10e-6 -0.0896,-0.0192 -0.23042,-0.0576 -0.14081,-0.0512 -0.24322,-0.0896 -0.30722,-0.11521 -0.0512,-0.0256 -0.15362,-0.064 -0.30723,-0.11521 -0.153612,-0.064 -0.275222,-0.128 -0.364828,-0.19202 -0.07681,-0.064 -0.179216,-0.1408 -0.307225,-0.23041 -0.128012,-0.10241 -0.230421,-0.21122 -0.307226,-0.32643 -0.06401,-0.11521 -0.134412,-0.24322 -0.211217,-0.38403 -0.07681,-0.15361 -0.134412,-0.32642 -0.172815,-0.51845 -0.0384,-0.19201 -0.0576,-0.39682 -0.0576,-0.61445 -10e-7,-1.06248 0.37763,-1.90095 1.132894,-2.51541 0.768057,-0.62724 1.811347,-0.94086 3.129857,-0.94087 1.39531,10e-6 2.4898,0.31363 3.28347,0.94087 0.79366,0.61446 1.20329,1.47213 1.2289,2.57302 l -2.59221,0 c -0.0128,-0.93447 -0.65926,-1.40171 -1.93936,-1.40172 -0.47365,10e-6 -0.85128,0.0896 -1.1329,0.26882 -0.28162,0.16643 -0.42244,0.39684 -0.42243,0.69126 -1e-5,0.20482 0.064,0.36484 0.19201,0.48004 0.12801,0.10242 0.37763,0.21122 0.74887,0.32643 l 3.39868,0.97928 c 1.3569,0.39684 2.03536,1.26731 2.03537,2.61142 -10e-6,0.39683 -0.0704,0.78726 -0.21122,1.17129 -0.14082,0.37124 -0.37124,0.74247 -0.69126,1.1137 -0.30723,0.37123 -0.77447,0.66565 -1.40171,0.88327 -0.62726,0.23042 -1.36972,0.34563 -2.22739,0.34563 -3.187462,0 -4.819596,-1.1521 -4.896402,-3.45629 l 2.630612,0" />
      <path
         inkscape:connector-curvature="0"
         id="path4345"
         style="font-size:19.20159531px;font-variant:normal;font-weight:bold;font-stretch:normal;line-height:89.99999762%;fill:#000000;font-family:FreeSans;-inkscape-font-specification:FreeSans Bold"
         d="m 119.46594,326.67833 c 1.62572,10e-6 2.88663,0.49285 3.78271,1.47852 0.90887,0.97289 1.3633,2.3362 1.36331,4.08994 -1e-5,1.66414 -0.46084,2.98265 -1.38251,3.95553 -0.92169,0.97288 -2.16979,1.45932 -3.74431,1.45932 -1.60014,0 -2.85464,-0.48644 -3.76351,-1.45932 -0.90888,-0.98568 -1.36332,-2.32979 -1.36332,-4.03234 0,-1.70253 0.45444,-3.04024 1.36332,-4.01313 0.90887,-0.98567 2.15697,-1.47851 3.74431,-1.47852 m 0.0192,2.16978 c -0.72967,0 -1.31852,0.30723 -1.76655,0.92167 -0.44804,0.61446 -0.67206,1.41453 -0.67205,2.4002 -10e-6,0.98569 0.22401,1.78575 0.67205,2.4002 0.44803,0.61445 1.03688,0.92168 1.76655,0.92168 0.71685,0 1.2993,-0.30083 1.74734,-0.90248 0.46083,-0.61445 0.69125,-1.40811 0.69126,-2.381 -10e-6,-1.02407 -0.22403,-1.83694 -0.67206,-2.4386 -0.43524,-0.61444 -1.02409,-0.92167 -1.76654,-0.92167" />
      <path
         inkscape:connector-curvature="0"
         id="path4347"
         style="font-size:19.20159531px;font-variant:normal;font-weight:bold;font-stretch:normal;line-height:89.99999762%;fill:#000000;font-family:FreeSans;-inkscape-font-specification:FreeSans Bold"
         d="m 131.0598,327.06236 0,1.78575 -1.59374,0 0,8.37189 -2.68822,0 0,-8.37189 -1.45932,0 0,-1.78575 1.45932,0 0,-1.24811 c 0,-1.72813 0.88327,-2.5922 2.64982,-2.59221 0.52484,1e-5 1.03688,0.0192 1.53613,0.0576 l 0,2.01617 c -0.23043,-0.0384 -0.48645,-0.0576 -0.76806,-0.0576 -0.48645,1e-5 -0.72967,0.26883 -0.72967,0.80646 l 0,1.01769 1.59374,0" />
      <path
         inkscape:connector-curvature="0"
         id="path4349"
         style="font-size:19.20159531px;font-variant:normal;font-weight:bold;font-stretch:normal;line-height:89.99999762%;fill:#000000;font-family:FreeSans;-inkscape-font-specification:FreeSans Bold"
         d="m 148.44355,327.48479 -2.68823,0 c -0.10241,-1.45931 -1.0817,-2.18897 -2.93784,-2.18898 -0.74247,10e-6 -1.33132,0.16003 -1.76655,0.48004 -0.43524,0.30724 -0.65286,0.72327 -0.65285,1.2481 -1e-5,0.51206 0.18561,0.89609 0.55684,1.1521 0.37123,0.24323 1.06889,0.46725 2.09298,0.67206 l 2.18898,0.42243 c 1.2929,0.25603 2.23377,0.69127 2.82263,1.30571 0.58884,0.60166 0.88327,1.45293 0.88328,2.55381 -1e-5,1.42092 -0.50566,2.53461 -1.51693,3.34108 -1.01129,0.79366 -2.41941,1.1905 -4.22435,1.1905 -1.79215,0 -3.18747,-0.39684 -4.18595,-1.1905 -0.98568,-0.79367 -1.52332,-1.93936 -1.61293,-3.43709 l 2.80343,0 c 0.0512,0.75527 0.34563,1.33132 0.88327,1.72815 0.53764,0.39683 1.29291,0.59525 2.26579,0.59525 0.87047,0 1.55532,-0.16642 2.05457,-0.49925 0.51204,-0.33282 0.76806,-0.79366 0.76807,-1.38251 -1e-5,-0.56324 -0.19843,-0.99848 -0.59525,-1.30571 -0.39684,-0.30722 -1.0753,-0.55044 -2.03537,-0.72966 l -1.95856,-0.38403 c -1.42093,-0.26882 -2.43221,-0.69125 -3.03386,-1.26731 -0.60165,-0.57604 -0.90247,-1.4081 -0.90247,-2.4962 0,-1.36971 0.46084,-2.42579 1.38251,-3.16827 0.93448,-0.75525 2.24019,-1.13288 3.91713,-1.13289 0.48643,10e-6 0.95367,0.032 1.40172,0.096 0.46083,0.064 0.94727,0.19843 1.45932,0.40323 0.51203,0.19203 0.95367,0.44805 1.32491,0.76806 0.37122,0.30724 0.67844,0.74248 0.92167,1.30571 0.25601,0.55046 0.38402,1.19051 0.38404,1.92016" />
      <path
         inkscape:connector-curvature="0"
         id="path4351"
         style="font-size:19.20159531px;font-variant:normal;font-weight:bold;font-stretch:normal;line-height:89.99999762%;fill:#000000;font-family:FreeSans;-inkscape-font-specification:FreeSans Bold"
         d="m 154.83708,326.67833 c 0.44803,10e-6 0.88326,0.0512 1.3057,0.15361 0.42243,0.10242 0.85127,0.28803 1.28651,0.55684 0.44803,0.26884 0.83206,0.61446 1.1521,1.03689 0.33282,0.40964 0.60164,0.96009 0.80646,1.65134 0.20481,0.67846 0.30722,1.45932 0.30723,2.34259 -1e-5,0.15362 -0.006,0.30723 -0.0192,0.46084 l -6.95098,0 c 0.0128,0.39684 0.0448,0.74247 0.096,1.03689 0.064,0.28162 0.16641,0.56325 0.30722,0.84487 0.15361,0.26882 0.37123,0.48004 0.65286,0.63365 0.29442,0.14081 0.65925,0.21122 1.09449,0.21122 1.02408,0 1.70893,-0.43524 2.05457,-1.30571 l 2.64982,0 c -0.29443,1.02409 -0.87688,1.84335 -1.74734,2.4578 -0.87048,0.60165 -1.88817,0.90248 -3.05306,0.90248 -1.47212,0 -2.63062,-0.47364 -3.47549,-1.42092 -0.84487,-0.96008 -1.2673,-2.27219 -1.2673,-3.93633 0,-1.74094 0.42883,-3.11065 1.2865,-4.10914 0.85767,-1.01127 2.02897,-1.51691 3.5139,-1.51692 m 2.05457,4.41636 c -0.064,-0.75525 -0.27523,-1.3377 -0.63366,-1.74734 -0.34563,-0.40963 -0.83207,-0.61445 -1.45932,-0.61445 -1.1777,0 -1.85615,0.78727 -2.03537,2.36179 l 4.12835,0" />
      <path
         inkscape:connector-curvature="0"
         id="path4353"
         style="font-size:19.20159531px;font-variant:normal;font-weight:bold;font-stretch:normal;line-height:89.99999762%;fill:#000000;font-family:FreeSans;-inkscape-font-specification:FreeSans Bold"
         d="m 161.39983,326.85114 2.68822,0 0,2.03537 c 0.28162,-0.70405 0.67845,-1.2481 1.1905,-1.63214 0.51203,-0.38402 1.07528,-0.57603 1.68974,-0.57604 0.1152,10e-6 0.22401,0.006 0.32642,0.0192 l 0,2.72662 c -0.32003,-0.0512 -0.60165,-0.0768 -0.84487,-0.0768 -1.57453,10e-6 -2.3618,0.78727 -2.36179,2.36179 l 0,5.51086 -2.68822,0 0,-10.36886" />
      <path
         inkscape:connector-curvature="0"
         id="path4355"
         style="font-size:19.20159531px;font-variant:normal;font-weight:bold;font-stretch:normal;line-height:89.99999762%;fill:#000000;font-family:FreeSans;-inkscape-font-specification:FreeSans Bold"
         d="m 174.3738,337.22 -2.82263,0 -3.6291,-10.36886 2.84183,0 2.24659,7.58463 2.09297,-7.58463 2.84184,0 -3.5715,10.36886" />
      <path
         inkscape:connector-curvature="0"
         id="path4357"
         style="font-size:19.20159531px;font-variant:normal;font-weight:bold;font-stretch:normal;line-height:89.99999762%;fill:#000000;font-family:FreeSans;-inkscape-font-specification:FreeSans Bold"
         d="m 181.82882,326.85114 0,10.36886 -2.68823,0 0,-10.36886 2.68823,0 m 0,-3.6291 0,2.4002 -2.68823,0 0,-2.4002 2.68823,0" />
      <path
         inkscape:connector-curvature="0"
         id="path4359"
         style="font-size:19.20159531px;font-variant:normal;font-weight:bold;font-stretch:normal;line-height:89.99999762%;fill:#000000;font-family:FreeSans;-inkscape-font-specification:FreeSans Bold"
         d="m 188.33456,328.84811 c -1.45932,0 -2.18898,1.1329 -2.18898,3.39868 0,1.01129 0.19201,1.80495 0.57605,2.381 0.39683,0.57605 0.93447,0.86407 1.61293,0.86407 0.52484,0 0.93448,-0.14081 1.22891,-0.42244 0.29441,-0.29442 0.52483,-0.77446 0.69125,-1.44012 l 2.57302,0 c -0.12802,1.24171 -0.60166,2.22739 -1.42092,2.95705 -0.80648,0.71686 -1.83696,1.07529 -3.09146,1.07529 -1.53613,0 -2.73303,-0.47364 -3.5907,-1.42092 -0.84487,-0.94728 -1.2673,-2.27859 -1.2673,-3.99393 0,-1.76654 0.42883,-3.13625 1.28651,-4.10914 0.85766,-0.97287 2.06096,-1.45931 3.6099,-1.45932 1.2929,10e-6 2.33618,0.35844 3.12986,1.07528 0.80645,0.71687 1.25449,1.70895 1.34411,2.97625 l -2.57302,0 c -0.15362,-0.67845 -0.37764,-1.15849 -0.67205,-1.44012 -0.28163,-0.29441 -0.69767,-0.44163 -1.24811,-0.44163" />
      <path
         inkscape:connector-curvature="0"
         id="path4361"
         style="font-size:19.20159531px;font-variant:normal;font-weight:bold;font-stretch:normal;line-height:89.99999762%;fill:#000000;font-family:FreeSans;-inkscape-font-specification:FreeSans Bold"
         d="m 198.71572,326.67833 c 0.44803,10e-6 0.88327,0.0512 1.30571,0.15361 0.42243,0.10242 0.85127,0.28803 1.28651,0.55684 0.44803,0.26884 0.83206,0.61446 1.15209,1.03689 0.33282,0.40964 0.60164,0.96009 0.80647,1.65134 0.20481,0.67846 0.30722,1.45932 0.30723,2.34259 -1e-5,0.15362 -0.006,0.30723 -0.0192,0.46084 l -6.95098,0 c 0.0128,0.39684 0.0448,0.74247 0.096,1.03689 0.064,0.28162 0.16641,0.56325 0.30722,0.84487 0.15361,0.26882 0.37123,0.48004 0.65286,0.63365 0.29442,0.14081 0.65925,0.21122 1.09449,0.21122 1.02408,0 1.70893,-0.43524 2.05457,-1.30571 l 2.64982,0 c -0.29444,1.02409 -0.87688,1.84335 -1.74735,2.4578 -0.87048,0.60165 -1.88816,0.90248 -3.05305,0.90248 -1.47213,0 -2.63062,-0.47364 -3.47549,-1.42092 -0.84487,-0.96008 -1.26731,-2.27219 -1.26731,-3.93633 0,-1.74094 0.42884,-3.11065 1.28651,-4.10914 0.85767,-1.01127 2.02897,-1.51691 3.51389,-1.51692 m 2.05457,4.41636 c -0.064,-0.75525 -0.27523,-1.3377 -0.63365,-1.74734 -0.34563,-0.40963 -0.83207,-0.61445 -1.45932,-0.61445 -1.1777,0 -1.85616,0.78727 -2.03537,2.36179 l 4.12834,0" />
    </g>
  </g>
</svg>
