<svg xmlns="http://www.w3.org/2000/svg" xmlns:xlink="http://www.w3.org/1999/xlink" width="190" height="32"><defs><radialGradient xlink:href="#a" cx="198.1" cy="329.221" fx="198.1" fy="329.221" r="198.1" gradientTransform="matrix(1 0 0 .379 0 204.579)" gradientUnits="userSpaceOnUse" spreadMethod="pad"/><linearGradient id="a"><stop offset="0" stop-color="#c8c8c8" stop-opacity="0"/><stop offset=".367" stop-color="#c8c8c8" stop-opacity="0"/><stop offset=".934" stop-color="#c8c8c8" stop-opacity=".196"/><stop offset="1" stop-color="#c8c8c8" stop-opacity=".196"/></linearGradient></defs><g transform="translate(-50 -322.221)"><rect ry="3" rx="3" y="323.221" x="50" height="6" width="32" fill="#46a546"/><rect width="28.16" height="6" x="50" y="331.221" rx="3" ry="3" fill="#f89406"/><rect ry="3" rx="3" y="339.221" x="50" height="6" width="30.72" fill="#c43c35"/><rect width="19.2" height="6" x="50" y="347.221" rx="3" ry="3" fill="#999"/><g style="line-height:89.99999762%" font-size="19.202" letter-spacing="0" word-spacing="0" font-family="FreeSans"><path style="line-height:89.99999762%;-inkscape-font-specification:FreeSans Bold" d="M88 353.22v-14h5.396c1.78 0 3.175.622 4.186 1.864 1.01 1.242 1.517 2.95 1.517 5.127 0 2.18-.52 3.9-1.54 5.15-1.01 1.24-2.4 1.87-4.17 1.87H88m1.786-1.57h3.303c1.38 0 2.43-.46 3.14-1.38.71-.92 1.07-2.26 1.07-4.03 0-1.78-.36-3.13-1.08-4.05-.72-.92-1.77-1.38-3.15-1.38h-3.3v10.85" font-weight="bold"/><path style="line-height:89.99999762%;-inkscape-font-specification:FreeSans" d="M103.048 343.158v10.062h-1.594v-10.062h1.594m0-3.937v2.02h-1.613v-2.01h1.613m10.9 0v14h-1.42v-1.33c-.436.63-.91 1.08-1.422 1.35-.5.28-1.094.42-1.786.42-1.357 0-2.425-.483-3.206-1.46-.78-.982-1.172-2.33-1.172-4.03 0-1.6.39-2.88 1.172-3.84.793-.973 1.843-1.46 3.15-1.46 1.38 0 2.412.52 3.09 1.556v-5.204h1.594m-4.416 5.147c-.87 0-1.575.36-2.113 1.076-.54.715-.81 1.655-.81 2.82 0 1.177.27 2.124.8 2.84.53.705 1.25 1.057 2.13 1.057.84 0 1.52-.352 2.03-1.056.51-.7.77-1.635.77-2.8 0-1.202-.26-2.155-.77-2.86-.51-.716-1.2-1.075-2.06-1.075m6.757-1.208h1.48v1.69c.447-.703.927-1.21 1.44-1.52.524-.303 1.16-.46 1.9-.46.973 0 1.75.25 2.324.75.576.5.864 1.167.864 2v7.6h-1.59v-6.97c0-.6-.186-1.08-.557-1.44-.37-.36-.873-.54-1.513-.54-.82 0-1.48.31-1.98.94-.5.614-.75 1.433-.75 2.46v5.55h-1.615v-10.06m10.574-3.94h1.786v1.94c0 1.574-.592 2.413-1.782 2.515v-.73c.615-.1.923-.68.923-1.73h-.92v-2m7.89 3.94v1.303h-1.65v6.896c0 .354.056.6.17.73.128.11.365.17.71.17.32 0 .576-.03.768-.08v1.343c-.5.09-.935.135-1.306.135-.63 0-1.11-.14-1.44-.42-.332-.27-.5-.66-.5-1.175v-7.603h-1.362v-1.306h1.36V340.4h1.596v2.77h1.65m16.07 3.15c.41.18.748.39 1.017.63.286.246.48.52.6.828.13.308.21.596.25.865.04.27.06.59.06.96 0 .115-.006.28-.02.5v.48c0 .524.06.965.17 1.324.12.358.34.65.675.883v.443h-2.17c-.256-.59-.384-1.35-.384-2.286v-1.25c0-.855-.183-1.483-.554-1.88-.374-.41-.956-.614-1.75-.614h-4.61v6.03h-1.78v-14h6.452c1.37 0 2.42.323 3.15.98.74.64 1.112 1.56 1.112 2.76 0 .795-.175 1.455-.52 1.98-.346.526-.91.98-1.69 1.365m.345-3.093c0-.92-.245-1.556-.73-1.9-.488-.347-1.16-.52-2.018-.52h-4.32v4.82h4.32c.947 0 1.64-.193 2.073-.577.45-.388.674-.996.674-1.828m12.9 5.51h-7.41c.01.926.19 1.64.536 2.15.55.87 1.358 1.31 2.42 1.31 1.306 0 2.183-.67 2.63-2.014h1.614c-.202 1.1-.682 1.96-1.44 2.575-.753.61-1.706.92-2.86.92-1.41 0-2.52-.474-3.34-1.42-.82-.96-1.23-2.27-1.23-3.92s.417-2.97 1.25-3.955c.844-.997 1.965-1.496 3.36-1.496.947 0 1.78.232 2.496.71.73.47 1.255 1.12 1.575 1.94.27.7.405 1.77.405 3.202m-7.374-1.31h5.65c.02-.024.02-.063.02-.114 0-.83-.27-1.53-.8-2.09-.54-.575-1.195-.863-1.98-.863-.81 0-1.47.285-2 .848-.52.55-.82 1.29-.88 2.226m9.27-1.284c.08-2.175 1.427-3.26 4.038-3.26 1.24 0 2.183.232 2.823.71.64.46.96 1.14.96 2.032v5.912c0 .522.288.784.864.784.115 0 .23-.01.346-.035v1.206c-.45.118-.81.175-1.093.175-.51 0-.9-.12-1.17-.362-.252-.23-.412-.6-.48-1.116-1.072.985-2.21 1.48-3.414 1.48-1.014 0-1.82-.267-2.42-.804-.59-.54-.885-1.26-.885-2.17 0-.297.024-.565.075-.81.067-.243.13-.454.19-.633.08-.19.21-.365.388-.52l.44-.4c.13-.104.34-.2.62-.29.295-.1.52-.173.67-.21.157-.05.425-.11.81-.174.386-.06.667-.107.846-.13l.96-.136c.626-.08 1.06-.2 1.304-.37.243-.165.365-.415.365-.75v-.42c0-.49-.196-.86-.593-1.114-.386-.255-.937-.383-1.654-.383-.743 0-1.306.146-1.69.44-.384.28-.608.73-.67 1.343h-1.615m3.21 6.126c.885 0 1.608-.23 2.17-.69.564-.474.846-.98.846-1.518v-1.804c-.32.156-.806.284-1.46.386-.64.1-1.196.19-1.67.27-.474.074-.9.26-1.286.554-.385.283-.577.68-.577 1.19 0 .514.173.91.52 1.19.347.284.833.424 1.46.424m15.55-13.04v14h-1.42v-1.326c-.437.63-.91 1.077-1.42 1.346-.5.28-1.098.42-1.79.42-1.353 0-2.422-.49-3.203-1.46-.78-.988-1.17-2.33-1.17-4.035 0-1.6.39-2.88 1.17-3.84.79-.977 1.84-1.46 3.15-1.46 1.38 0 2.41.515 3.09 1.552v-5.204h1.595m-4.42 5.147c-.87 0-1.573.36-2.11 1.073-.54.715-.806 1.655-.806 2.82 0 1.18.267 2.125.805 2.84.54.704 1.25 1.056 2.13 1.056.844 0 1.523-.35 2.035-1.055.518-.704.77-1.64.77-2.803 0-1.2-.25-2.154-.763-2.86-.512-.715-1.197-1.074-2.055-1.074"/></g><path style="line-height:89.99999762%;-inkscape-font-specification:FreeSans Bold" d="M95.124 325.622v11.598h-2.88v-11.598H88v-2.4h11.214v2.4h-4.09m9.08 1.056c.45 0 .884.05 1.307.154.43.102.86.288 1.29.556.45.27.83.615 1.15 1.037.34.41.6.96.81 1.652.21.678.31 1.46.31 2.342 0 .15 0 .3-.02.46h-6.95c.02.39.05.74.1 1.03.07.28.17.56.31.84.16.27.37.48.66.63.292.14.657.21 1.092.21 1.026 0 1.71-.44 2.057-1.31h2.65c-.3 1.022-.88 1.84-1.75 2.46-.87.6-1.89.9-3.056.9-1.473 0-2.63-.475-3.476-1.42-.844-.96-1.266-2.275-1.266-3.94 0-1.74.43-3.11 1.288-4.11.86-1.01 2.03-1.516 3.514-1.516m2.052 4.415c-.063-.757-.275-1.34-.633-1.75-.35-.41-.835-.614-1.46-.614-1.18 0-1.86.79-2.04 2.36h4.13m4.51-4.24h2.69v2.034c.28-.702.68-1.25 1.19-1.63.51-.38 1.076-.574 1.69-.574.115 0 .224.006.327.02v2.726c-.32-.05-.603-.075-.846-.075-1.574 0-2.36.79-2.36 2.364v5.51h-2.69v-10.37m7.29 0h2.67v1.287c.45-.527.884-.898 1.306-1.115.436-.23.95-.35 1.537-.35 1.358 0 2.298.515 2.82 1.54.77-1.025 1.78-1.537 3.035-1.537 1.036 0 1.842.283 2.42.846.587.564.882 1.35.882 2.363v7.337h-2.684v-6.91c0-.41-.137-.74-.406-.98-.255-.246-.61-.367-1.055-.367-.58 0-1.03.18-1.367.54-.32.36-.48.86-.48 1.5v6.22h-2.69v-6.91c0-.41-.135-.74-.404-.98-.26-.247-.61-.37-1.06-.37-.577 0-1.03.18-1.364.54-.32.36-.48.86-.48 1.5v6.22h-2.69v-10.37m18.8 7.354c.09.435.27.768.538.998.28.23.81.35 1.578.35.626 0 1.113-.09 1.46-.27.36-.18.536-.43.536-.75 0-.21-.07-.37-.212-.5-.126-.13-.356-.247-.69-.35l-3.206-.995c-.016 0-.09-.02-.23-.056-.14-.05-.247-.09-.31-.116-.05-.022-.154-.06-.308-.112-.152-.063-.274-.13-.364-.19-.08-.066-.18-.14-.31-.23-.13-.105-.23-.21-.308-.33-.065-.113-.136-.24-.21-.382-.08-.15-.137-.324-.175-.516-.04-.195-.055-.4-.055-.618 0-1.067.38-1.9 1.134-2.52.766-.627 1.81-.94 3.13-.94 1.393 0 2.49.313 3.28.94.795.614 1.205 1.472 1.23 2.573h-2.59c-.014-.94-.66-1.406-1.94-1.406-.474 0-.85.09-1.13.27-.28.167-.425.398-.425.69 0 .207.064.367.192.48.13.105.38.21.75.33l3.4.98c1.357.395 2.035 1.265 2.035 2.61 0 .396-.07.79-.21 1.17-.14.37-.37.74-.69 1.113-.307.37-.775.664-1.4.882-.628.23-1.37.342-2.228.342-3.19 0-4.82-1.15-4.898-3.454h2.63m18.61-7.52c1.625 0 2.886.49 3.782 1.476.906.973 1.36 2.337 1.36 4.09 0 1.664-.46 2.983-1.38 3.956-.924.974-2.17 1.46-3.747 1.46-1.6 0-2.85-.486-3.76-1.46-.91-.985-1.36-2.33-1.36-4.03 0-1.704.455-3.04 1.364-4.015.91-.984 2.16-1.477 3.744-1.477m.02 2.17c-.73 0-1.32.308-1.766.92-.45.617-.67 1.417-.67 2.4 0 .986.22 1.786.67 2.4.446.615 1.035.92 1.764.92.717 0 1.3-.3 1.748-.9.46-.615.69-1.41.69-2.38 0-1.02-.22-1.835-.67-2.44-.433-.61-1.022-.92-1.765-.92m11.577-1.784v1.786h-1.593v8.374h-2.69v-8.375h-1.46v-1.784h1.46v-1.25c0-1.727.88-2.59 2.65-2.59.523 0 1.035.02 1.534.057v2.014c-.23-.034-.484-.053-.766-.053-.487 0-.73.27-.73.806v1.02h1.594m17.387.423h-2.69c-.11-1.46-1.09-2.19-2.94-2.19-.75 0-1.33.16-1.77.48-.43.31-.65.722-.65 1.25 0 .51.182.893.553 1.15.37.24 1.07.464 2.094.67l2.19.42c1.29.26 2.232.69 2.82 1.31.59.6.884 1.454.884 2.555 0 1.42-.51 2.534-1.52 3.34-1.01.794-2.42 1.19-4.225 1.19-1.795 0-3.19-.396-4.19-1.19-.99-.793-1.527-1.94-1.616-3.436h2.805c.05.752.345 1.33.883 1.725.54.4 1.293.597 2.266.597.87 0 1.552-.165 2.05-.5.513-.33.77-.792.77-1.38 0-.564-.2-1-.596-1.306-.397-.31-1.076-.55-2.036-.73l-1.957-.387c-1.423-.27-2.434-.69-3.036-1.266-.603-.58-.904-1.41-.904-2.5 0-1.37.46-2.425 1.386-3.17.932-.756 2.24-1.134 3.915-1.134.49 0 .954.03 1.4.094.46.066.948.2 1.46.405.51.19.954.45 1.325.77.37.31.676.743.92 1.31.254.55.382 1.19.382 1.92m6.39-.808c.45 0 .885.05 1.307.155.42.1.85.29 1.286.555.446.27.83.615 1.15 1.037.332.41.6.96.806 1.65.207.68.31 1.46.31 2.34 0 .15-.007.305-.02.46h-6.95c.01.396.044.74.095 1.036.066.28.17.56.31.845.154.27.37.48.653.636.298.14.66.21 1.098.21 1.02 0 1.71-.437 2.05-1.307h2.65c-.29 1.023-.873 1.842-1.743 2.46-.87.6-1.89.9-3.05.9-1.47 0-2.63-.47-3.476-1.42-.846-.96-1.268-2.27-1.268-3.938 0-1.74.43-3.11 1.286-4.11.86-1.01 2.03-1.517 3.516-1.517m2.053 4.413c-.065-.757-.276-1.34-.635-1.75-.345-.41-.83-.615-1.46-.615-1.177 0-1.855.79-2.035 2.36h4.13m4.506-4.24h2.69v2.034c.28-.705.68-1.25 1.19-1.633.513-.383 1.076-.575 1.69-.575.116 0 .225.006.327.02v2.726c-.32-.05-.6-.076-.843-.076-1.572 0-2.36.79-2.36 2.362v5.51h-2.7v-10.37m12.974 10.37h-2.822l-3.625-10.37h2.84l2.247 7.585 2.095-7.583h2.84l-3.57 10.37m7.452-10.37v10.37h-2.69v-10.37h2.69m0-3.626v2.4h-2.69v-2.4h2.69m6.505 5.63c-1.46 0-2.19 1.134-2.19 3.4 0 1.012.19 1.805.575 2.38.397.577.934.865 1.613.865.527 0 .936-.14 1.23-.42.295-.293.526-.773.69-1.44h2.575c-.13 1.24-.605 2.228-1.42 2.958-.81.72-1.84 1.077-3.095 1.077-1.538 0-2.734-.476-3.59-1.42-.847-.95-1.27-2.28-1.27-3.998 0-1.767.43-3.137 1.286-4.11.86-.97 2.06-1.46 3.61-1.46 1.294 0 2.337.36 3.13 1.076.807.716 1.255 1.71 1.345 2.975h-2.572c-.156-.68-.38-1.16-.67-1.44-.286-.293-.7-.44-1.25-.44m10.38-2.173c.45 0 .882.05 1.31.154.42.1.85.284 1.28.55.447.27.83.617 1.15 1.04.334.41.603.96.81 1.65.204.68.306 1.46.306 2.34 0 .15-.005.304-.02.46h-6.95c.014.395.046.74.097 1.035.067.283.17.564.31.846.154.27.37.48.653.636.292.14.66.212 1.092.212 1.024 0 1.71-.44 2.055-1.31h2.65c-.3 1.023-.88 1.842-1.75 2.46-.87.6-1.89.9-3.056.9-1.47 0-2.63-.474-3.477-1.42-.842-.96-1.264-2.274-1.264-3.938 0-1.74.426-3.11 1.284-4.11.86-1.01 2.03-1.518 3.515-1.518m2.054 4.416c-.06-.757-.272-1.34-.63-1.75-.346-.41-.832-.615-1.46-.615-1.177 0-1.856.785-2.035 2.36h4.13" font-size="19.202" letter-spacing="0" word-spacing="0" font-family="FreeSans" font-weight="bold"/></g></svg>