<svg xmlns="http://www.w3.org/2000/svg" xmlns:xlink="http://www.w3.org/1999/xlink" width="600" height="400"><defs><radialGradient xlink:href="#a" cx="198.1" cy="329.221" fx="198.1" fy="329.221" r="198.1" gradientTransform="matrix(1 0 0 .379 0 204.579)" gradientUnits="userSpaceOnUse" spreadMethod="pad"/><linearGradient id="a"><stop offset="0" stop-color="#c8c8c8" stop-opacity="0"/><stop offset=".367" stop-color="#c8c8c8" stop-opacity="0"/><stop offset=".934" stop-color="#c8c8c8" stop-opacity=".196"/><stop offset="1" stop-color="#c8c8c8" stop-opacity=".196"/></linearGradient><linearGradient id="b"><stop offset="0" stop-color="#c8c8c8" stop-opacity="0"/><stop offset=".367" stop-color="#c8c8c8" stop-opacity="0"/><stop offset=".934" stop-color="#c8c8c8" stop-opacity=".196"/><stop offset="1" stop-color="#c8c8c8" stop-opacity=".196"/></linearGradient><radialGradient xlink:href="#b" id="c" gradientUnits="userSpaceOnUse" gradientTransform="matrix(1.514 0 0 1.01 -50 -78.158)" spreadMethod="pad" cx="198.1" cy="329.221" fx="198.1" fy="329.221" r="198.1"/></defs><g><path fill="#fff" d="M0 0h600v400H0z"/><path fill="url(#c)" d="M0 0h600v400H0z"/><g transform="matrix(.682 0 0 .682 20.455 1.831)"><rect width="128" height="24" x="50" y="230.221" rx="12" ry="12" fill="#46a546"/><rect ry="12" rx="12" y="262.221" x="50" height="24" width="112.64" fill="#f89406"/><rect width="122.88" height="24" x="50" y="294.221" rx="12" ry="12" fill="#c43c35"/><rect ry="12" rx="12" y="326.221" x="50" height="24" width="76.8" fill="#999"/></g><g style="line-height:89.99999762%" font-size="19.202" letter-spacing="0" word-spacing="0" font-family="FreeSans"><path style="line-height:89.99999762%;-inkscape-font-specification:FreeSans Bold" d="M158.168 240.52v-38.174h14.714c4.853 0 8.658 1.693 11.416 5.08 2.757 3.385 4.136 8.046 4.136 13.98 0 5.935-1.396 10.613-4.19 14.034-2.757 3.386-6.544 5.08-11.362 5.08h-14.714m4.87-4.295h9.006c3.77 0 6.633-1.256 8.588-3.77 1.955-2.513 2.932-6.18 2.932-10.996 0-4.854-.977-8.537-2.932-11.05-1.955-2.514-4.817-3.77-8.588-3.77h-9.006v29.585" font-weight="bold"/><path style="line-height:89.99999762%;-inkscape-font-specification:FreeSans" d="M199.203 213.08v27.44h-4.346v-27.44h4.346m0-10.734v5.498h-4.398v-5.498h4.398"/><path style="line-height:89.99999762%;-inkscape-font-specification:FreeSans" d="M228.928 202.346v38.173h-3.875v-3.614c-1.187 1.71-2.478 2.933-3.875 3.666-1.36.768-2.984 1.152-4.87 1.152-3.7 0-6.615-1.327-8.744-3.98-2.13-2.688-3.195-6.354-3.195-10.996 0-4.364 1.064-7.855 3.194-10.473 2.164-2.653 5.027-3.98 8.587-3.98 3.772 0 6.582 1.414 8.432 4.242v-14.19h4.346m-12.044 14.032c-2.373 0-4.293.977-5.76 2.932-1.466 1.955-2.2 4.52-2.2 7.697 0 3.21.734 5.794 2.2 7.75 1.467 1.92 3.404 2.88 5.813 2.88 2.304 0 4.154-.96 5.55-2.88 1.397-1.92 2.095-4.47 2.095-7.646 0-3.28-.698-5.882-2.095-7.802-1.396-1.955-3.264-2.933-5.603-2.933"/><path style="line-height:89.99999762%;-inkscape-font-specification:FreeSans" d="M235.31 213.08h4.032v4.608c1.222-1.92 2.53-3.298 3.928-4.136 1.43-.838 3.16-1.257 5.184-1.257 2.653 0 4.765.68 6.336 2.042 1.57 1.362 2.356 3.177 2.356 5.446v20.736H252.8v-19.01c0-1.64-.506-2.95-1.52-3.926-1.01-.978-2.39-1.466-4.135-1.466-2.235 0-4.033.855-5.394 2.565-1.36 1.676-2.04 3.91-2.04 6.703v15.133h-4.4v-27.44"/><path style="line-height:89.99999762%;-inkscape-font-specification:FreeSans" d="M264.144 202.346h4.87v5.29c0 4.292-1.623 6.58-4.87 6.858v-1.99c1.676-.28 2.514-1.85 2.514-4.712h-2.514v-5.446"/><path style="line-height:89.99999762%;-inkscape-font-specification:FreeSans" d="M285.65 213.08v3.56h-4.503v18.8c0 .977.157 1.64.47 1.99.35.314.996.47 1.94.47.87 0 1.57-.07 2.093-.208v3.665c-1.36.245-2.548.367-3.56.367-1.71 0-3.02-.384-3.928-1.152-.907-.733-1.36-1.798-1.36-3.194V216.64h-3.72v-3.56h3.72v-7.54h4.345v7.54h4.503"/><path style="line-height:89.99999762%;-inkscape-font-specification:FreeSans" d="M329.463 221.668c1.117.49 2.042 1.065 2.775 1.728.768.664 1.31 1.414 1.623 2.252.35.838.577 1.623.682 2.356.105.733.157 1.606.157 2.618 0 .315-.017.768-.053 1.362v1.31c0 1.43.157 2.635.47 3.612.315.978.926 1.78 1.834 2.41v1.203h-5.916c-.698-1.606-1.048-3.684-1.048-6.232v-3.404c0-2.34-.506-4.05-1.518-5.13-1.013-1.118-2.6-1.677-4.765-1.677h-12.568v16.442h-4.87v-38.174h17.595c3.735 0 6.598.89 8.588 2.67 2.024 1.746 3.037 4.26 3.037 7.54 0 2.165-.472 3.963-1.414 5.394-.942 1.432-2.478 2.67-4.607 3.718m.942-8.43c0-2.514-.663-4.242-1.99-5.185-1.326-.942-3.16-1.413-5.498-1.413h-11.782v13.143h11.782c2.584 0 4.47-.524 5.656-1.57 1.22-1.048 1.832-2.706 1.832-4.975"/><path style="line-height:89.99999762%;-inkscape-font-specification:FreeSans" d="M365.588 228.266h-20.212c.035 2.514.523 4.47 1.466 5.865 1.5 2.375 3.7 3.562 6.598 3.562 3.56 0 5.952-1.833 7.174-5.5h4.398c-.558 3.004-1.867 5.343-3.927 7.018-2.06 1.676-4.66 2.514-7.802 2.514-3.84 0-6.877-1.292-9.112-3.875-2.233-2.62-3.35-6.18-3.35-10.684 0-4.503 1.135-8.1 3.404-10.787 2.304-2.724 5.358-4.085 9.164-4.085 2.583 0 4.852.646 6.807 1.937 1.99 1.292 3.42 3.055 4.294 5.29.732 1.92 1.098 4.834 1.098 8.744m-20.107-3.56h15.396c.035-.07.052-.175.052-.315 0-2.268-.733-4.17-2.2-5.707-1.465-1.57-3.263-2.356-5.393-2.356-2.2 0-4.014.768-5.446 2.304-1.432 1.502-2.235 3.527-2.41 6.075"/><path style="line-height:89.99999762%;-inkscape-font-specification:FreeSans" d="M370.766 221.197c.21-5.935 3.875-8.902 10.996-8.902 3.387 0 5.953.646 7.698 1.937 1.745 1.257 2.618 3.107 2.618 5.55v16.13c0 1.43.786 2.146 2.357 2.146.314 0 .628-.035.942-.105v3.3c-1.222.314-2.217.47-2.985.47-1.396 0-2.46-.33-3.194-.994-.698-.63-1.134-1.642-1.31-3.038-2.93 2.688-6.038 4.032-9.32 4.032-2.758 0-4.957-.733-6.598-2.2-1.605-1.466-2.408-3.438-2.408-5.917 0-.803.07-1.536.21-2.2.174-.662.348-1.238.523-1.727.21-.524.558-.995 1.047-1.414.49-.454.89-.82 1.204-1.1.35-.28.908-.54 1.676-.785.803-.278 1.414-.47 1.833-.575.42-.14 1.152-.297 2.2-.47 1.046-.176 1.814-.298 2.303-.368.49-.07 1.362-.192 2.618-.366 1.71-.21 2.898-.54 3.56-.994.664-.454.996-1.135.996-2.043v-1.152c0-1.325-.54-2.337-1.623-3.036-1.05-.698-2.55-1.047-4.505-1.047-2.024 0-3.56.402-4.608 1.204-1.047.77-1.658 1.99-1.832 3.667h-4.4m8.746 16.704c2.41 0 4.382-.627 5.918-1.884 1.536-1.292 2.304-2.67 2.304-4.137v-4.923c-.873.42-2.2.768-3.98 1.047-1.745.28-3.264.524-4.555.733-1.292.21-2.462.716-3.51 1.52-1.046.767-1.57 1.85-1.57 3.246s.472 2.478 1.414 3.246c.944.767 2.27 1.15 3.98 1.15"/><path style="line-height:89.99999762%;-inkscape-font-specification:FreeSans" d="M421.92 202.346v38.173h-3.876v-3.614c-1.187 1.71-2.478 2.933-3.875 3.666-1.362.768-2.985 1.152-4.87 1.152-3.7 0-6.616-1.327-8.745-3.98-2.13-2.688-3.195-6.354-3.195-10.996 0-4.364 1.065-7.855 3.195-10.473 2.164-2.653 5.027-3.98 8.587-3.98 3.77 0 6.58 1.414 8.43 4.242v-14.19h4.347m-12.044 14.032c-2.374 0-4.294.977-5.76 2.932-1.467 1.955-2.2 4.52-2.2 7.697 0 3.21.733 5.794 2.2 7.75 1.466 1.92 3.403 2.88 5.812 2.88 2.304 0 4.154-.96 5.55-2.88 1.397-1.92 2.095-4.47 2.095-7.646 0-3.28-.698-5.882-2.094-7.802-1.398-1.955-3.266-2.933-5.604-2.933"/></g><g style="line-height:89.99999762%" font-size="19.202" letter-spacing="0" word-spacing="0" font-family="FreeSans" font-weight="bold"><path style="line-height:89.99999762%;-inkscape-font-specification:FreeSans Bold" d="M177.594 165.26v31.627h-7.854V165.26h-11.572v-6.545h30.58v6.545h-11.154"/><path style="line-height:89.99999762%;-inkscape-font-specification:FreeSans Bold" d="M202.36 168.14c1.22 0 2.407.14 3.56.42 1.15.278 2.32.784 3.508 1.517 1.22.733 2.27 1.676 3.14 2.828.91 1.117 1.642 2.618 2.2 4.503.56 1.85.838 3.98.838 6.388 0 .42-.017.838-.052 1.257H196.6c.034 1.082.12 2.025.26 2.828.175.77.454 1.537.838 2.305.42.733 1.013 1.31 1.78 1.727.804.384 1.8.576 2.985.576 2.793 0 4.66-1.186 5.603-3.56h7.226c-.803 2.793-2.39 5.027-4.765 6.702-2.373 1.64-5.15 2.46-8.325 2.46-4.015 0-7.174-1.29-9.478-3.874-2.304-2.618-3.456-6.196-3.456-10.734 0-4.747 1.17-8.483 3.508-11.206 2.34-2.757 5.533-4.136 9.583-4.136m5.602 12.043c-.175-2.06-.75-3.648-1.728-4.765-.943-1.117-2.27-1.675-3.98-1.675-3.212 0-5.062 2.147-5.55 6.44h11.258"/><path style="line-height:89.99999762%;-inkscape-font-specification:FreeSans Bold" d="M220.255 168.61h7.33v5.552c.77-1.92 1.85-3.404 3.248-4.45 1.396-1.05 2.932-1.572 4.608-1.572.315 0 .61.016.89.052v7.436c-.872-.14-1.64-.21-2.303-.21-4.294 0-6.44 2.147-6.44 6.44v15.03h-7.332V168.61"/><path style="line-height:89.99999762%;-inkscape-font-specification:FreeSans Bold" d="M240.143 168.61h7.28v3.51c1.22-1.432 2.407-2.444 3.56-3.038 1.186-.628 2.583-.942 4.188-.942 3.702 0 6.268 1.396 7.7 4.19 2.093-2.794 4.85-4.19 8.272-4.19 2.828 0 5.027.768 6.598 2.304 1.606 1.536 2.408 3.683 2.408 6.44v20.003h-7.33v-18.85c0-1.118-.367-2.008-1.1-2.67-.698-.664-1.658-.996-2.88-.996-1.57 0-2.81.49-3.718 1.467-.872.978-1.31 2.34-1.31 4.084v16.967h-7.33v-18.85c0-1.118-.366-2.008-1.1-2.67-.697-.664-1.657-.996-2.88-.996-1.57 0-2.81.49-3.717 1.467-.873.978-1.31 2.34-1.31 4.084v16.967h-7.33V168.61"/><path style="line-height:89.99999762%;-inkscape-font-specification:FreeSans Bold" d="M291.41 188.666c.243 1.187.732 2.095 1.465 2.723.768.627 2.2.94 4.294.94 1.71 0 3.036-.243 3.978-.732.978-.488 1.467-1.17 1.467-2.042 0-.558-.192-1.012-.576-1.36-.35-.35-.98-.665-1.886-.944l-8.745-2.723c-.036 0-.245-.053-.63-.158-.383-.14-.663-.244-.837-.314-.14-.07-.42-.174-.838-.314-.42-.175-.75-.35-.995-.524-.21-.174-.49-.384-.838-.628-.35-.28-.628-.576-.838-.89-.174-.314-.366-.664-.576-1.048-.21-.418-.366-.89-.47-1.413-.106-.523-.158-1.08-.158-1.675 0-2.897 1.03-5.184 3.09-6.86 2.094-1.71 4.94-2.565 8.535-2.565 3.805 0 6.79.855 8.954 2.566 2.163 1.675 3.28 4.014 3.35 7.016h-7.07c-.034-2.548-1.797-3.822-5.288-3.822-1.29 0-2.32.244-3.09.733-.767.454-1.15 1.082-1.15 1.885 0 .558.173.995.523 1.31.35.278 1.03.575 2.042.89l9.268 2.67c3.7 1.082 5.55 3.456 5.55 7.12 0 1.083-.192 2.148-.576 3.195-.385 1.012-1.013 2.025-1.886 3.037-.838 1.012-2.112 1.815-3.822 2.41-1.71.627-3.735.94-6.074.94-8.692 0-13.143-3.14-13.353-9.424h7.174"/><path style="line-height:89.99999762%;-inkscape-font-specification:FreeSans Bold" d="M342.148 168.14c4.433 0 7.87 1.344 10.315 4.032 2.48 2.653 3.718 6.37 3.718 11.153 0 4.538-1.256 8.134-3.77 10.787-2.513 2.653-5.916 3.98-10.21 3.98-4.364 0-7.785-1.327-10.263-3.98-2.48-2.688-3.718-6.354-3.718-10.996 0-4.643 1.238-8.29 3.717-10.944 2.478-2.688 5.882-4.032 10.21-4.032m.053 5.917c-1.99 0-3.596.838-4.817 2.513-1.222 1.676-1.833 3.858-1.833 6.546s.61 4.87 1.833 6.545c1.22 1.676 2.827 2.514 4.817 2.514 1.955 0 3.543-.82 4.765-2.46 1.257-1.676 1.885-3.84 1.885-6.494 0-2.792-.61-5.01-1.833-6.65-1.187-1.675-2.792-2.513-4.817-2.513"/><path style="line-height:89.99999762%;-inkscape-font-specification:FreeSans Bold" d="M373.764 169.187v4.87h-4.346v22.83h-7.33v-22.83h-3.98v-4.87h3.98v-3.404c0-4.712 2.408-7.068 7.225-7.068 1.43 0 2.828.052 4.19.157v5.498c-.63-.105-1.327-.157-2.095-.157-1.327 0-1.99.733-1.99 2.2v2.774h4.346"/><path style="line-height:89.99999762%;-inkscape-font-specification:FreeSans Bold" d="M421.17 170.34h-7.33c-.28-3.98-2.95-5.97-8.013-5.97-2.024 0-3.63.436-4.817 1.31-1.187.837-1.78 1.97-1.78 3.402 0 1.397.506 2.444 1.518 3.142 1.012.663 2.915 1.274 5.708 1.833l5.97 1.152c3.525.697 6.09 1.884 7.696 3.56 1.606 1.64 2.41 3.962 2.41 6.964 0 3.875-1.38 6.912-4.138 9.11-2.757 2.165-6.597 3.247-11.52 3.247-4.887 0-8.692-1.08-11.415-3.245-2.69-2.165-4.155-5.29-4.4-9.373h7.646c.14 2.06.942 3.63 2.41 4.713 1.465 1.082 3.524 1.623 6.177 1.623 2.374 0 4.242-.454 5.603-1.362 1.397-.907 2.095-2.164 2.095-3.77 0-1.536-.54-2.723-1.622-3.56-1.083-.838-2.933-1.502-5.55-1.99l-5.342-1.047c-3.875-.735-6.633-1.887-8.273-3.457-1.64-1.57-2.46-3.84-2.46-6.808 0-3.735 1.255-6.615 3.77-8.64 2.547-2.06 6.108-3.09 10.68-3.09 1.327 0 2.6.088 3.823.263 1.257.174 2.583.54 3.98 1.1 1.396.523 2.6 1.22 3.613 2.094 1.01.838 1.85 2.025 2.512 3.56.698 1.502 1.048 3.247 1.048 5.237"/><path style="line-height:89.99999762%;-inkscape-font-specification:FreeSans Bold" d="M438.605 168.14c1.22 0 2.408.14 3.56.42 1.152.278 2.322.784 3.51 1.517 1.22.733 2.268 1.676 3.14 2.828.908 1.117 1.64 2.618 2.2 4.503.558 1.85.837 3.98.837 6.388 0 .42-.016.838-.052 1.257h-18.955c.035 1.082.122 2.025.262 2.828.174.77.453 1.537.837 2.305.42.733 1.013 1.31 1.78 1.727.804.384 1.8.576 2.985.576 2.792 0 4.66-1.186 5.602-3.56h7.226c-.803 2.793-2.39 5.027-4.765 6.702-2.374 1.64-5.15 2.46-8.325 2.46-4.015 0-7.174-1.29-9.478-3.874-2.304-2.618-3.456-6.196-3.456-10.734 0-4.747 1.17-8.483 3.508-11.206 2.34-2.757 5.533-4.136 9.583-4.136m5.603 12.043c-.175-2.06-.75-3.648-1.728-4.765-.943-1.117-2.27-1.675-3.98-1.675-3.212 0-5.062 2.147-5.55 6.44h11.258"/><path style="line-height:89.99999762%;-inkscape-font-specification:FreeSans Bold" d="M456.5 168.61h7.332v5.552c.768-1.92 1.85-3.404 3.247-4.45 1.395-1.05 2.93-1.572 4.607-1.572.314 0 .61.016.89.052v7.436c-.873-.14-1.64-.21-2.304-.21-4.294 0-6.44 2.147-6.44 6.44v15.03H456.5V168.61"/><path style="line-height:89.99999762%;-inkscape-font-specification:FreeSans Bold" d="M491.88 196.887h-7.696l-9.897-28.276h7.75l6.127 20.684 5.707-20.683h7.75l-9.74 28.277"/><path style="line-height:89.99999762%;-inkscape-font-specification:FreeSans Bold" d="M512.21 168.61v28.277h-7.33V168.61h7.33m0-9.895v6.545h-7.33v-6.545h7.33"/><path style="line-height:89.99999762%;-inkscape-font-specification:FreeSans Bold" d="M529.952 174.057c-3.98 0-5.97 3.09-5.97 9.268 0 2.758.525 4.922 1.572 6.493 1.082 1.57 2.548 2.356 4.398 2.356 1.432 0 2.55-.384 3.352-1.152.802-.803 1.43-2.112 1.885-3.927h7.015c-.35 3.386-1.64 6.074-3.875 8.064-2.2 1.954-5.01 2.93-8.43 2.93-4.19 0-7.453-1.29-9.792-3.874-2.304-2.583-3.456-6.213-3.456-10.89 0-4.818 1.17-8.554 3.51-11.207 2.337-2.654 5.62-3.98 9.843-3.98 3.525 0 6.37.977 8.535 2.932 2.2 1.955 3.42 4.66 3.665 8.116h-7.016c-.42-1.85-1.03-3.16-1.834-3.927-.768-.802-1.903-1.203-3.404-1.203"/><path style="line-height:89.99999762%;-inkscape-font-specification:FreeSans Bold" d="M558.262 168.14c1.222 0 2.408.14 3.56.42 1.152.278 2.322.784 3.51 1.517 1.22.733 2.268 1.676 3.14 2.828.908 1.117 1.64 2.618 2.2 4.503.558 1.85.838 3.98.838 6.388 0 .42-.017.838-.053 1.257h-18.955c.035 1.082.122 2.025.262 2.828.174.77.453 1.537.837 2.305.42.733 1.014 1.31 1.782 1.727.803.384 1.798.576 2.984.576 2.793 0 4.66-1.186 5.603-3.56h7.225c-.803 2.793-2.39 5.027-4.765 6.702-2.373 1.64-5.15 2.46-8.325 2.46-4.015 0-7.174-1.29-9.478-3.874-2.304-2.618-3.456-6.196-3.456-10.734 0-4.747 1.17-8.483 3.51-11.206 2.338-2.757 5.532-4.136 9.582-4.136m5.603 12.043c-.175-2.06-.75-3.648-1.728-4.765-.943-1.117-2.27-1.675-3.98-1.675-3.212 0-5.062 2.147-5.55 6.44h11.258"/></g></g></svg>